<?xml version="1.0" encoding="UTF-8" standalone="no"?> <svg width="26.8111mm" height="90.3111mm"  viewBox="0 0 76.641 256.284"  xmlns="http://www.w3.org/2000/svg" xmlns:xlink="http://www.w3.org/1999/xlink"  version="1.2" baseProfile="tiny"> <title>Generated with ETE http://etetoolkit.org</title> <desc>Generated with ETE http://etetoolkit.org</desc> <defs> </defs> <g fill="none" stroke="black" stroke-width="1" fill-rule="evenodd" stroke-linecap="square" stroke-linejoin="bevel" >      <g fill="none" stroke="none" transform="matrix(1,0,0,1,-88.8216,0)" font-family=".SF NS Text" font-size="13pt" font-weight="400" font-style="normal"  > <rect x="88.8216" y="0" width="76.641" height="256.284"/> </g>      <g fill="none" stroke="none" transform="matrix(0,1,-1,0,75.641,1)" font-family=".SF NS Text" font-size="13pt" font-weight="400" font-style="normal"  > <rect x="0" y="0" width="254.284" height="74.641"/> </g>                                  <g fill="none" stroke="#000000" stroke-opacity="1" stroke-width="1" stroke-linecap="butt" stroke-linejoin="bevel" transform="matrix(0,1,-1,0,75.641,1)" font-family=".SF NS Text" font-size="13pt" font-weight="400" font-style="normal"  > <polyline fill="none" vector-effect="non-scaling-stroke" points="6,16.8205 6,55.641 " /> </g>                      <g fill="#808080" fill-opacity="1" stroke="#808080" stroke-opacity="1" stroke-width="1" stroke-linecap="square" stroke-linejoin="bevel" transform="matrix(1,0,0,1,36.1603,0.5)" font-family=".SF NS Text" font-size="13pt" font-weight="400" font-style="normal"  > <circle cx="3" cy="3" r="3"/> </g>              <g fill="none" stroke="#000000" stroke-opacity="1" stroke-width="1" stroke-linecap="butt" stroke-linejoin="bevel" transform="matrix(0,1,-1,0,75.641,7)" font-family=".SF NS Text" font-size="13pt" font-weight="400" font-style="normal"  > <polyline fill="none" vector-effect="non-scaling-stroke" points="79.641,16.8205 79.641,17.8205 " /> </g>            <g fill="none" stroke="#000000" stroke-opacity="1" stroke-width="1" stroke-linecap="butt" stroke-linejoin="bevel" transform="matrix(0,1,-1,0,75.641,7)" font-family=".SF NS Text" font-size="13pt" font-weight="400" font-style="normal"  > <polyline fill="none" vector-effect="none" points="0,17.3205 45,17.3205 " /> </g>          <g fill="#dda0dd" fill-opacity="1" stroke="#dda0dd" stroke-opacity="1" stroke-width="1" stroke-linecap="square" stroke-linejoin="bevel" transform="matrix(1,0,0,1,40.5,51.5)" font-family=".SF NS Text" font-size="13pt" font-weight="400" font-style="normal"  > <circle cx="17.3205" cy="17.3205" r="17.3205"/> </g>  <g fill="#dda0dd" fill-opacity="1" stroke="#000000" stroke-opacity="1" stroke-width="1" stroke-linecap="square" stroke-linejoin="bevel" transform="matrix(1,0,0,1,40.5,51.5)" font-family="Verdana" font-size="12pt" font-weight="400" font-style="normal"  > <text fill="#000000" fill-opacity="1" stroke="none" xml:space="preserve" x="13" y="25" font-family="Verdana" font-size="12pt" font-weight="400" font-style="normal"   >3</text> </g>                    <g fill="none" stroke="#000000" stroke-opacity="1" stroke-width="1" stroke-linecap="butt" stroke-linejoin="bevel" transform="matrix(0,1,-1,0,72.4626,86.641)" font-family=".SF NS Text" font-size="13pt" font-weight="400" font-style="normal"  > <polyline fill="none" vector-effect="none" points="0,14.1421 45,14.1421 " /> </g>          <g fill="#bdb76b" fill-opacity="1" stroke="#bdb76b" stroke-opacity="1" stroke-width="1" stroke-linecap="square" stroke-linejoin="bevel" transform="matrix(1,0,0,1,43.6784,131.141)" font-family=".SF NS Text" font-size="13pt" font-weight="400" font-style="normal"  > <circle cx="14.1421" cy="14.1421" r="14.1421"/> </g>  <g fill="#bdb76b" fill-opacity="1" stroke="#000000" stroke-opacity="1" stroke-width="1" stroke-linecap="square" stroke-linejoin="bevel" transform="matrix(1,0,0,1,43.6784,131.141)" font-family="Verdana" font-size="12pt" font-weight="400" font-style="normal"  > <text fill="#000000" fill-opacity="1" stroke="none" xml:space="preserve" x="10" y="22" font-family="Verdana" font-size="12pt" font-weight="400" font-style="normal"   >2</text> </g>              <g fill="none" stroke="#000000" stroke-opacity="1" stroke-width="1" stroke-linecap="butt" stroke-linejoin="bevel" transform="matrix(0,1,-1,0,41,7)" font-family=".SF NS Text" font-size="13pt" font-weight="400" font-style="normal"  > <polyline fill="none" vector-effect="non-scaling-stroke" points="118.284,9.5 118.284,30 " /> </g>            <g fill="none" stroke="#000000" stroke-opacity="1" stroke-width="2" stroke-linecap="butt" stroke-linejoin="bevel" transform="matrix(0,1,-1,0,41,7)" font-family=".SF NS Text" font-size="13pt" font-weight="400" font-style="normal"  > <polyline fill="none" vector-effect="none" points="0,20 90,20 " /> </g>          <g fill="#4b0082" fill-opacity="1" stroke="#4b0082" stroke-opacity="1" stroke-width="1" stroke-linecap="square" stroke-linejoin="bevel" transform="matrix(1,0,0,1,6.35786,96.5)" font-family=".SF NS Text" font-size="13pt" font-weight="400" font-style="normal"  > <circle cx="14.1421" cy="14.1421" r="14.1421"/> </g>  <g fill="#4b0082" fill-opacity="1" stroke="#000000" stroke-opacity="1" stroke-width="1" stroke-linecap="square" stroke-linejoin="bevel" transform="matrix(1,0,0,1,6.35786,96.5)" font-family="Verdana" font-size="12pt" font-weight="400" font-style="normal"  > <text fill="#000000" fill-opacity="1" stroke="none" xml:space="preserve" x="10" y="22" font-family="Verdana" font-size="12pt" font-weight="400" font-style="normal"   >2</text> </g>                    <g fill="none" stroke="#000000" stroke-opacity="1" stroke-width="1" stroke-linecap="butt" stroke-linejoin="bevel" transform="matrix(0,1,-1,0,41,125.284)" font-family=".SF NS Text" font-size="13pt" font-weight="400" font-style="normal"  > <polyline fill="none" vector-effect="none" points="0,10 45,10 " /> </g>          <g fill="#f0f8ff" fill-opacity="1" stroke="#f0f8ff" stroke-opacity="1" stroke-width="1" stroke-linecap="square" stroke-linejoin="bevel" transform="matrix(1,0,0,1,20.5,169.784)" font-family=".SF NS Text" font-size="13pt" font-weight="400" font-style="normal"  > <circle cx="10" cy="10" r="10"/> </g>  <g fill="#f0f8ff" fill-opacity="1" stroke="#000000" stroke-opacity="1" stroke-width="1" stroke-linecap="square" stroke-linejoin="bevel" transform="matrix(1,0,0,1,20.5,169.784)" font-family="Verdana" font-size="12pt" font-weight="400" font-style="normal"  > <text fill="#000000" fill-opacity="1" stroke="none" xml:space="preserve" x="6" y="18" font-family="Verdana" font-size="12pt" font-weight="400" font-style="normal"   >1</text> </g>              <g fill="none" stroke="#000000" stroke-opacity="1" stroke-width="1" stroke-linecap="butt" stroke-linejoin="bevel" transform="matrix(0,1,-1,0,21,125.284)" font-family=".SF NS Text" font-size="13pt" font-weight="400" font-style="normal"  > <polyline fill="none" vector-effect="non-scaling-stroke" points="65,9.5 65,10.5 " /> </g>            <g fill="none" stroke="#000000" stroke-opacity="1" stroke-dasharray="4,2" stroke-dashoffset="0" stroke-width="1" stroke-linecap="butt" stroke-linejoin="bevel" transform="matrix(0,1,-1,0,21,125.284)" font-family=".SF NS Text" font-size="13pt" font-weight="400" font-style="normal"  > <polyline fill="none" vector-effect="non-scaling-stroke" points="0,10 45,10 " /> </g>          <g fill="#9932cc" fill-opacity="1" stroke="#9932cc" stroke-opacity="1" stroke-width="1" stroke-linecap="square" stroke-linejoin="bevel" transform="matrix(1,0,0,1,0.5,169.784)" font-family=".SF NS Text" font-size="13pt" font-weight="400" font-style="normal"  > <circle cx="10" cy="10" r="10"/> </g>  <g fill="#9932cc" fill-opacity="1" stroke="#000000" stroke-opacity="1" stroke-width="1" stroke-linecap="square" stroke-linejoin="bevel" transform="matrix(1,0,0,1,0.5,169.784)" font-family="Verdana" font-size="12pt" font-weight="400" font-style="normal"  > <text fill="#000000" fill-opacity="1" stroke="none" xml:space="preserve" x="6" y="18" font-family="Verdana" font-size="12pt" font-weight="400" font-style="normal"   >1</text> </g>                    <g fill="none" stroke="#000000" stroke-opacity="1" stroke-width="1" stroke-linecap="butt" stroke-linejoin="bevel" transform="matrix(0,1,-1,0,21,190.284)" font-family=".SF NS Text" font-size="13pt" font-weight="400" font-style="normal"  > <polyline fill="none" vector-effect="none" points="0,10 45,10 " /> </g>          <g fill="#fffff0" fill-opacity="1" stroke="#fffff0" stroke-opacity="1" stroke-width="1" stroke-linecap="square" stroke-linejoin="bevel" transform="matrix(1,0,0,1,0.5,234.784)" font-family=".SF NS Text" font-size="13pt" font-weight="400" font-style="normal"  > <circle cx="10" cy="10" r="10"/> </g>  <g fill="#fffff0" fill-opacity="1" stroke="#000000" stroke-opacity="1" stroke-width="1" stroke-linecap="square" stroke-linejoin="bevel" transform="matrix(1,0,0,1,0.5,234.784)" font-family="Verdana" font-size="12pt" font-weight="400" font-style="normal"  > <text fill="#000000" fill-opacity="1" stroke="none" xml:space="preserve" x="6" y="18" font-family="Verdana" font-size="12pt" font-weight="400" font-style="normal"   >1</text> </g>                                         </g> </svg> 