<?xml version="1.0" encoding="UTF-8" standalone="no"?> <svg width="31.75mm" height="87.4889mm"  viewBox="0 0 90.9898 248"  xmlns="http://www.w3.org/2000/svg" xmlns:xlink="http://www.w3.org/1999/xlink"  version="1.2" baseProfile="tiny"> <title>Generated with ETE http://etetoolkit.org</title> <desc>Generated with ETE http://etetoolkit.org</desc> <defs> </defs> <g fill="none" stroke="black" stroke-width="1" fill-rule="evenodd" stroke-linecap="square" stroke-linejoin="bevel" >      <g fill="none" stroke="none" transform="matrix(1,0,0,1,-77.5051,0)" font-family=".SF NS Text" font-size="13pt" font-weight="400" font-style="normal"  > <rect x="77.5051" y="0" width="90.9898" height="248"/> </g>      <g fill="none" stroke="none" transform="matrix(0,1,-1,0,89.9898,1)" font-family=".SF NS Text" font-size="13pt" font-weight="400" font-style="normal"  > <rect x="0" y="0" width="246" height="88.9898"/> </g>                              <g fill="none" stroke="#000000" stroke-opacity="1" stroke-width="1" stroke-linecap="butt" stroke-linejoin="bevel" transform="matrix(0,1,-1,0,89.9898,1)" font-family=".SF NS Text" font-size="13pt" font-weight="400" font-style="normal"  > <polyline fill="none" vector-effect="non-scaling-stroke" points="6,19.5 6,64.9949 " /> </g>                      <g fill="#808080" fill-opacity="1" stroke="#808080" stroke-opacity="1" stroke-width="1" stroke-linecap="square" stroke-linejoin="bevel" transform="matrix(1,0,0,1,44.2423,0.5)" font-family=".SF NS Text" font-size="13pt" font-weight="400" font-style="normal"  > <circle cx="3" cy="3" r="3"/> </g>              <g fill="none" stroke="#000000" stroke-opacity="1" stroke-width="1" stroke-linecap="butt" stroke-linejoin="bevel" transform="matrix(0,1,-1,0,89.9898,7)" font-family=".SF NS Text" font-size="13pt" font-weight="400" font-style="normal"  > <polyline fill="none" vector-effect="non-scaling-stroke" points="110,19.5 110,20.5 " /> </g>            <g fill="none" stroke="#000000" stroke-opacity="1" stroke-width="1" stroke-linecap="butt" stroke-linejoin="bevel" transform="matrix(0,1,-1,0,89.9898,7)" font-family=".SF NS Text" font-size="13pt" font-weight="400" font-style="normal"  > <polyline fill="none" vector-effect="none" points="0,20 90,20 " /> </g>          <g fill="#d2691e" fill-opacity="1" stroke="#d2691e" stroke-opacity="1" stroke-width="1" stroke-linecap="square" stroke-linejoin="bevel" transform="matrix(1,0,0,1,59.4898,96.5)" font-family=".SF NS Text" font-size="13pt" font-weight="400" font-style="normal"  > <circle cx="10" cy="10" r="10"/> </g>  <g fill="#d2691e" fill-opacity="1" stroke="#000000" stroke-opacity="1" stroke-width="1" stroke-linecap="square" stroke-linejoin="bevel" transform="matrix(1,0,0,1,59.4898,96.5)" font-family="Verdana" font-size="12pt" font-weight="400" font-style="normal"  > <text fill="#000000" fill-opacity="1" stroke="none" xml:space="preserve" x="6" y="18" font-family="Verdana" font-size="12pt" font-weight="400" font-style="normal"   >1</text> </g>              <g fill="none" stroke="#000000" stroke-opacity="1" stroke-width="1" stroke-linecap="butt" stroke-linejoin="bevel" transform="matrix(0,1,-1,0,89.9898,117)" font-family=".SF NS Text" font-size="13pt" font-weight="400" font-style="normal"  > <polyline fill="none" vector-effect="non-scaling-stroke" points="65,10 65,30 " /> </g>            <g fill="none" stroke="#000000" stroke-opacity="1" stroke-width="1" stroke-linecap="butt" stroke-linejoin="bevel" transform="matrix(0,1,-1,0,89.9898,117)" font-family=".SF NS Text" font-size="13pt" font-weight="400" font-style="normal"  > <polyline fill="none" vector-effect="none" points="0,20 45,20 " /> </g>          <g fill="#ffd700" fill-opacity="1" stroke="#ffd700" stroke-opacity="1" stroke-width="1" stroke-linecap="square" stroke-linejoin="bevel" transform="matrix(1,0,0,1,59.4898,161.5)" font-family=".SF NS Text" font-size="13pt" font-weight="400" font-style="normal"  > <circle cx="10" cy="10" r="10"/> </g>  <g fill="#ffd700" fill-opacity="1" stroke="#000000" stroke-opacity="1" stroke-width="1" stroke-linecap="square" stroke-linejoin="bevel" transform="matrix(1,0,0,1,59.4898,161.5)" font-family="Verdana" font-size="12pt" font-weight="400" font-style="normal"  > <text fill="#000000" fill-opacity="1" stroke="none" xml:space="preserve" x="6" y="18" font-family="Verdana" font-size="12pt" font-weight="400" font-style="normal"   >1</text> </g>                    <g fill="none" stroke="#000000" stroke-opacity="1" stroke-dasharray="4,2" stroke-dashoffset="0" stroke-width="1" stroke-linecap="butt" stroke-linejoin="bevel" transform="matrix(0,1,-1,0,89.9898,182)" font-family=".SF NS Text" font-size="13pt" font-weight="400" font-style="normal"  > <polyline fill="none" vector-effect="non-scaling-stroke" points="0,10 45,10 " /> </g>          <g fill="#ffefd5" fill-opacity="1" stroke="#ffefd5" stroke-opacity="1" stroke-width="1" stroke-linecap="square" stroke-linejoin="bevel" transform="matrix(1,0,0,1,69.4898,226.5)" font-family=".SF NS Text" font-size="13pt" font-weight="400" font-style="normal"  > <circle cx="10" cy="10" r="10"/> </g>  <g fill="#ffefd5" fill-opacity="1" stroke="#000000" stroke-opacity="1" stroke-width="1" stroke-linecap="square" stroke-linejoin="bevel" transform="matrix(1,0,0,1,69.4898,226.5)" font-family="Verdana" font-size="12pt" font-weight="400" font-style="normal"  > <text fill="#000000" fill-opacity="1" stroke="none" xml:space="preserve" x="6" y="18" font-family="Verdana" font-size="12pt" font-weight="400" font-style="normal"   >1</text> </g>                    <g fill="none" stroke="#000000" stroke-opacity="1" stroke-dasharray="4,2" stroke-dashoffset="0" stroke-width="1" stroke-linecap="butt" stroke-linejoin="bevel" transform="matrix(0,1,-1,0,69.9898,182)" font-family=".SF NS Text" font-size="13pt" font-weight="400" font-style="normal"  > <polyline fill="none" vector-effect="non-scaling-stroke" points="0,10 45,10 " /> </g>          <g fill="#e0ffff" fill-opacity="1" stroke="#e0ffff" stroke-opacity="1" stroke-width="1" stroke-linecap="square" stroke-linejoin="bevel" transform="matrix(1,0,0,1,49.4898,226.5)" font-family=".SF NS Text" font-size="13pt" font-weight="400" font-style="normal"  > <circle cx="10" cy="10" r="10"/> </g>  <g fill="#e0ffff" fill-opacity="1" stroke="#000000" stroke-opacity="1" stroke-width="1" stroke-linecap="square" stroke-linejoin="bevel" transform="matrix(1,0,0,1,49.4898,226.5)" font-family="Verdana" font-size="12pt" font-weight="400" font-style="normal"  > <text fill="#000000" fill-opacity="1" stroke="none" xml:space="preserve" x="6" y="18" font-family="Verdana" font-size="12pt" font-weight="400" font-style="normal"   >1</text> </g>                    <g fill="none" stroke="#000000" stroke-opacity="1" stroke-width="1" stroke-linecap="butt" stroke-linejoin="bevel" transform="matrix(0,1,-1,0,49.9898,7)" font-family=".SF NS Text" font-size="13pt" font-weight="400" font-style="normal"  > <polyline fill="none" vector-effect="none" points="0,24.4949 45,24.4949 " /> </g>          <g fill="#f0ffff" fill-opacity="1" stroke="#f0ffff" stroke-opacity="1" stroke-width="1" stroke-linecap="square" stroke-linejoin="bevel" transform="matrix(1,0,0,1,0.5,51.5)" font-family=".SF NS Text" font-size="13pt" font-weight="400" font-style="normal"  > <circle cx="24.4949" cy="24.4949" r="24.4949"/> </g>  <g fill="#f0ffff" fill-opacity="1" stroke="#000000" stroke-opacity="1" stroke-width="1" stroke-linecap="square" stroke-linejoin="bevel" transform="matrix(1,0,0,1,0.5,51.5)" font-family="Verdana" font-size="12pt" font-weight="400" font-style="normal"  > <text fill="#000000" fill-opacity="1" stroke="none" xml:space="preserve" x="20" y="32" font-family="Verdana" font-size="12pt" font-weight="400" font-style="normal"   >6</text> </g>                                     </g> </svg> 