<?xml version="1.0" encoding="UTF-8" standalone="no"?> <svg width="35.9833mm" height="78.3167mm"  viewBox="0 0 102 222"  xmlns="http://www.w3.org/2000/svg" xmlns:xlink="http://www.w3.org/1999/xlink"  version="1.2" baseProfile="tiny"> <title>Generated with ETE http://etetoolkit.org</title> <desc>Generated with ETE http://etetoolkit.org</desc> <defs> </defs> <g fill="none" stroke="black" stroke-width="1" fill-rule="evenodd" stroke-linecap="square" stroke-linejoin="bevel" >      <g fill="none" stroke="none" transform="matrix(1,0,0,1,-59,0)" font-family="Sans Serif" font-size="9pt" font-weight="400" font-style="normal"  > <rect x="59" y="0" width="102" height="222"/> </g>      <g fill="none" stroke="none" transform="matrix(0,1,-1,0,101,1)" font-family="Sans Serif" font-size="9pt" font-weight="400" font-style="normal"  > <rect x="0" y="0" width="220" height="100"/> </g>                                                                          <g fill="none" stroke="#000000" stroke-opacity="1" stroke-width="1" stroke-linecap="butt" stroke-linejoin="bevel" transform="matrix(0,1,-1,0,101,1)" font-family="Sans Serif" font-size="9pt" font-weight="400" font-style="normal"  > <polyline fill="none" vector-effect="non-scaling-stroke" points="10,20 10,65 " /> </g>                  <g fill="#808080" fill-opacity="1" stroke="#808080" stroke-opacity="1" stroke-width="1" stroke-linecap="square" stroke-linejoin="bevel" transform="matrix(0,1,-1,0,63.5,1)" font-family="Sans Serif" font-size="9pt" font-weight="400" font-style="normal"  > <circle cx="5" cy="5" r="5"/> </g>                  <g fill="none" stroke="#000000" stroke-opacity="1" stroke-width="1" stroke-linecap="butt" stroke-linejoin="bevel" transform="matrix(0,1,-1,0,101,11)" font-family="Sans Serif" font-size="9pt" font-weight="400" font-style="normal"  > <polyline fill="none" vector-effect="non-scaling-stroke" points="70,10 70,30 " /> </g>            <g fill="none" stroke="#000000" stroke-opacity="1" stroke-width="1" stroke-linecap="butt" stroke-linejoin="bevel" transform="matrix(0,1,-1,0,101,11)" font-family="Sans Serif" font-size="9pt" font-weight="400" font-style="normal"  > <polyline fill="none" vector-effect="non-scaling-stroke" points="0,20 60,20 " /> </g>      <g fill="#ffff00" fill-opacity="1" stroke="#ffff00" stroke-opacity="1" stroke-width="1" stroke-linecap="square" stroke-linejoin="bevel" transform="matrix(0,1,-1,0,86,71)" font-family="Sans Serif" font-size="9pt" font-weight="400" font-style="normal"  > <circle cx="5" cy="5" r="5"/> </g>                  <g fill="none" stroke="#000000" stroke-opacity="1" stroke-width="1" stroke-linecap="butt" stroke-linejoin="bevel" transform="matrix(0,1,-1,0,101,81)" font-family="Sans Serif" font-size="9pt" font-weight="400" font-style="normal"  > <polyline fill="none" vector-effect="non-scaling-stroke" points="70,5 70,15 " /> </g>            <g fill="none" stroke="#000000" stroke-opacity="1" stroke-width="1" stroke-linecap="butt" stroke-linejoin="bevel" transform="matrix(0,1,-1,0,101,81)" font-family="Sans Serif" font-size="9pt" font-weight="400" font-style="normal"  > <polyline fill="none" vector-effect="non-scaling-stroke" points="0,10 60,10 " /> </g>      <g fill="#fafad2" fill-opacity="1" stroke="#fafad2" stroke-opacity="1" stroke-width="1" stroke-linecap="square" stroke-linejoin="bevel" transform="matrix(0,1,-1,0,96,141)" font-family="Sans Serif" font-size="9pt" font-weight="400" font-style="normal"  > <circle cx="5" cy="5" r="5"/> </g>                              <g fill="#fafad2" fill-opacity="1" stroke="#fafad2" stroke-opacity="1" stroke-width="1" stroke-linecap="square" stroke-linejoin="bevel" transform="matrix(0,1,-1,0,101,151)" font-family="Sans Serif" font-size="9pt" font-weight="400" font-style="normal"  > <circle cx="5" cy="5" r="5"/> </g>                              <g fill="#fafad2" fill-opacity="1" stroke="#fafad2" stroke-opacity="1" stroke-width="1" stroke-linecap="square" stroke-linejoin="bevel" transform="matrix(0,1,-1,0,91,151)" font-family="Sans Serif" font-size="9pt" font-weight="400" font-style="normal"  > <circle cx="5" cy="5" r="5"/> </g>                  <g fill="none" stroke="#000000" stroke-opacity="1" stroke-width="1" stroke-linecap="butt" stroke-linejoin="bevel" transform="matrix(0,1,-1,0,81,81)" font-family="Sans Serif" font-size="9pt" font-weight="400" font-style="normal"  > <polyline fill="none" vector-effect="non-scaling-stroke" points="70,5 70,15 " /> </g>            <g fill="none" stroke="#000000" stroke-opacity="1" stroke-width="1" stroke-linecap="butt" stroke-linejoin="bevel" transform="matrix(0,1,-1,0,81,81)" font-family="Sans Serif" font-size="9pt" font-weight="400" font-style="normal"  > <polyline fill="none" vector-effect="non-scaling-stroke" points="0,10 60,10 " /> </g>      <g fill="#ff69b4" fill-opacity="1" stroke="#ff69b4" stroke-opacity="1" stroke-width="1" stroke-linecap="square" stroke-linejoin="bevel" transform="matrix(0,1,-1,0,76,141)" font-family="Sans Serif" font-size="9pt" font-weight="400" font-style="normal"  > <circle cx="5" cy="5" r="5"/> </g>                        <g fill="none" stroke="#000000" stroke-opacity="1" stroke-width="1" stroke-linecap="butt" stroke-linejoin="bevel" transform="matrix(0,1,-1,0,81,151)" font-family="Sans Serif" font-size="9pt" font-weight="400" font-style="normal"  > <polyline fill="none" vector-effect="non-scaling-stroke" points="0,5 60,5 " /> </g>      <g fill="#d3d3d3" fill-opacity="1" stroke="#d3d3d3" stroke-opacity="1" stroke-width="1" stroke-linecap="square" stroke-linejoin="bevel" transform="matrix(0,1,-1,0,81,211)" font-family="Sans Serif" font-size="9pt" font-weight="400" font-style="normal"  > <circle cx="5" cy="5" r="5"/> </g>                              <g fill="#ff69b4" fill-opacity="1" stroke="#ff69b4" stroke-opacity="1" stroke-width="1" stroke-linecap="square" stroke-linejoin="bevel" transform="matrix(0,1,-1,0,71,151)" font-family="Sans Serif" font-size="9pt" font-weight="400" font-style="normal"  > <circle cx="5" cy="5" r="5"/> </g>                  <g fill="none" stroke="#000000" stroke-opacity="1" stroke-width="1" stroke-linecap="butt" stroke-linejoin="bevel" transform="matrix(0,1,-1,0,61,11)" font-family="Sans Serif" font-size="9pt" font-weight="400" font-style="normal"  > <polyline fill="none" vector-effect="non-scaling-stroke" points="10,5 10,45 " /> </g>                  <g fill="#808080" fill-opacity="1" stroke="#808080" stroke-opacity="1" stroke-width="1" stroke-linecap="square" stroke-linejoin="bevel" transform="matrix(0,1,-1,0,41,11)" font-family="Sans Serif" font-size="9pt" font-weight="400" font-style="normal"  > <circle cx="5" cy="5" r="5"/> </g>                        <g fill="none" stroke="#000000" stroke-opacity="1" stroke-width="1" stroke-linecap="butt" stroke-linejoin="bevel" transform="matrix(0,1,-1,0,61,21)" font-family="Sans Serif" font-size="9pt" font-weight="400" font-style="normal"  > <polyline fill="none" vector-effect="non-scaling-stroke" points="0,5 60,5 " /> </g>      <g fill="#8b008b" fill-opacity="1" stroke="#8b008b" stroke-opacity="1" stroke-width="1" stroke-linecap="square" stroke-linejoin="bevel" transform="matrix(0,1,-1,0,61,81)" font-family="Sans Serif" font-size="9pt" font-weight="400" font-style="normal"  > <circle cx="5" cy="5" r="5"/> </g>                  <g fill="none" stroke="#000000" stroke-opacity="1" stroke-width="1" stroke-linecap="butt" stroke-linejoin="bevel" transform="matrix(0,1,-1,0,51,21)" font-family="Sans Serif" font-size="9pt" font-weight="400" font-style="normal"  > <polyline fill="none" vector-effect="non-scaling-stroke" points="10,5 10,15 " /> </g>                  <g fill="#808080" fill-opacity="1" stroke="#808080" stroke-opacity="1" stroke-width="1" stroke-linecap="square" stroke-linejoin="bevel" transform="matrix(0,1,-1,0,46,21)" font-family="Sans Serif" font-size="9pt" font-weight="400" font-style="normal"  > <circle cx="5" cy="5" r="5"/> </g>                        <g fill="none" stroke="#000000" stroke-opacity="1" stroke-width="1" stroke-linecap="butt" stroke-linejoin="bevel" transform="matrix(0,1,-1,0,51,31)" font-family="Sans Serif" font-size="9pt" font-weight="400" font-style="normal"  > <polyline fill="none" vector-effect="non-scaling-stroke" points="0,5 60,5 " /> </g>      <g fill="#adff2f" fill-opacity="1" stroke="#adff2f" stroke-opacity="1" stroke-width="1" stroke-linecap="square" stroke-linejoin="bevel" transform="matrix(0,1,-1,0,51,91)" font-family="Sans Serif" font-size="9pt" font-weight="400" font-style="normal"  > <circle cx="5" cy="5" r="5"/> </g>                        <g fill="none" stroke="#000000" stroke-opacity="1" stroke-width="1" stroke-linecap="butt" stroke-linejoin="bevel" transform="matrix(0,1,-1,0,41,31)" font-family="Sans Serif" font-size="9pt" font-weight="400" font-style="normal"  > <polyline fill="none" vector-effect="non-scaling-stroke" points="0,5 60,5 " /> </g>      <g fill="#b8860b" fill-opacity="1" stroke="#b8860b" stroke-opacity="1" stroke-width="1" stroke-linecap="square" stroke-linejoin="bevel" transform="matrix(0,1,-1,0,41,91)" font-family="Sans Serif" font-size="9pt" font-weight="400" font-style="normal"  > <circle cx="5" cy="5" r="5"/> </g>                  <g fill="none" stroke="#000000" stroke-opacity="1" stroke-width="1" stroke-linecap="butt" stroke-linejoin="bevel" transform="matrix(0,1,-1,0,31,21)" font-family="Sans Serif" font-size="9pt" font-weight="400" font-style="normal"  > <polyline fill="none" vector-effect="non-scaling-stroke" points="10,5 10,25 " /> </g>                  <g fill="#808080" fill-opacity="1" stroke="#808080" stroke-opacity="1" stroke-width="1" stroke-linecap="square" stroke-linejoin="bevel" transform="matrix(0,1,-1,0,21,21)" font-family="Sans Serif" font-size="9pt" font-weight="400" font-style="normal"  > <circle cx="5" cy="5" r="5"/> </g>                              <g fill="#808080" fill-opacity="1" stroke="#808080" stroke-opacity="1" stroke-width="1" stroke-linecap="square" stroke-linejoin="bevel" transform="matrix(0,1,-1,0,31,31)" font-family="Sans Serif" font-size="9pt" font-weight="400" font-style="normal"  > <circle cx="5" cy="5" r="5"/> </g>                        <g fill="none" stroke="#000000" stroke-opacity="1" stroke-width="1" stroke-linecap="butt" stroke-linejoin="bevel" transform="matrix(0,1,-1,0,21,31)" font-family="Sans Serif" font-size="9pt" font-weight="400" font-style="normal"  > <polyline fill="none" vector-effect="non-scaling-stroke" points="0,5 60,5 " /> </g>      <g fill="#ffe4b5" fill-opacity="1" stroke="#ffe4b5" stroke-opacity="1" stroke-width="1" stroke-linecap="square" stroke-linejoin="bevel" transform="matrix(0,1,-1,0,21,91)" font-family="Sans Serif" font-size="9pt" font-weight="400" font-style="normal"  > <circle cx="5" cy="5" r="5"/> </g>                              <g fill="#808080" fill-opacity="1" stroke="#808080" stroke-opacity="1" stroke-width="1" stroke-linecap="square" stroke-linejoin="bevel" transform="matrix(0,1,-1,0,11,31)" font-family="Sans Serif" font-size="9pt" font-weight="400" font-style="normal"  > <circle cx="5" cy="5" r="5"/> </g>                                                                                     </g> </svg> 