<?xml version="1.0" encoding="UTF-8" standalone="no"?> <svg width="177.094mm" height="92.4278mm"  viewBox="0 0 502 262"  xmlns="http://www.w3.org/2000/svg" xmlns:xlink="http://www.w3.org/1999/xlink"  version="1.2" baseProfile="tiny"> <title>Generated with ETE http://etetoolkit.org</title> <desc>Generated with ETE http://etetoolkit.org</desc> <defs> </defs> <g fill="none" stroke="black" stroke-width="1" fill-rule="evenodd" stroke-linecap="square" stroke-linejoin="bevel" >      <g fill="none" stroke="none" transform="matrix(1,0,0,1,0,-119)" font-family=".SF NS Text" font-size="13pt" font-weight="400" font-style="normal"  > <rect x="0" y="119" width="502" height="262"/> </g>      <g fill="none" stroke="none" transform="matrix(0,1,-1,0,501,1)" font-family=".SF NS Text" font-size="13pt" font-weight="400" font-style="normal"  > <rect x="0" y="0" width="260" height="500"/> </g>                                                                                                                                                                                                                                                                                                                                              <g fill="none" stroke="#000000" stroke-opacity="1" stroke-width="1" stroke-linecap="butt" stroke-linejoin="bevel" transform="matrix(0,1,-1,0,501,1)" font-family=".SF NS Text" font-size="13pt" font-weight="400" font-style="normal"  > <polyline fill="none" vector-effect="non-scaling-stroke" points="10,39.375 10,238.906 " /> </g>                  <g fill="#808080" fill-opacity="1" stroke="#808080" stroke-opacity="1" stroke-width="1" stroke-linecap="square" stroke-linejoin="bevel" transform="matrix(0,1,-1,0,366.859,1)" font-family=".SF NS Text" font-size="13pt" font-weight="400" font-style="normal"  > <circle cx="5" cy="5" r="5"/> </g>                  <g fill="none" stroke="#000000" stroke-opacity="1" stroke-width="1" stroke-linecap="butt" stroke-linejoin="bevel" transform="matrix(0,1,-1,0,501,11)" font-family=".SF NS Text" font-size="13pt" font-weight="400" font-style="normal"  > <polyline fill="none" vector-effect="non-scaling-stroke" points="10,15 10,63.75 " /> </g>                  <g fill="#808080" fill-opacity="1" stroke="#808080" stroke-opacity="1" stroke-width="1" stroke-linecap="square" stroke-linejoin="bevel" transform="matrix(0,1,-1,0,466.625,11)" font-family=".SF NS Text" font-size="13pt" font-weight="400" font-style="normal"  > <circle cx="5" cy="5" r="5"/> </g>                  <g fill="none" stroke="#000000" stroke-opacity="1" stroke-width="1" stroke-linecap="butt" stroke-linejoin="bevel" transform="matrix(0,1,-1,0,501,21)" font-family=".SF NS Text" font-size="13pt" font-weight="400" font-style="normal"  > <polyline fill="none" vector-effect="non-scaling-stroke" points="55,5 55,25 " /> </g>            <g fill="none" stroke="#000000" stroke-opacity="1" stroke-width="1" stroke-linecap="butt" stroke-linejoin="bevel" transform="matrix(0,1,-1,0,501,21)" font-family=".SF NS Text" font-size="13pt" font-weight="400" font-style="normal"  > <polyline fill="none" vector-effect="non-scaling-stroke" points="0,15 45,15 " /> </g>      <g fill="#fffacd" fill-opacity="1" stroke="#fffacd" stroke-opacity="1" stroke-width="1" stroke-linecap="square" stroke-linejoin="bevel" transform="matrix(0,1,-1,0,491,66)" font-family=".SF NS Text" font-size="13pt" font-weight="400" font-style="normal"  > <circle cx="5" cy="5" r="5"/> </g>                        <g fill="none" stroke="#000000" stroke-opacity="1" stroke-width="1" stroke-linecap="butt" stroke-linejoin="bevel" transform="matrix(0,1,-1,0,501,76)" font-family=".SF NS Text" font-size="13pt" font-weight="400" font-style="normal"  > <polyline fill="none" vector-effect="non-scaling-stroke" points="0,5 90,5 " /> </g>      <g fill="#ff00ff" fill-opacity="1" stroke="#ff00ff" stroke-opacity="1" stroke-width="1" stroke-linecap="square" stroke-linejoin="bevel" transform="matrix(0,1,-1,0,501,166)" font-family=".SF NS Text" font-size="13pt" font-weight="400" font-style="normal"  > <circle cx="5" cy="5" r="5"/> </g>                  <g fill="none" stroke="#000000" stroke-opacity="1" stroke-width="1" stroke-linecap="butt" stroke-linejoin="bevel" transform="matrix(0,1,-1,0,491,76)" font-family=".SF NS Text" font-size="13pt" font-weight="400" font-style="normal"  > <polyline fill="none" vector-effect="non-scaling-stroke" points="55,5 55,25 " /> </g>            <g fill="none" stroke="#000000" stroke-opacity="1" stroke-width="1" stroke-linecap="butt" stroke-linejoin="bevel" transform="matrix(0,1,-1,0,491,76)" font-family=".SF NS Text" font-size="13pt" font-weight="400" font-style="normal"  > <polyline fill="none" vector-effect="non-scaling-stroke" points="0,15 45,15 " /> </g>      <g fill="#556b2f" fill-opacity="1" stroke="#556b2f" stroke-opacity="1" stroke-width="1" stroke-linecap="square" stroke-linejoin="bevel" transform="matrix(0,1,-1,0,481,121)" font-family=".SF NS Text" font-size="13pt" font-weight="400" font-style="normal"  > <circle cx="5" cy="5" r="5"/> </g>                        <g fill="none" stroke="#000000" stroke-opacity="1" stroke-width="1" stroke-linecap="butt" stroke-linejoin="bevel" transform="matrix(0,1,-1,0,491,131)" font-family=".SF NS Text" font-size="13pt" font-weight="400" font-style="normal"  > <polyline fill="none" vector-effect="non-scaling-stroke" points="0,5 45,5 " /> </g>      <g fill="#ffa07a" fill-opacity="1" stroke="#ffa07a" stroke-opacity="1" stroke-width="1" stroke-linecap="square" stroke-linejoin="bevel" transform="matrix(0,1,-1,0,491,176)" font-family=".SF NS Text" font-size="13pt" font-weight="400" font-style="normal"  > <circle cx="5" cy="5" r="5"/> </g>                        <g fill="none" stroke="#000000" stroke-opacity="1" stroke-width="1" stroke-linecap="butt" stroke-linejoin="bevel" transform="matrix(0,1,-1,0,481,131)" font-family=".SF NS Text" font-size="13pt" font-weight="400" font-style="normal"  > <polyline fill="none" vector-effect="non-scaling-stroke" points="0,5 45,5 " /> </g>      <g fill="#7fff00" fill-opacity="1" stroke="#7fff00" stroke-opacity="1" stroke-width="1" stroke-linecap="square" stroke-linejoin="bevel" transform="matrix(0,1,-1,0,481,176)" font-family=".SF NS Text" font-size="13pt" font-weight="400" font-style="normal"  > <circle cx="5" cy="5" r="5"/> </g>                              <g fill="#556b2f" fill-opacity="1" stroke="#556b2f" stroke-opacity="1" stroke-width="1" stroke-linecap="square" stroke-linejoin="bevel" transform="matrix(0,1,-1,0,471,131)" font-family=".SF NS Text" font-size="13pt" font-weight="400" font-style="normal"  > <circle cx="5" cy="5" r="5"/> </g>                  <g fill="none" stroke="#000000" stroke-opacity="1" stroke-width="1" stroke-linecap="butt" stroke-linejoin="bevel" transform="matrix(0,1,-1,0,461,21)" font-family=".SF NS Text" font-size="13pt" font-weight="400" font-style="normal"  > <polyline fill="none" vector-effect="non-scaling-stroke" points="55,5 55,42.5 " /> </g>            <g fill="none" stroke="#000000" stroke-opacity="1" stroke-width="1" stroke-linecap="butt" stroke-linejoin="bevel" transform="matrix(0,1,-1,0,461,21)" font-family=".SF NS Text" font-size="13pt" font-weight="400" font-style="normal"  > <polyline fill="none" vector-effect="non-scaling-stroke" points="0,23.75 45,23.75 " /> </g>      <g fill="#b8860b" fill-opacity="1" stroke="#b8860b" stroke-opacity="1" stroke-width="1" stroke-linecap="square" stroke-linejoin="bevel" transform="matrix(0,1,-1,0,442.25,66)" font-family=".SF NS Text" font-size="13pt" font-weight="400" font-style="normal"  > <circle cx="5" cy="5" r="5"/> </g>                              <g fill="#b8860b" fill-opacity="1" stroke="#b8860b" stroke-opacity="1" stroke-width="1" stroke-linecap="square" stroke-linejoin="bevel" transform="matrix(0,1,-1,0,461,76)" font-family=".SF NS Text" font-size="13pt" font-weight="400" font-style="normal"  > <circle cx="5" cy="5" r="5"/> </g>                  <g fill="none" stroke="#000000" stroke-opacity="1" stroke-width="1" stroke-linecap="butt" stroke-linejoin="bevel" transform="matrix(0,1,-1,0,451,76)" font-family=".SF NS Text" font-size="13pt" font-weight="400" font-style="normal"  > <polyline fill="none" vector-effect="non-scaling-stroke" points="10,5 10,15 " /> </g>                  <g fill="#b8860b" fill-opacity="1" stroke="#b8860b" stroke-opacity="1" stroke-width="1" stroke-linecap="square" stroke-linejoin="bevel" transform="matrix(0,1,-1,0,446,76)" font-family=".SF NS Text" font-size="13pt" font-weight="400" font-style="normal"  > <circle cx="5" cy="5" r="5"/> </g>                              <g fill="#b8860b" fill-opacity="1" stroke="#b8860b" stroke-opacity="1" stroke-width="1" stroke-linecap="square" stroke-linejoin="bevel" transform="matrix(0,1,-1,0,451,86)" font-family=".SF NS Text" font-size="13pt" font-weight="400" font-style="normal"  > <circle cx="5" cy="5" r="5"/> </g>                        <g fill="none" stroke="#000000" stroke-opacity="1" stroke-width="1" stroke-linecap="butt" stroke-linejoin="bevel" transform="matrix(0,1,-1,0,441,86)" font-family=".SF NS Text" font-size="13pt" font-weight="400" font-style="normal"  > <polyline fill="none" vector-effect="non-scaling-stroke" points="0,5 45,5 " /> </g>      <g fill="#008080" fill-opacity="1" stroke="#008080" stroke-opacity="1" stroke-width="1" stroke-linecap="square" stroke-linejoin="bevel" transform="matrix(0,1,-1,0,441,131)" font-family=".SF NS Text" font-size="13pt" font-weight="400" font-style="normal"  > <circle cx="5" cy="5" r="5"/> </g>                  <g fill="none" stroke="#000000" stroke-opacity="1" stroke-width="1" stroke-linecap="butt" stroke-linejoin="bevel" transform="matrix(0,1,-1,0,431,76)" font-family=".SF NS Text" font-size="13pt" font-weight="400" font-style="normal"  > <polyline fill="none" vector-effect="non-scaling-stroke" points="55,5 55,20 " /> </g>            <g fill="none" stroke="#000000" stroke-opacity="1" stroke-width="1" stroke-linecap="butt" stroke-linejoin="bevel" transform="matrix(0,1,-1,0,431,76)" font-family=".SF NS Text" font-size="13pt" font-weight="400" font-style="normal"  > <polyline fill="none" vector-effect="non-scaling-stroke" points="0,12.5 45,12.5 " /> </g>      <g fill="#ffffe0" fill-opacity="1" stroke="#ffffe0" stroke-opacity="1" stroke-width="1" stroke-linecap="square" stroke-linejoin="bevel" transform="matrix(0,1,-1,0,423.5,121)" font-family=".SF NS Text" font-size="13pt" font-weight="400" font-style="normal"  > <circle cx="5" cy="5" r="5"/> </g>                              <g fill="#ffffe0" fill-opacity="1" stroke="#ffffe0" stroke-opacity="1" stroke-width="1" stroke-linecap="square" stroke-linejoin="bevel" transform="matrix(0,1,-1,0,431,131)" font-family=".SF NS Text" font-size="13pt" font-weight="400" font-style="normal"  > <circle cx="5" cy="5" r="5"/> </g>                  <g fill="none" stroke="#000000" stroke-opacity="1" stroke-width="1" stroke-linecap="butt" stroke-linejoin="bevel" transform="matrix(0,1,-1,0,421,131)" font-family=".SF NS Text" font-size="13pt" font-weight="400" font-style="normal"  > <polyline fill="none" vector-effect="non-scaling-stroke" points="10,5 10,15 " /> </g>                  <g fill="#ffffe0" fill-opacity="1" stroke="#ffffe0" stroke-opacity="1" stroke-width="1" stroke-linecap="square" stroke-linejoin="bevel" transform="matrix(0,1,-1,0,416,131)" font-family=".SF NS Text" font-size="13pt" font-weight="400" font-style="normal"  > <circle cx="5" cy="5" r="5"/> </g>                              <g fill="#ffffe0" fill-opacity="1" stroke="#ffffe0" stroke-opacity="1" stroke-width="1" stroke-linecap="square" stroke-linejoin="bevel" transform="matrix(0,1,-1,0,421,141)" font-family=".SF NS Text" font-size="13pt" font-weight="400" font-style="normal"  > <circle cx="5" cy="5" r="5"/> </g>                        <g fill="none" stroke="#000000" stroke-opacity="1" stroke-width="1" stroke-linecap="butt" stroke-linejoin="bevel" transform="matrix(0,1,-1,0,411,141)" font-family=".SF NS Text" font-size="13pt" font-weight="400" font-style="normal"  > <polyline fill="none" vector-effect="non-scaling-stroke" points="0,5 45,5 " /> </g>      <g fill="#00bfff" fill-opacity="1" stroke="#00bfff" stroke-opacity="1" stroke-width="1" stroke-linecap="square" stroke-linejoin="bevel" transform="matrix(0,1,-1,0,411,186)" font-family=".SF NS Text" font-size="13pt" font-weight="400" font-style="normal"  > <circle cx="5" cy="5" r="5"/> </g>                  <g fill="none" stroke="#000000" stroke-opacity="1" stroke-width="1" stroke-linecap="butt" stroke-linejoin="bevel" transform="matrix(0,1,-1,0,401,11)" font-family=".SF NS Text" font-size="13pt" font-weight="400" font-style="normal"  > <polyline fill="none" vector-effect="non-scaling-stroke" points="10,12.5 10,265.313 " /> </g>                  <g fill="#808080" fill-opacity="1" stroke="#808080" stroke-opacity="1" stroke-width="1" stroke-linecap="square" stroke-linejoin="bevel" transform="matrix(0,1,-1,0,267.094,11)" font-family=".SF NS Text" font-size="13pt" font-weight="400" font-style="normal"  > <circle cx="5" cy="5" r="5"/> </g>                  <g fill="none" stroke="#000000" stroke-opacity="1" stroke-width="1" stroke-linecap="butt" stroke-linejoin="bevel" transform="matrix(0,1,-1,0,401,21)" font-family=".SF NS Text" font-size="13pt" font-weight="400" font-style="normal"  > <polyline fill="none" vector-effect="non-scaling-stroke" points="55,5 55,20 " /> </g>            <g fill="none" stroke="#000000" stroke-opacity="1" stroke-width="1" stroke-linecap="butt" stroke-linejoin="bevel" transform="matrix(0,1,-1,0,401,21)" font-family=".SF NS Text" font-size="13pt" font-weight="400" font-style="normal"  > <polyline fill="none" vector-effect="non-scaling-stroke" points="0,12.5 45,12.5 " /> </g>      <g fill="#ff0000" fill-opacity="1" stroke="#ff0000" stroke-opacity="1" stroke-width="1" stroke-linecap="square" stroke-linejoin="bevel" transform="matrix(0,1,-1,0,393.5,66)" font-family=".SF NS Text" font-size="13pt" font-weight="400" font-style="normal"  > <circle cx="5" cy="5" r="5"/> </g>                        <g fill="none" stroke="#000000" stroke-opacity="1" stroke-width="1" stroke-linecap="butt" stroke-linejoin="bevel" transform="matrix(0,1,-1,0,401,76)" font-family=".SF NS Text" font-size="13pt" font-weight="400" font-style="normal"  > <polyline fill="none" vector-effect="non-scaling-stroke" points="0,5 45,5 " /> </g>      <g fill="#ee82ee" fill-opacity="1" stroke="#ee82ee" stroke-opacity="1" stroke-width="1" stroke-linecap="square" stroke-linejoin="bevel" transform="matrix(0,1,-1,0,401,121)" font-family=".SF NS Text" font-size="13pt" font-weight="400" font-style="normal"  > <circle cx="5" cy="5" r="5"/> </g>                  <g fill="none" stroke="#000000" stroke-opacity="1" stroke-width="1" stroke-linecap="butt" stroke-linejoin="bevel" transform="matrix(0,1,-1,0,391,76)" font-family=".SF NS Text" font-size="13pt" font-weight="400" font-style="normal"  > <polyline fill="none" vector-effect="non-scaling-stroke" points="55,5 55,15 " /> </g>            <g fill="none" stroke="#000000" stroke-opacity="1" stroke-width="1" stroke-linecap="butt" stroke-linejoin="bevel" transform="matrix(0,1,-1,0,391,76)" font-family=".SF NS Text" font-size="13pt" font-weight="400" font-style="normal"  > <polyline fill="none" vector-effect="non-scaling-stroke" points="0,10 45,10 " /> </g>      <g fill="#b0e0e6" fill-opacity="1" stroke="#b0e0e6" stroke-opacity="1" stroke-width="1" stroke-linecap="square" stroke-linejoin="bevel" transform="matrix(0,1,-1,0,386,121)" font-family=".SF NS Text" font-size="13pt" font-weight="400" font-style="normal"  > <circle cx="5" cy="5" r="5"/> </g>                        <g fill="none" stroke="#000000" stroke-opacity="1" stroke-width="1" stroke-linecap="butt" stroke-linejoin="bevel" transform="matrix(0,1,-1,0,391,131)" font-family=".SF NS Text" font-size="13pt" font-weight="400" font-style="normal"  > <polyline fill="none" vector-effect="non-scaling-stroke" points="0,5 45,5 " /> </g>      <g fill="#cd853f" fill-opacity="1" stroke="#cd853f" stroke-opacity="1" stroke-width="1" stroke-linecap="square" stroke-linejoin="bevel" transform="matrix(0,1,-1,0,391,176)" font-family=".SF NS Text" font-size="13pt" font-weight="400" font-style="normal"  > <circle cx="5" cy="5" r="5"/> </g>                        <g fill="none" stroke="#000000" stroke-opacity="1" stroke-width="1" stroke-linecap="butt" stroke-linejoin="bevel" transform="matrix(0,1,-1,0,381,131)" font-family=".SF NS Text" font-size="13pt" font-weight="400" font-style="normal"  > <polyline fill="none" vector-effect="non-scaling-stroke" points="0,5 45,5 " /> </g>      <g fill="#f4a460" fill-opacity="1" stroke="#f4a460" stroke-opacity="1" stroke-width="1" stroke-linecap="square" stroke-linejoin="bevel" transform="matrix(0,1,-1,0,381,176)" font-family=".SF NS Text" font-size="13pt" font-weight="400" font-style="normal"  > <circle cx="5" cy="5" r="5"/> </g>                  <g fill="none" stroke="#000000" stroke-opacity="1" stroke-width="1" stroke-linecap="butt" stroke-linejoin="bevel" transform="matrix(0,1,-1,0,371,21)" font-family=".SF NS Text" font-size="13pt" font-weight="400" font-style="normal"  > <polyline fill="none" vector-effect="non-scaling-stroke" points="10,10 10,45 " /> </g>                  <g fill="#808080" fill-opacity="1" stroke="#808080" stroke-opacity="1" stroke-width="1" stroke-linecap="square" stroke-linejoin="bevel" transform="matrix(0,1,-1,0,348.5,21)" font-family=".SF NS Text" font-size="13pt" font-weight="400" font-style="normal"  > <circle cx="5" cy="5" r="5"/> </g>                  <g fill="none" stroke="#000000" stroke-opacity="1" stroke-width="1" stroke-linecap="butt" stroke-linejoin="bevel" transform="matrix(0,1,-1,0,371,31)" font-family=".SF NS Text" font-size="13pt" font-weight="400" font-style="normal"  > <polyline fill="none" vector-effect="non-scaling-stroke" points="55,5 55,15 " /> </g>            <g fill="none" stroke="#000000" stroke-opacity="1" stroke-width="1" stroke-linecap="butt" stroke-linejoin="bevel" transform="matrix(0,1,-1,0,371,31)" font-family=".SF NS Text" font-size="13pt" font-weight="400" font-style="normal"  > <polyline fill="none" vector-effect="non-scaling-stroke" points="0,10 45,10 " /> </g>      <g fill="#f0ffff" fill-opacity="1" stroke="#f0ffff" stroke-opacity="1" stroke-width="1" stroke-linecap="square" stroke-linejoin="bevel" transform="matrix(0,1,-1,0,366,76)" font-family=".SF NS Text" font-size="13pt" font-weight="400" font-style="normal"  > <circle cx="5" cy="5" r="5"/> </g>                              <g fill="#f0ffff" fill-opacity="1" stroke="#f0ffff" stroke-opacity="1" stroke-width="1" stroke-linecap="square" stroke-linejoin="bevel" transform="matrix(0,1,-1,0,371,86)" font-family=".SF NS Text" font-size="13pt" font-weight="400" font-style="normal"  > <circle cx="5" cy="5" r="5"/> </g>                              <g fill="#f0ffff" fill-opacity="1" stroke="#f0ffff" stroke-opacity="1" stroke-width="1" stroke-linecap="square" stroke-linejoin="bevel" transform="matrix(0,1,-1,0,361,86)" font-family=".SF NS Text" font-size="13pt" font-weight="400" font-style="normal"  > <circle cx="5" cy="5" r="5"/> </g>                  <g fill="none" stroke="#000000" stroke-opacity="1" stroke-width="1" stroke-linecap="butt" stroke-linejoin="bevel" transform="matrix(0,1,-1,0,351,31)" font-family=".SF NS Text" font-size="13pt" font-weight="400" font-style="normal"  > <polyline fill="none" vector-effect="non-scaling-stroke" points="55,5 55,45 " /> </g>            <g fill="none" stroke="#000000" stroke-opacity="1" stroke-width="1" stroke-linecap="butt" stroke-linejoin="bevel" transform="matrix(0,1,-1,0,351,31)" font-family=".SF NS Text" font-size="13pt" font-weight="400" font-style="normal"  > <polyline fill="none" vector-effect="non-scaling-stroke" points="0,25 45,25 " /> </g>      <g fill="#faf0e6" fill-opacity="1" stroke="#faf0e6" stroke-opacity="1" stroke-width="1" stroke-linecap="square" stroke-linejoin="bevel" transform="matrix(0,1,-1,0,331,76)" font-family=".SF NS Text" font-size="13pt" font-weight="400" font-style="normal"  > <circle cx="5" cy="5" r="5"/> </g>                              <g fill="#faf0e6" fill-opacity="1" stroke="#faf0e6" stroke-opacity="1" stroke-width="1" stroke-linecap="square" stroke-linejoin="bevel" transform="matrix(0,1,-1,0,351,86)" font-family=".SF NS Text" font-size="13pt" font-weight="400" font-style="normal"  > <circle cx="5" cy="5" r="5"/> </g>                              <g fill="#faf0e6" fill-opacity="1" stroke="#faf0e6" stroke-opacity="1" stroke-width="1" stroke-linecap="square" stroke-linejoin="bevel" transform="matrix(0,1,-1,0,341,86)" font-family=".SF NS Text" font-size="13pt" font-weight="400" font-style="normal"  > <circle cx="5" cy="5" r="5"/> </g>                        <g fill="none" stroke="#000000" stroke-opacity="1" stroke-width="1" stroke-linecap="butt" stroke-linejoin="bevel" transform="matrix(0,1,-1,0,331,86)" font-family=".SF NS Text" font-size="13pt" font-weight="400" font-style="normal"  > <polyline fill="none" vector-effect="non-scaling-stroke" points="0,5 45,5 " /> </g>      <g fill="#8b4513" fill-opacity="1" stroke="#8b4513" stroke-opacity="1" stroke-width="1" stroke-linecap="square" stroke-linejoin="bevel" transform="matrix(0,1,-1,0,331,131)" font-family=".SF NS Text" font-size="13pt" font-weight="400" font-style="normal"  > <circle cx="5" cy="5" r="5"/> </g>                              <g fill="#faf0e6" fill-opacity="1" stroke="#faf0e6" stroke-opacity="1" stroke-width="1" stroke-linecap="square" stroke-linejoin="bevel" transform="matrix(0,1,-1,0,321,86)" font-family=".SF NS Text" font-size="13pt" font-weight="400" font-style="normal"  > <circle cx="5" cy="5" r="5"/> </g>                              <g fill="#faf0e6" fill-opacity="1" stroke="#faf0e6" stroke-opacity="1" stroke-width="1" stroke-linecap="square" stroke-linejoin="bevel" transform="matrix(0,1,-1,0,311,86)" font-family=".SF NS Text" font-size="13pt" font-weight="400" font-style="normal"  > <circle cx="5" cy="5" r="5"/> </g>                  <g fill="none" stroke="#000000" stroke-opacity="1" stroke-width="1" stroke-linecap="butt" stroke-linejoin="bevel" transform="matrix(0,1,-1,0,301,21)" font-family=".SF NS Text" font-size="13pt" font-weight="400" font-style="normal"  > <polyline fill="none" vector-effect="non-scaling-stroke" points="55,5 55,60 " /> </g>            <g fill="none" stroke="#000000" stroke-opacity="1" stroke-width="1" stroke-linecap="butt" stroke-linejoin="bevel" transform="matrix(0,1,-1,0,301,21)" font-family=".SF NS Text" font-size="13pt" font-weight="400" font-style="normal"  > <polyline fill="none" vector-effect="non-scaling-stroke" points="0,32.5 45,32.5 " /> </g>      <g fill="#6a5acd" fill-opacity="1" stroke="#6a5acd" stroke-opacity="1" stroke-width="1" stroke-linecap="square" stroke-linejoin="bevel" transform="matrix(0,1,-1,0,273.5,66)" font-family=".SF NS Text" font-size="13pt" font-weight="400" font-style="normal"  > <circle cx="5" cy="5" r="5"/> </g>                              <g fill="#6a5acd" fill-opacity="1" stroke="#6a5acd" stroke-opacity="1" stroke-width="1" stroke-linecap="square" stroke-linejoin="bevel" transform="matrix(0,1,-1,0,301,76)" font-family=".SF NS Text" font-size="13pt" font-weight="400" font-style="normal"  > <circle cx="5" cy="5" r="5"/> </g>                              <g fill="#6a5acd" fill-opacity="1" stroke="#6a5acd" stroke-opacity="1" stroke-width="1" stroke-linecap="square" stroke-linejoin="bevel" transform="matrix(0,1,-1,0,291,76)" font-family=".SF NS Text" font-size="13pt" font-weight="400" font-style="normal"  > <circle cx="5" cy="5" r="5"/> </g>                  <g fill="none" stroke="#000000" stroke-opacity="1" stroke-width="1" stroke-linecap="butt" stroke-linejoin="bevel" transform="matrix(0,1,-1,0,281,76)" font-family=".SF NS Text" font-size="13pt" font-weight="400" font-style="normal"  > <polyline fill="none" vector-effect="non-scaling-stroke" points="10,5 10,15 " /> </g>                  <g fill="#6a5acd" fill-opacity="1" stroke="#6a5acd" stroke-opacity="1" stroke-width="1" stroke-linecap="square" stroke-linejoin="bevel" transform="matrix(0,1,-1,0,276,76)" font-family=".SF NS Text" font-size="13pt" font-weight="400" font-style="normal"  > <circle cx="5" cy="5" r="5"/> </g>                              <g fill="#6a5acd" fill-opacity="1" stroke="#6a5acd" stroke-opacity="1" stroke-width="1" stroke-linecap="square" stroke-linejoin="bevel" transform="matrix(0,1,-1,0,281,86)" font-family=".SF NS Text" font-size="13pt" font-weight="400" font-style="normal"  > <circle cx="5" cy="5" r="5"/> </g>                        <g fill="none" stroke="#000000" stroke-opacity="1" stroke-width="1" stroke-linecap="butt" stroke-linejoin="bevel" transform="matrix(0,1,-1,0,271,86)" font-family=".SF NS Text" font-size="13pt" font-weight="400" font-style="normal"  > <polyline fill="none" vector-effect="non-scaling-stroke" points="0,5 90,5 " /> </g>      <g fill="#008000" fill-opacity="1" stroke="#008000" stroke-opacity="1" stroke-width="1" stroke-linecap="square" stroke-linejoin="bevel" transform="matrix(0,1,-1,0,271,176)" font-family=".SF NS Text" font-size="13pt" font-weight="400" font-style="normal"  > <circle cx="5" cy="5" r="5"/> </g>                  <g fill="none" stroke="#000000" stroke-opacity="1" stroke-width="1" stroke-linecap="butt" stroke-linejoin="bevel" transform="matrix(0,1,-1,0,261,76)" font-family=".SF NS Text" font-size="13pt" font-weight="400" font-style="normal"  > <polyline fill="none" vector-effect="non-scaling-stroke" points="10,5 10,35 " /> </g>                  <g fill="#6a5acd" fill-opacity="1" stroke="#6a5acd" stroke-opacity="1" stroke-width="1" stroke-linecap="square" stroke-linejoin="bevel" transform="matrix(0,1,-1,0,246,76)" font-family=".SF NS Text" font-size="13pt" font-weight="400" font-style="normal"  > <circle cx="5" cy="5" r="5"/> </g>                              <g fill="#6a5acd" fill-opacity="1" stroke="#6a5acd" stroke-opacity="1" stroke-width="1" stroke-linecap="square" stroke-linejoin="bevel" transform="matrix(0,1,-1,0,261,86)" font-family=".SF NS Text" font-size="13pt" font-weight="400" font-style="normal"  > <circle cx="5" cy="5" r="5"/> </g>                              <g fill="#6a5acd" fill-opacity="1" stroke="#6a5acd" stroke-opacity="1" stroke-width="1" stroke-linecap="square" stroke-linejoin="bevel" transform="matrix(0,1,-1,0,251,86)" font-family=".SF NS Text" font-size="13pt" font-weight="400" font-style="normal"  > <circle cx="5" cy="5" r="5"/> </g>                              <g fill="#6a5acd" fill-opacity="1" stroke="#6a5acd" stroke-opacity="1" stroke-width="1" stroke-linecap="square" stroke-linejoin="bevel" transform="matrix(0,1,-1,0,241,86)" font-family=".SF NS Text" font-size="13pt" font-weight="400" font-style="normal"  > <circle cx="5" cy="5" r="5"/> </g>                              <g fill="#6a5acd" fill-opacity="1" stroke="#6a5acd" stroke-opacity="1" stroke-width="1" stroke-linecap="square" stroke-linejoin="bevel" transform="matrix(0,1,-1,0,231,86)" font-family=".SF NS Text" font-size="13pt" font-weight="400" font-style="normal"  > <circle cx="5" cy="5" r="5"/> </g>                  <g fill="none" stroke="#000000" stroke-opacity="1" stroke-width="1" stroke-linecap="butt" stroke-linejoin="bevel" transform="matrix(0,1,-1,0,221,21)" font-family=".SF NS Text" font-size="13pt" font-weight="400" font-style="normal"  > <polyline fill="none" vector-effect="non-scaling-stroke" points="55,33.75 55,136.875 " /> </g>            <g fill="none" stroke="#000000" stroke-opacity="1" stroke-width="1" stroke-linecap="butt" stroke-linejoin="bevel" transform="matrix(0,1,-1,0,221,21)" font-family=".SF NS Text" font-size="13pt" font-weight="400" font-style="normal"  > <polyline fill="none" vector-effect="non-scaling-stroke" points="0,85.3125 45,85.3125 " /> </g>      <g fill="#fafad2" fill-opacity="1" stroke="#fafad2" stroke-opacity="1" stroke-width="1" stroke-linecap="square" stroke-linejoin="bevel" transform="matrix(0,1,-1,0,140.688,66)" font-family=".SF NS Text" font-size="13pt" font-weight="400" font-style="normal"  > <circle cx="5" cy="5" r="5"/> </g>                  <g fill="none" stroke="#000000" stroke-opacity="1" stroke-width="1" stroke-linecap="butt" stroke-linejoin="bevel" transform="matrix(0,1,-1,0,221,76)" font-family=".SF NS Text" font-size="13pt" font-weight="400" font-style="normal"  > <polyline fill="none" vector-effect="non-scaling-stroke" points="10,12.5 10,55 " /> </g>                  <g fill="#fafad2" fill-opacity="1" stroke="#fafad2" stroke-opacity="1" stroke-width="1" stroke-linecap="square" stroke-linejoin="bevel" transform="matrix(0,1,-1,0,192.25,76)" font-family=".SF NS Text" font-size="13pt" font-weight="400" font-style="normal"  > <circle cx="5" cy="5" r="5"/> </g>                  <g fill="none" stroke="#000000" stroke-opacity="1" stroke-width="1" stroke-linecap="butt" stroke-linejoin="bevel" transform="matrix(0,1,-1,0,221,86)" font-family=".SF NS Text" font-size="13pt" font-weight="400" font-style="normal"  > <polyline fill="none" vector-effect="non-scaling-stroke" points="10,5 10,20 " /> </g>                  <g fill="#fafad2" fill-opacity="1" stroke="#fafad2" stroke-opacity="1" stroke-width="1" stroke-linecap="square" stroke-linejoin="bevel" transform="matrix(0,1,-1,0,213.5,86)" font-family=".SF NS Text" font-size="13pt" font-weight="400" font-style="normal"  > <circle cx="5" cy="5" r="5"/> </g>                              <g fill="#fafad2" fill-opacity="1" stroke="#fafad2" stroke-opacity="1" stroke-width="1" stroke-linecap="square" stroke-linejoin="bevel" transform="matrix(0,1,-1,0,221,96)" font-family=".SF NS Text" font-size="13pt" font-weight="400" font-style="normal"  > <circle cx="5" cy="5" r="5"/> </g>                  <g fill="none" stroke="#000000" stroke-opacity="1" stroke-width="1" stroke-linecap="butt" stroke-linejoin="bevel" transform="matrix(0,1,-1,0,211,96)" font-family=".SF NS Text" font-size="13pt" font-weight="400" font-style="normal"  > <polyline fill="none" vector-effect="non-scaling-stroke" points="10,5 10,15 " /> </g>                  <g fill="#fafad2" fill-opacity="1" stroke="#fafad2" stroke-opacity="1" stroke-width="1" stroke-linecap="square" stroke-linejoin="bevel" transform="matrix(0,1,-1,0,206,96)" font-family=".SF NS Text" font-size="13pt" font-weight="400" font-style="normal"  > <circle cx="5" cy="5" r="5"/> </g>                              <g fill="#fafad2" fill-opacity="1" stroke="#fafad2" stroke-opacity="1" stroke-width="1" stroke-linecap="square" stroke-linejoin="bevel" transform="matrix(0,1,-1,0,211,106)" font-family=".SF NS Text" font-size="13pt" font-weight="400" font-style="normal"  > <circle cx="5" cy="5" r="5"/> </g>                              <g fill="#fafad2" fill-opacity="1" stroke="#fafad2" stroke-opacity="1" stroke-width="1" stroke-linecap="square" stroke-linejoin="bevel" transform="matrix(0,1,-1,0,201,106)" font-family=".SF NS Text" font-size="13pt" font-weight="400" font-style="normal"  > <circle cx="5" cy="5" r="5"/> </g>                  <g fill="none" stroke="#000000" stroke-opacity="1" stroke-width="1" stroke-linecap="butt" stroke-linejoin="bevel" transform="matrix(0,1,-1,0,191,86)" font-family=".SF NS Text" font-size="13pt" font-weight="400" font-style="normal"  > <polyline fill="none" vector-effect="non-scaling-stroke" points="10,5 10,45 " /> </g>                  <g fill="#fafad2" fill-opacity="1" stroke="#fafad2" stroke-opacity="1" stroke-width="1" stroke-linecap="square" stroke-linejoin="bevel" transform="matrix(0,1,-1,0,171,86)" font-family=".SF NS Text" font-size="13pt" font-weight="400" font-style="normal"  > <circle cx="5" cy="5" r="5"/> </g>                        <g fill="none" stroke="#000000" stroke-opacity="1" stroke-width="1" stroke-linecap="butt" stroke-linejoin="bevel" transform="matrix(0,1,-1,0,191,96)" font-family=".SF NS Text" font-size="13pt" font-weight="400" font-style="normal"  > <polyline fill="none" vector-effect="non-scaling-stroke" points="0,5 90,5 " /> </g>      <g fill="#48d1cc" fill-opacity="1" stroke="#48d1cc" stroke-opacity="1" stroke-width="1" stroke-linecap="square" stroke-linejoin="bevel" transform="matrix(0,1,-1,0,191,186)" font-family=".SF NS Text" font-size="13pt" font-weight="400" font-style="normal"  > <circle cx="5" cy="5" r="5"/> </g>                  <g fill="none" stroke="#000000" stroke-opacity="1" stroke-width="1" stroke-linecap="butt" stroke-linejoin="bevel" transform="matrix(0,1,-1,0,181,96)" font-family=".SF NS Text" font-size="13pt" font-weight="400" font-style="normal"  > <polyline fill="none" vector-effect="non-scaling-stroke" points="10,5 10,15 " /> </g>                  <g fill="#fafad2" fill-opacity="1" stroke="#fafad2" stroke-opacity="1" stroke-width="1" stroke-linecap="square" stroke-linejoin="bevel" transform="matrix(0,1,-1,0,176,96)" font-family=".SF NS Text" font-size="13pt" font-weight="400" font-style="normal"  > <circle cx="5" cy="5" r="5"/> </g>                              <g fill="#fafad2" fill-opacity="1" stroke="#fafad2" stroke-opacity="1" stroke-width="1" stroke-linecap="square" stroke-linejoin="bevel" transform="matrix(0,1,-1,0,181,106)" font-family=".SF NS Text" font-size="13pt" font-weight="400" font-style="normal"  > <circle cx="5" cy="5" r="5"/> </g>                        <g fill="none" stroke="#000000" stroke-opacity="1" stroke-width="1" stroke-linecap="butt" stroke-linejoin="bevel" transform="matrix(0,1,-1,0,171,106)" font-family=".SF NS Text" font-size="13pt" font-weight="400" font-style="normal"  > <polyline fill="none" vector-effect="non-scaling-stroke" points="0,5 45,5 " /> </g>      <g fill="#00ced1" fill-opacity="1" stroke="#00ced1" stroke-opacity="1" stroke-width="1" stroke-linecap="square" stroke-linejoin="bevel" transform="matrix(0,1,-1,0,171,151)" font-family=".SF NS Text" font-size="13pt" font-weight="400" font-style="normal"  > <circle cx="5" cy="5" r="5"/> </g>                  <g fill="none" stroke="#000000" stroke-opacity="1" stroke-width="1" stroke-linecap="butt" stroke-linejoin="bevel" transform="matrix(0,1,-1,0,161,96)" font-family=".SF NS Text" font-size="13pt" font-weight="400" font-style="normal"  > <polyline fill="none" vector-effect="non-scaling-stroke" points="55,5 55,25 " /> </g>            <g fill="none" stroke="#000000" stroke-opacity="1" stroke-width="1" stroke-linecap="butt" stroke-linejoin="bevel" transform="matrix(0,1,-1,0,161,96)" font-family=".SF NS Text" font-size="13pt" font-weight="400" font-style="normal"  > <polyline fill="none" vector-effect="non-scaling-stroke" points="0,15 45,15 " /> </g>      <g fill="#6495ed" fill-opacity="1" stroke="#6495ed" stroke-opacity="1" stroke-width="1" stroke-linecap="square" stroke-linejoin="bevel" transform="matrix(0,1,-1,0,151,141)" font-family=".SF NS Text" font-size="13pt" font-weight="400" font-style="normal"  > <circle cx="5" cy="5" r="5"/> </g>                              <g fill="#6495ed" fill-opacity="1" stroke="#6495ed" stroke-opacity="1" stroke-width="1" stroke-linecap="square" stroke-linejoin="bevel" transform="matrix(0,1,-1,0,161,151)" font-family=".SF NS Text" font-size="13pt" font-weight="400" font-style="normal"  > <circle cx="5" cy="5" r="5"/> </g>                        <g fill="none" stroke="#000000" stroke-opacity="1" stroke-width="1" stroke-linecap="butt" stroke-linejoin="bevel" transform="matrix(0,1,-1,0,151,151)" font-family=".SF NS Text" font-size="13pt" font-weight="400" font-style="normal"  > <polyline fill="none" vector-effect="non-scaling-stroke" points="0,5 45,5 " /> </g>      <g fill="#9932cc" fill-opacity="1" stroke="#9932cc" stroke-opacity="1" stroke-width="1" stroke-linecap="square" stroke-linejoin="bevel" transform="matrix(0,1,-1,0,151,196)" font-family=".SF NS Text" font-size="13pt" font-weight="400" font-style="normal"  > <circle cx="5" cy="5" r="5"/> </g>                        <g fill="none" stroke="#000000" stroke-opacity="1" stroke-width="1" stroke-linecap="butt" stroke-linejoin="bevel" transform="matrix(0,1,-1,0,141,151)" font-family=".SF NS Text" font-size="13pt" font-weight="400" font-style="normal"  > <polyline fill="none" vector-effect="non-scaling-stroke" points="0,5 45,5 " /> </g>      <g fill="#fff5ee" fill-opacity="1" stroke="#fff5ee" stroke-opacity="1" stroke-width="1" stroke-linecap="square" stroke-linejoin="bevel" transform="matrix(0,1,-1,0,141,196)" font-family=".SF NS Text" font-size="13pt" font-weight="400" font-style="normal"  > <circle cx="5" cy="5" r="5"/> </g>                  <g fill="none" stroke="#000000" stroke-opacity="1" stroke-width="1" stroke-linecap="butt" stroke-linejoin="bevel" transform="matrix(0,1,-1,0,131,76)" font-family=".SF NS Text" font-size="13pt" font-weight="400" font-style="normal"  > <polyline fill="none" vector-effect="non-scaling-stroke" points="10,5 10,88.75 " /> </g>                  <g fill="#fafad2" fill-opacity="1" stroke="#fafad2" stroke-opacity="1" stroke-width="1" stroke-linecap="square" stroke-linejoin="bevel" transform="matrix(0,1,-1,0,89.125,76)" font-family=".SF NS Text" font-size="13pt" font-weight="400" font-style="normal"  > <circle cx="5" cy="5" r="5"/> </g>                        <g fill="none" stroke="#000000" stroke-opacity="1" stroke-width="1" stroke-linecap="butt" stroke-linejoin="bevel" transform="matrix(0,1,-1,0,131,86)" font-family=".SF NS Text" font-size="13pt" font-weight="400" font-style="normal"  > <polyline fill="none" vector-effect="non-scaling-stroke" points="0,5 90,5 " /> </g>      <g fill="#ffe4e1" fill-opacity="1" stroke="#ffe4e1" stroke-opacity="1" stroke-width="1" stroke-linecap="square" stroke-linejoin="bevel" transform="matrix(0,1,-1,0,131,176)" font-family=".SF NS Text" font-size="13pt" font-weight="400" font-style="normal"  > <circle cx="5" cy="5" r="5"/> </g>                  <g fill="none" stroke="#000000" stroke-opacity="1" stroke-width="1" stroke-linecap="butt" stroke-linejoin="bevel" transform="matrix(0,1,-1,0,121,86)" font-family=".SF NS Text" font-size="13pt" font-weight="400" font-style="normal"  > <polyline fill="none" vector-effect="non-scaling-stroke" points="55,5 55,35 " /> </g>            <g fill="none" stroke="#000000" stroke-opacity="1" stroke-width="1" stroke-linecap="butt" stroke-linejoin="bevel" transform="matrix(0,1,-1,0,121,86)" font-family=".SF NS Text" font-size="13pt" font-weight="400" font-style="normal"  > <polyline fill="none" vector-effect="non-scaling-stroke" points="0,20 45,20 " /> </g>      <g fill="#ffc0cb" fill-opacity="1" stroke="#ffc0cb" stroke-opacity="1" stroke-width="1" stroke-linecap="square" stroke-linejoin="bevel" transform="matrix(0,1,-1,0,106,131)" font-family=".SF NS Text" font-size="13pt" font-weight="400" font-style="normal"  > <circle cx="5" cy="5" r="5"/> </g>                        <g fill="none" stroke="#000000" stroke-opacity="1" stroke-width="1" stroke-linecap="butt" stroke-linejoin="bevel" transform="matrix(0,1,-1,0,121,141)" font-family=".SF NS Text" font-size="13pt" font-weight="400" font-style="normal"  > <polyline fill="none" vector-effect="non-scaling-stroke" points="0,5 90,5 " /> </g>      <g fill="#ffe4c4" fill-opacity="1" stroke="#ffe4c4" stroke-opacity="1" stroke-width="1" stroke-linecap="square" stroke-linejoin="bevel" transform="matrix(0,1,-1,0,121,231)" font-family=".SF NS Text" font-size="13pt" font-weight="400" font-style="normal"  > <circle cx="5" cy="5" r="5"/> </g>                              <g fill="#ffc0cb" fill-opacity="1" stroke="#ffc0cb" stroke-opacity="1" stroke-width="1" stroke-linecap="square" stroke-linejoin="bevel" transform="matrix(0,1,-1,0,111,141)" font-family=".SF NS Text" font-size="13pt" font-weight="400" font-style="normal"  > <circle cx="5" cy="5" r="5"/> </g>                  <g fill="none" stroke="#000000" stroke-opacity="1" stroke-width="1" stroke-linecap="butt" stroke-linejoin="bevel" transform="matrix(0,1,-1,0,101,141)" font-family=".SF NS Text" font-size="13pt" font-weight="400" font-style="normal"  > <polyline fill="none" vector-effect="non-scaling-stroke" points="55,5 55,25 " /> </g>            <g fill="none" stroke="#000000" stroke-opacity="1" stroke-width="1" stroke-linecap="butt" stroke-linejoin="bevel" transform="matrix(0,1,-1,0,101,141)" font-family=".SF NS Text" font-size="13pt" font-weight="400" font-style="normal"  > <polyline fill="none" vector-effect="non-scaling-stroke" points="0,15 45,15 " /> </g>      <g fill="#f5f5dc" fill-opacity="1" stroke="#f5f5dc" stroke-opacity="1" stroke-width="1" stroke-linecap="square" stroke-linejoin="bevel" transform="matrix(0,1,-1,0,91,186)" font-family=".SF NS Text" font-size="13pt" font-weight="400" font-style="normal"  > <circle cx="5" cy="5" r="5"/> </g>                              <g fill="#f5f5dc" fill-opacity="1" stroke="#f5f5dc" stroke-opacity="1" stroke-width="1" stroke-linecap="square" stroke-linejoin="bevel" transform="matrix(0,1,-1,0,101,196)" font-family=".SF NS Text" font-size="13pt" font-weight="400" font-style="normal"  > <circle cx="5" cy="5" r="5"/> </g>                              <g fill="#f5f5dc" fill-opacity="1" stroke="#f5f5dc" stroke-opacity="1" stroke-width="1" stroke-linecap="square" stroke-linejoin="bevel" transform="matrix(0,1,-1,0,91,196)" font-family=".SF NS Text" font-size="13pt" font-weight="400" font-style="normal"  > <circle cx="5" cy="5" r="5"/> </g>                        <g fill="none" stroke="#000000" stroke-opacity="1" stroke-width="1" stroke-linecap="butt" stroke-linejoin="bevel" transform="matrix(0,1,-1,0,81,196)" font-family=".SF NS Text" font-size="13pt" font-weight="400" font-style="normal"  > <polyline fill="none" vector-effect="non-scaling-stroke" points="0,5 45,5 " /> </g>      <g fill="#40e0d0" fill-opacity="1" stroke="#40e0d0" stroke-opacity="1" stroke-width="1" stroke-linecap="square" stroke-linejoin="bevel" transform="matrix(0,1,-1,0,81,241)" font-family=".SF NS Text" font-size="13pt" font-weight="400" font-style="normal"  > <circle cx="5" cy="5" r="5"/> </g>                  <g fill="none" stroke="#000000" stroke-opacity="1" stroke-width="1" stroke-linecap="butt" stroke-linejoin="bevel" transform="matrix(0,1,-1,0,71,86)" font-family=".SF NS Text" font-size="13pt" font-weight="400" font-style="normal"  > <polyline fill="none" vector-effect="non-scaling-stroke" points="10,12.5 10,45 " /> </g>                  <g fill="#fafad2" fill-opacity="1" stroke="#fafad2" stroke-opacity="1" stroke-width="1" stroke-linecap="square" stroke-linejoin="bevel" transform="matrix(0,1,-1,0,47.25,86)" font-family=".SF NS Text" font-size="13pt" font-weight="400" font-style="normal"  > <circle cx="5" cy="5" r="5"/> </g>                  <g fill="none" stroke="#000000" stroke-opacity="1" stroke-width="1" stroke-linecap="butt" stroke-linejoin="bevel" transform="matrix(0,1,-1,0,71,96)" font-family=".SF NS Text" font-size="13pt" font-weight="400" font-style="normal"  > <polyline fill="none" vector-effect="non-scaling-stroke" points="55,5 55,20 " /> </g>            <g fill="none" stroke="#000000" stroke-opacity="1" stroke-width="1" stroke-linecap="butt" stroke-linejoin="bevel" transform="matrix(0,1,-1,0,71,96)" font-family=".SF NS Text" font-size="13pt" font-weight="400" font-style="normal"  > <polyline fill="none" vector-effect="non-scaling-stroke" points="0,12.5 45,12.5 " /> </g>      <g fill="#ffa500" fill-opacity="1" stroke="#ffa500" stroke-opacity="1" stroke-width="1" stroke-linecap="square" stroke-linejoin="bevel" transform="matrix(0,1,-1,0,63.5,141)" font-family=".SF NS Text" font-size="13pt" font-weight="400" font-style="normal"  > <circle cx="5" cy="5" r="5"/> </g>                              <g fill="#ffa500" fill-opacity="1" stroke="#ffa500" stroke-opacity="1" stroke-width="1" stroke-linecap="square" stroke-linejoin="bevel" transform="matrix(0,1,-1,0,71,151)" font-family=".SF NS Text" font-size="13pt" font-weight="400" font-style="normal"  > <circle cx="5" cy="5" r="5"/> </g>                  <g fill="none" stroke="#000000" stroke-opacity="1" stroke-width="1" stroke-linecap="butt" stroke-linejoin="bevel" transform="matrix(0,1,-1,0,61,151)" font-family=".SF NS Text" font-size="13pt" font-weight="400" font-style="normal"  > <polyline fill="none" vector-effect="non-scaling-stroke" points="10,5 10,15 " /> </g>                  <g fill="#ffa500" fill-opacity="1" stroke="#ffa500" stroke-opacity="1" stroke-width="1" stroke-linecap="square" stroke-linejoin="bevel" transform="matrix(0,1,-1,0,56,151)" font-family=".SF NS Text" font-size="13pt" font-weight="400" font-style="normal"  > <circle cx="5" cy="5" r="5"/> </g>                              <g fill="#ffa500" fill-opacity="1" stroke="#ffa500" stroke-opacity="1" stroke-width="1" stroke-linecap="square" stroke-linejoin="bevel" transform="matrix(0,1,-1,0,61,161)" font-family=".SF NS Text" font-size="13pt" font-weight="400" font-style="normal"  > <circle cx="5" cy="5" r="5"/> </g>                              <g fill="#ffa500" fill-opacity="1" stroke="#ffa500" stroke-opacity="1" stroke-width="1" stroke-linecap="square" stroke-linejoin="bevel" transform="matrix(0,1,-1,0,51,161)" font-family=".SF NS Text" font-size="13pt" font-weight="400" font-style="normal"  > <circle cx="5" cy="5" r="5"/> </g>                  <g fill="none" stroke="#000000" stroke-opacity="1" stroke-width="1" stroke-linecap="butt" stroke-linejoin="bevel" transform="matrix(0,1,-1,0,41,96)" font-family=".SF NS Text" font-size="13pt" font-weight="400" font-style="normal"  > <polyline fill="none" vector-effect="non-scaling-stroke" points="55,5 55,25 " /> </g>            <g fill="none" stroke="#000000" stroke-opacity="1" stroke-width="1" stroke-linecap="butt" stroke-linejoin="bevel" transform="matrix(0,1,-1,0,41,96)" font-family=".SF NS Text" font-size="13pt" font-weight="400" font-style="normal"  > <polyline fill="none" vector-effect="non-scaling-stroke" points="0,15 45,15 " /> </g>      <g fill="#191970" fill-opacity="1" stroke="#191970" stroke-opacity="1" stroke-width="1" stroke-linecap="square" stroke-linejoin="bevel" transform="matrix(0,1,-1,0,31,141)" font-family=".SF NS Text" font-size="13pt" font-weight="400" font-style="normal"  > <circle cx="5" cy="5" r="5"/> </g>                              <g fill="#191970" fill-opacity="1" stroke="#191970" stroke-opacity="1" stroke-width="1" stroke-linecap="square" stroke-linejoin="bevel" transform="matrix(0,1,-1,0,41,151)" font-family=".SF NS Text" font-size="13pt" font-weight="400" font-style="normal"  > <circle cx="5" cy="5" r="5"/> </g>                  <g fill="none" stroke="#000000" stroke-opacity="1" stroke-width="1" stroke-linecap="butt" stroke-linejoin="bevel" transform="matrix(0,1,-1,0,31,151)" font-family=".SF NS Text" font-size="13pt" font-weight="400" font-style="normal"  > <polyline fill="none" vector-effect="non-scaling-stroke" points="10,5 10,25 " /> </g>                  <g fill="#191970" fill-opacity="1" stroke="#191970" stroke-opacity="1" stroke-width="1" stroke-linecap="square" stroke-linejoin="bevel" transform="matrix(0,1,-1,0,21,151)" font-family=".SF NS Text" font-size="13pt" font-weight="400" font-style="normal"  > <circle cx="5" cy="5" r="5"/> </g>                        <g fill="none" stroke="#000000" stroke-opacity="1" stroke-width="1" stroke-linecap="butt" stroke-linejoin="bevel" transform="matrix(0,1,-1,0,31,161)" font-family=".SF NS Text" font-size="13pt" font-weight="400" font-style="normal"  > <polyline fill="none" vector-effect="non-scaling-stroke" points="0,5 45,5 " /> </g>      <g fill="#1e90ff" fill-opacity="1" stroke="#1e90ff" stroke-opacity="1" stroke-width="1" stroke-linecap="square" stroke-linejoin="bevel" transform="matrix(0,1,-1,0,31,206)" font-family=".SF NS Text" font-size="13pt" font-weight="400" font-style="normal"  > <circle cx="5" cy="5" r="5"/> </g>                              <g fill="#191970" fill-opacity="1" stroke="#191970" stroke-opacity="1" stroke-width="1" stroke-linecap="square" stroke-linejoin="bevel" transform="matrix(0,1,-1,0,21,161)" font-family=".SF NS Text" font-size="13pt" font-weight="400" font-style="normal"  > <circle cx="5" cy="5" r="5"/> </g>                        <g fill="none" stroke="#000000" stroke-opacity="1" stroke-width="1" stroke-linecap="butt" stroke-linejoin="bevel" transform="matrix(0,1,-1,0,11,161)" font-family=".SF NS Text" font-size="13pt" font-weight="400" font-style="normal"  > <polyline fill="none" vector-effect="non-scaling-stroke" points="0,5 90,5 " /> </g>      <g fill="#fffaf0" fill-opacity="1" stroke="#fffaf0" stroke-opacity="1" stroke-width="1" stroke-linecap="square" stroke-linejoin="bevel" transform="matrix(0,1,-1,0,11,251)" font-family=".SF NS Text" font-size="13pt" font-weight="400" font-style="normal"  > <circle cx="5" cy="5" r="5"/> </g>                                                                                                                                                                                                                                                                                                                                                         </g> </svg> 