<?xml version="1.0" encoding="UTF-8" standalone="no"?> <svg width="21.8722mm" height="99.4833mm"  viewBox="0 0 62 282"  xmlns="http://www.w3.org/2000/svg" xmlns:xlink="http://www.w3.org/1999/xlink"  version="1.2" baseProfile="tiny"> <title>Generated with ETE http://etetoolkit.org</title> <desc>Generated with ETE http://etetoolkit.org</desc> <defs> </defs> <g fill="none" stroke="black" stroke-width="1" fill-rule="evenodd" stroke-linecap="square" stroke-linejoin="bevel" >      <g fill="none" stroke="none" transform="matrix(1,0,0,1,-109,0)" font-family=".SF NS Text" font-size="13pt" font-weight="400" font-style="normal"  > <rect x="109" y="0" width="62" height="282"/> </g>      <g fill="none" stroke="none" transform="matrix(0,1,-1,0,61,1)" font-family=".SF NS Text" font-size="13pt" font-weight="400" font-style="normal"  > <rect x="0" y="0" width="280" height="60"/> </g>                      <g fill="none" stroke="#000000" stroke-opacity="1" stroke-width="1" stroke-linecap="butt" stroke-linejoin="bevel" transform="matrix(0,1,-1,0,61,1)" font-family=".SF NS Text" font-size="13pt" font-weight="400" font-style="normal"  > <polyline fill="none" vector-effect="non-scaling-stroke" points="40,9.5 40,41 " /> </g>                      <g fill="#808080" fill-opacity="1" stroke="#808080" stroke-opacity="1" stroke-width="1" stroke-linecap="square" stroke-linejoin="bevel" transform="matrix(1,0,0,1,15.5,0.5)" font-family=".SF NS Text" font-size="13pt" font-weight="400" font-style="normal"  > <circle cx="20" cy="20" r="20"/> </g>  <g fill="#808080" fill-opacity="1" stroke="#000000" stroke-opacity="1" stroke-width="1" stroke-linecap="square" stroke-linejoin="bevel" transform="matrix(1,0,0,1,15.5,0.5)" font-family="Verdana" font-size="12pt" font-weight="400" font-style="normal"  > <text fill="#000000" fill-opacity="1" stroke="none" xml:space="preserve" x="16" y="28" font-family="Verdana" font-size="12pt" font-weight="400" font-style="normal"   >4</text> </g>                    <g fill="none" stroke="#000000" stroke-opacity="1" stroke-width="1" stroke-linecap="butt" stroke-linejoin="bevel" transform="matrix(0,1,-1,0,61,41)" font-family=".SF NS Text" font-size="13pt" font-weight="400" font-style="normal"  > <polyline fill="none" vector-effect="none" points="0,10 60,10 " /> </g>          <g fill="#f5fffa" fill-opacity="1" stroke="#f5fffa" stroke-opacity="1" stroke-width="1" stroke-linecap="square" stroke-linejoin="bevel" transform="matrix(1,0,0,1,40.5,100.5)" font-family=".SF NS Text" font-size="13pt" font-weight="400" font-style="normal"  > <circle cx="10" cy="10" r="10"/> </g>  <g fill="#f5fffa" fill-opacity="1" stroke="#000000" stroke-opacity="1" stroke-width="1" stroke-linecap="square" stroke-linejoin="bevel" transform="matrix(1,0,0,1,40.5,100.5)" font-family="Verdana" font-size="12pt" font-weight="400" font-style="normal"  > <text fill="#000000" fill-opacity="1" stroke="none" xml:space="preserve" x="6" y="18" font-family="Verdana" font-size="12pt" font-weight="400" font-style="normal"   >1</text> </g>              <g fill="none" stroke="#000000" stroke-opacity="1" stroke-width="1" stroke-linecap="butt" stroke-linejoin="bevel" transform="matrix(0,1,-1,0,41,41)" font-family=".SF NS Text" font-size="13pt" font-weight="400" font-style="normal"  > <polyline fill="none" vector-effect="non-scaling-stroke" points="160,19.5 160,20.5 " /> </g>            <g fill="none" stroke="#000000" stroke-opacity="1" stroke-width="2" stroke-linecap="butt" stroke-linejoin="bevel" transform="matrix(0,1,-1,0,41,41)" font-family=".SF NS Text" font-size="13pt" font-weight="400" font-style="normal"  > <polyline fill="none" vector-effect="none" points="0,20 120,20 " /> </g>          <g fill="#d8bfd8" fill-opacity="1" stroke="#d8bfd8" stroke-opacity="1" stroke-width="1" stroke-linecap="square" stroke-linejoin="bevel" transform="matrix(1,0,0,1,0.5,160.5)" font-family=".SF NS Text" font-size="13pt" font-weight="400" font-style="normal"  > <circle cx="20" cy="20" r="20"/> </g>  <g fill="#d8bfd8" fill-opacity="1" stroke="#000000" stroke-opacity="1" stroke-width="1" stroke-linecap="square" stroke-linejoin="bevel" transform="matrix(1,0,0,1,0.5,160.5)" font-family="Verdana" font-size="12pt" font-weight="400" font-style="normal"  > <text fill="#000000" fill-opacity="1" stroke="none" xml:space="preserve" x="16" y="28" font-family="Verdana" font-size="12pt" font-weight="400" font-style="normal"   >4</text> </g>                    <g fill="none" stroke="#000000" stroke-opacity="1" stroke-width="1" stroke-linecap="butt" stroke-linejoin="bevel" transform="matrix(0,1,-1,0,31,201)" font-family=".SF NS Text" font-size="13pt" font-weight="400" font-style="normal"  > <polyline fill="none" vector-effect="none" points="0,10 60,10 " /> </g>          <g fill="#a52a2a" fill-opacity="1" stroke="#a52a2a" stroke-opacity="1" stroke-width="1" stroke-linecap="square" stroke-linejoin="bevel" transform="matrix(1,0,0,1,10.5,260.5)" font-family=".SF NS Text" font-size="13pt" font-weight="400" font-style="normal"  > <circle cx="10" cy="10" r="10"/> </g>  <g fill="#a52a2a" fill-opacity="1" stroke="#000000" stroke-opacity="1" stroke-width="1" stroke-linecap="square" stroke-linejoin="bevel" transform="matrix(1,0,0,1,10.5,260.5)" font-family="Verdana" font-size="12pt" font-weight="400" font-style="normal"  > <text fill="#000000" fill-opacity="1" stroke="none" xml:space="preserve" x="6" y="18" font-family="Verdana" font-size="12pt" font-weight="400" font-style="normal"   >1</text> </g>                             </g> </svg> 