<?xml version="1.0" encoding="UTF-8" standalone="no"?> <svg width="14.8167mm" height="78.3167mm"  viewBox="0 0 42 222"  xmlns="http://www.w3.org/2000/svg" xmlns:xlink="http://www.w3.org/1999/xlink"  version="1.2" baseProfile="tiny"> <title>Generated with ETE http://etetoolkit.org</title> <desc>Generated with ETE http://etetoolkit.org</desc> <defs> </defs> <g fill="none" stroke="black" stroke-width="1" fill-rule="evenodd" stroke-linecap="square" stroke-linejoin="bevel" >      <g fill="none" stroke="none" transform="matrix(1,0,0,1,-89,0)" font-family=".SF NS Text" font-size="13pt" font-weight="400" font-style="normal"  > <rect x="89" y="0" width="42" height="222"/> </g>      <g fill="none" stroke="none" transform="matrix(0,1,-1,0,41,1)" font-family=".SF NS Text" font-size="13pt" font-weight="400" font-style="normal"  > <rect x="0" y="0" width="220" height="40"/> </g>                                  <g fill="none" stroke="#000000" stroke-opacity="1" stroke-width="1" stroke-linecap="butt" stroke-linejoin="bevel" transform="matrix(0,1,-1,0,41,1)" font-family=".SF NS Text" font-size="13pt" font-weight="400" font-style="normal"  > <polyline fill="none" vector-effect="non-scaling-stroke" points="10,5 10,22.5 " /> </g>                  <g fill="#808080" fill-opacity="1" stroke="#808080" stroke-opacity="1" stroke-width="1" stroke-linecap="square" stroke-linejoin="bevel" transform="matrix(0,1,-1,0,32.25,1)" font-family=".SF NS Text" font-size="13pt" font-weight="400" font-style="normal"  > <circle cx="5" cy="5" r="5"/> </g>                        <g fill="none" stroke="#000000" stroke-opacity="1" stroke-width="1" stroke-linecap="butt" stroke-linejoin="bevel" transform="matrix(0,1,-1,0,41,11)" font-family=".SF NS Text" font-size="13pt" font-weight="400" font-style="normal"  > <polyline fill="none" vector-effect="non-scaling-stroke" points="0,5 180,5 " /> </g>      <g fill="#add8e6" fill-opacity="1" stroke="#add8e6" stroke-opacity="1" stroke-width="1" stroke-linecap="square" stroke-linejoin="bevel" transform="matrix(0,1,-1,0,41,191)" font-family=".SF NS Text" font-size="13pt" font-weight="400" font-style="normal"  > <circle cx="5" cy="5" r="5"/> </g>                  <g fill="none" stroke="#000000" stroke-opacity="1" stroke-width="1" stroke-linecap="butt" stroke-linejoin="bevel" transform="matrix(0,1,-1,0,31,11)" font-family=".SF NS Text" font-size="13pt" font-weight="400" font-style="normal"  > <polyline fill="none" vector-effect="non-scaling-stroke" points="10,5 10,20 " /> </g>                  <g fill="#808080" fill-opacity="1" stroke="#808080" stroke-opacity="1" stroke-width="1" stroke-linecap="square" stroke-linejoin="bevel" transform="matrix(0,1,-1,0,23.5,11)" font-family=".SF NS Text" font-size="13pt" font-weight="400" font-style="normal"  > <circle cx="5" cy="5" r="5"/> </g>                              <g fill="#808080" fill-opacity="1" stroke="#808080" stroke-opacity="1" stroke-width="1" stroke-linecap="square" stroke-linejoin="bevel" transform="matrix(0,1,-1,0,31,21)" font-family=".SF NS Text" font-size="13pt" font-weight="400" font-style="normal"  > <circle cx="5" cy="5" r="5"/> </g>                  <g fill="none" stroke="#000000" stroke-opacity="1" stroke-width="1" stroke-linecap="butt" stroke-linejoin="bevel" transform="matrix(0,1,-1,0,21,21)" font-family=".SF NS Text" font-size="13pt" font-weight="400" font-style="normal"  > <polyline fill="none" vector-effect="non-scaling-stroke" points="190,5 190,15 " /> </g>            <g fill="none" stroke="#000000" stroke-opacity="1" stroke-width="1" stroke-linecap="butt" stroke-linejoin="bevel" transform="matrix(0,1,-1,0,21,21)" font-family=".SF NS Text" font-size="13pt" font-weight="400" font-style="normal"  > <polyline fill="none" vector-effect="non-scaling-stroke" points="0,10 180,10 " /> </g>      <g fill="#fa8072" fill-opacity="1" stroke="#fa8072" stroke-opacity="1" stroke-width="1" stroke-linecap="square" stroke-linejoin="bevel" transform="matrix(0,1,-1,0,16,201)" font-family=".SF NS Text" font-size="13pt" font-weight="400" font-style="normal"  > <circle cx="5" cy="5" r="5"/> </g>                              <g fill="#fa8072" fill-opacity="1" stroke="#fa8072" stroke-opacity="1" stroke-width="1" stroke-linecap="square" stroke-linejoin="bevel" transform="matrix(0,1,-1,0,21,211)" font-family=".SF NS Text" font-size="13pt" font-weight="400" font-style="normal"  > <circle cx="5" cy="5" r="5"/> </g>                              <g fill="#fa8072" fill-opacity="1" stroke="#fa8072" stroke-opacity="1" stroke-width="1" stroke-linecap="square" stroke-linejoin="bevel" transform="matrix(0,1,-1,0,11,211)" font-family=".SF NS Text" font-size="13pt" font-weight="400" font-style="normal"  > <circle cx="5" cy="5" r="5"/> </g>                                             </g> </svg> 