<?xml version="1.0" encoding="UTF-8" standalone="no"?> <svg width="177.094mm" height="85.3722mm"  viewBox="0 0 502 242"  xmlns="http://www.w3.org/2000/svg" xmlns:xlink="http://www.w3.org/1999/xlink"  version="1.2" baseProfile="tiny"> <title>Generated with ETE http://etetoolkit.org</title> <desc>Generated with ETE http://etetoolkit.org</desc> <defs> </defs> <g fill="none" stroke="black" stroke-width="1" fill-rule="evenodd" stroke-linecap="square" stroke-linejoin="bevel" >      <g fill="none" stroke="none" transform="matrix(1,0,0,1,0,-129)" font-family=".SF NS Text" font-size="13pt" font-weight="400" font-style="normal"  > <rect x="0" y="129" width="502" height="242"/> </g>      <g fill="none" stroke="none" transform="matrix(0,1,-1,0,501,1)" font-family=".SF NS Text" font-size="13pt" font-weight="400" font-style="normal"  > <rect x="0" y="0" width="240" height="500"/> </g>                                                                                                                                                                                                                                                                                                                                                                                <g fill="#808080" fill-opacity="1" stroke="#808080" stroke-opacity="1" stroke-width="1" stroke-linecap="square" stroke-linejoin="bevel" transform="matrix(0,1,-1,0,354.359,1)" font-family=".SF NS Text" font-size="13pt" font-weight="400" font-style="normal"  > <circle cx="5" cy="5" r="5"/> </g>                  <g fill="none" stroke="#000000" stroke-opacity="1" stroke-width="1" stroke-linecap="butt" stroke-linejoin="bevel" transform="matrix(0,1,-1,0,501,11)" font-family=".SF NS Text" font-size="13pt" font-weight="400" font-style="normal"  > <polyline fill="none" vector-effect="non-scaling-stroke" points="55,41.25 55,262.031 " /> </g>            <g fill="none" stroke="#000000" stroke-opacity="1" stroke-width="1" stroke-linecap="butt" stroke-linejoin="bevel" transform="matrix(0,1,-1,0,501,11)" font-family=".SF NS Text" font-size="13pt" font-weight="400" font-style="normal"  > <polyline fill="none" vector-effect="non-scaling-stroke" points="0,151.641 45,151.641 " /> </g>      <g fill="#ffa07a" fill-opacity="1" stroke="#ffa07a" stroke-opacity="1" stroke-width="1" stroke-linecap="square" stroke-linejoin="bevel" transform="matrix(0,1,-1,0,354.359,56)" font-family=".SF NS Text" font-size="13pt" font-weight="400" font-style="normal"  > <circle cx="5" cy="5" r="5"/> </g>                  <g fill="none" stroke="#000000" stroke-opacity="1" stroke-width="1" stroke-linecap="butt" stroke-linejoin="bevel" transform="matrix(0,1,-1,0,501,66)" font-family=".SF NS Text" font-size="13pt" font-weight="400" font-style="normal"  > <polyline fill="none" vector-effect="non-scaling-stroke" points="10,12.5 10,70 " /> </g>                  <g fill="#ffa07a" fill-opacity="1" stroke="#ffa07a" stroke-opacity="1" stroke-width="1" stroke-linecap="square" stroke-linejoin="bevel" transform="matrix(0,1,-1,0,464.75,66)" font-family=".SF NS Text" font-size="13pt" font-weight="400" font-style="normal"  > <circle cx="5" cy="5" r="5"/> </g>                  <g fill="none" stroke="#000000" stroke-opacity="1" stroke-width="1" stroke-linecap="butt" stroke-linejoin="bevel" transform="matrix(0,1,-1,0,501,76)" font-family=".SF NS Text" font-size="13pt" font-weight="400" font-style="normal"  > <polyline fill="none" vector-effect="non-scaling-stroke" points="55,5 55,20 " /> </g>            <g fill="none" stroke="#000000" stroke-opacity="1" stroke-width="1" stroke-linecap="butt" stroke-linejoin="bevel" transform="matrix(0,1,-1,0,501,76)" font-family=".SF NS Text" font-size="13pt" font-weight="400" font-style="normal"  > <polyline fill="none" vector-effect="non-scaling-stroke" points="0,12.5 45,12.5 " /> </g>      <g fill="#228b22" fill-opacity="1" stroke="#228b22" stroke-opacity="1" stroke-width="1" stroke-linecap="square" stroke-linejoin="bevel" transform="matrix(0,1,-1,0,493.5,121)" font-family=".SF NS Text" font-size="13pt" font-weight="400" font-style="normal"  > <circle cx="5" cy="5" r="5"/> </g>                              <g fill="#228b22" fill-opacity="1" stroke="#228b22" stroke-opacity="1" stroke-width="1" stroke-linecap="square" stroke-linejoin="bevel" transform="matrix(0,1,-1,0,501,131)" font-family=".SF NS Text" font-size="13pt" font-weight="400" font-style="normal"  > <circle cx="5" cy="5" r="5"/> </g>                  <g fill="none" stroke="#000000" stroke-opacity="1" stroke-width="1" stroke-linecap="butt" stroke-linejoin="bevel" transform="matrix(0,1,-1,0,491,131)" font-family=".SF NS Text" font-size="13pt" font-weight="400" font-style="normal"  > <polyline fill="none" vector-effect="non-scaling-stroke" points="10,5 10,15 " /> </g>                  <g fill="#228b22" fill-opacity="1" stroke="#228b22" stroke-opacity="1" stroke-width="1" stroke-linecap="square" stroke-linejoin="bevel" transform="matrix(0,1,-1,0,486,131)" font-family=".SF NS Text" font-size="13pt" font-weight="400" font-style="normal"  > <circle cx="5" cy="5" r="5"/> </g>                              <g fill="#228b22" fill-opacity="1" stroke="#228b22" stroke-opacity="1" stroke-width="1" stroke-linecap="square" stroke-linejoin="bevel" transform="matrix(0,1,-1,0,491,141)" font-family=".SF NS Text" font-size="13pt" font-weight="400" font-style="normal"  > <circle cx="5" cy="5" r="5"/> </g>                              <g fill="#228b22" fill-opacity="1" stroke="#228b22" stroke-opacity="1" stroke-width="1" stroke-linecap="square" stroke-linejoin="bevel" transform="matrix(0,1,-1,0,481,141)" font-family=".SF NS Text" font-size="13pt" font-weight="400" font-style="normal"  > <circle cx="5" cy="5" r="5"/> </g>                  <g fill="none" stroke="#000000" stroke-opacity="1" stroke-width="1" stroke-linecap="butt" stroke-linejoin="bevel" transform="matrix(0,1,-1,0,471,76)" font-family=".SF NS Text" font-size="13pt" font-weight="400" font-style="normal"  > <polyline fill="none" vector-effect="non-scaling-stroke" points="10,15 10,65 " /> </g>                  <g fill="#ffa07a" fill-opacity="1" stroke="#ffa07a" stroke-opacity="1" stroke-width="1" stroke-linecap="square" stroke-linejoin="bevel" transform="matrix(0,1,-1,0,436,76)" font-family=".SF NS Text" font-size="13pt" font-weight="400" font-style="normal"  > <circle cx="5" cy="5" r="5"/> </g>                  <g fill="none" stroke="#000000" stroke-opacity="1" stroke-width="1" stroke-linecap="butt" stroke-linejoin="bevel" transform="matrix(0,1,-1,0,471,86)" font-family=".SF NS Text" font-size="13pt" font-weight="400" font-style="normal"  > <polyline fill="none" vector-effect="non-scaling-stroke" points="10,5 10,25 " /> </g>                  <g fill="#ffa07a" fill-opacity="1" stroke="#ffa07a" stroke-opacity="1" stroke-width="1" stroke-linecap="square" stroke-linejoin="bevel" transform="matrix(0,1,-1,0,461,86)" font-family=".SF NS Text" font-size="13pt" font-weight="400" font-style="normal"  > <circle cx="5" cy="5" r="5"/> </g>                        <g fill="none" stroke="#000000" stroke-opacity="1" stroke-width="1" stroke-linecap="butt" stroke-linejoin="bevel" transform="matrix(0,1,-1,0,471,96)" font-family=".SF NS Text" font-size="13pt" font-weight="400" font-style="normal"  > <polyline fill="none" vector-effect="non-scaling-stroke" points="0,5 45,5 " /> </g>      <g fill="#000000" fill-opacity="1" stroke="#000000" stroke-opacity="1" stroke-width="1" stroke-linecap="square" stroke-linejoin="bevel" transform="matrix(0,1,-1,0,471,141)" font-family=".SF NS Text" font-size="13pt" font-weight="400" font-style="normal"  > <circle cx="5" cy="5" r="5"/> </g>                  <g fill="none" stroke="#000000" stroke-opacity="1" stroke-width="1" stroke-linecap="butt" stroke-linejoin="bevel" transform="matrix(0,1,-1,0,461,96)" font-family=".SF NS Text" font-size="13pt" font-weight="400" font-style="normal"  > <polyline fill="none" vector-effect="non-scaling-stroke" points="55,5 55,25 " /> </g>            <g fill="none" stroke="#000000" stroke-opacity="1" stroke-width="1" stroke-linecap="butt" stroke-linejoin="bevel" transform="matrix(0,1,-1,0,461,96)" font-family=".SF NS Text" font-size="13pt" font-weight="400" font-style="normal"  > <polyline fill="none" vector-effect="non-scaling-stroke" points="0,15 45,15 " /> </g>      <g fill="#f5deb3" fill-opacity="1" stroke="#f5deb3" stroke-opacity="1" stroke-width="1" stroke-linecap="square" stroke-linejoin="bevel" transform="matrix(0,1,-1,0,451,141)" font-family=".SF NS Text" font-size="13pt" font-weight="400" font-style="normal"  > <circle cx="5" cy="5" r="5"/> </g>                              <g fill="#f5deb3" fill-opacity="1" stroke="#f5deb3" stroke-opacity="1" stroke-width="1" stroke-linecap="square" stroke-linejoin="bevel" transform="matrix(0,1,-1,0,461,151)" font-family=".SF NS Text" font-size="13pt" font-weight="400" font-style="normal"  > <circle cx="5" cy="5" r="5"/> </g>                              <g fill="#f5deb3" fill-opacity="1" stroke="#f5deb3" stroke-opacity="1" stroke-width="1" stroke-linecap="square" stroke-linejoin="bevel" transform="matrix(0,1,-1,0,451,151)" font-family=".SF NS Text" font-size="13pt" font-weight="400" font-style="normal"  > <circle cx="5" cy="5" r="5"/> </g>                        <g fill="none" stroke="#000000" stroke-opacity="1" stroke-width="1" stroke-linecap="butt" stroke-linejoin="bevel" transform="matrix(0,1,-1,0,441,151)" font-family=".SF NS Text" font-size="13pt" font-weight="400" font-style="normal"  > <polyline fill="none" vector-effect="non-scaling-stroke" points="0,5 45,5 " /> </g>      <g fill="#ff1493" fill-opacity="1" stroke="#ff1493" stroke-opacity="1" stroke-width="1" stroke-linecap="square" stroke-linejoin="bevel" transform="matrix(0,1,-1,0,441,196)" font-family=".SF NS Text" font-size="13pt" font-weight="400" font-style="normal"  > <circle cx="5" cy="5" r="5"/> </g>                  <g fill="none" stroke="#000000" stroke-opacity="1" stroke-width="1" stroke-linecap="butt" stroke-linejoin="bevel" transform="matrix(0,1,-1,0,431,86)" font-family=".SF NS Text" font-size="13pt" font-weight="400" font-style="normal"  > <polyline fill="none" vector-effect="non-scaling-stroke" points="10,5 10,45 " /> </g>                  <g fill="#ffa07a" fill-opacity="1" stroke="#ffa07a" stroke-opacity="1" stroke-width="1" stroke-linecap="square" stroke-linejoin="bevel" transform="matrix(0,1,-1,0,411,86)" font-family=".SF NS Text" font-size="13pt" font-weight="400" font-style="normal"  > <circle cx="5" cy="5" r="5"/> </g>                        <g fill="none" stroke="#000000" stroke-opacity="1" stroke-width="1" stroke-linecap="butt" stroke-linejoin="bevel" transform="matrix(0,1,-1,0,431,96)" font-family=".SF NS Text" font-size="13pt" font-weight="400" font-style="normal"  > <polyline fill="none" vector-effect="non-scaling-stroke" points="0,5 90,5 " /> </g>      <g fill="#5f9ea0" fill-opacity="1" stroke="#5f9ea0" stroke-opacity="1" stroke-width="1" stroke-linecap="square" stroke-linejoin="bevel" transform="matrix(0,1,-1,0,431,186)" font-family=".SF NS Text" font-size="13pt" font-weight="400" font-style="normal"  > <circle cx="5" cy="5" r="5"/> </g>                  <g fill="none" stroke="#000000" stroke-opacity="1" stroke-width="1" stroke-linecap="butt" stroke-linejoin="bevel" transform="matrix(0,1,-1,0,421,96)" font-family=".SF NS Text" font-size="13pt" font-weight="400" font-style="normal"  > <polyline fill="none" vector-effect="non-scaling-stroke" points="10,5 10,15 " /> </g>                  <g fill="#ffa07a" fill-opacity="1" stroke="#ffa07a" stroke-opacity="1" stroke-width="1" stroke-linecap="square" stroke-linejoin="bevel" transform="matrix(0,1,-1,0,416,96)" font-family=".SF NS Text" font-size="13pt" font-weight="400" font-style="normal"  > <circle cx="5" cy="5" r="5"/> </g>                              <g fill="#ffa07a" fill-opacity="1" stroke="#ffa07a" stroke-opacity="1" stroke-width="1" stroke-linecap="square" stroke-linejoin="bevel" transform="matrix(0,1,-1,0,421,106)" font-family=".SF NS Text" font-size="13pt" font-weight="400" font-style="normal"  > <circle cx="5" cy="5" r="5"/> </g>                              <g fill="#ffa07a" fill-opacity="1" stroke="#ffa07a" stroke-opacity="1" stroke-width="1" stroke-linecap="square" stroke-linejoin="bevel" transform="matrix(0,1,-1,0,411,106)" font-family=".SF NS Text" font-size="13pt" font-weight="400" font-style="normal"  > <circle cx="5" cy="5" r="5"/> </g>                  <g fill="none" stroke="#000000" stroke-opacity="1" stroke-width="1" stroke-linecap="butt" stroke-linejoin="bevel" transform="matrix(0,1,-1,0,401,96)" font-family=".SF NS Text" font-size="13pt" font-weight="400" font-style="normal"  > <polyline fill="none" vector-effect="non-scaling-stroke" points="10,5 10,25 " /> </g>                  <g fill="#ffa07a" fill-opacity="1" stroke="#ffa07a" stroke-opacity="1" stroke-width="1" stroke-linecap="square" stroke-linejoin="bevel" transform="matrix(0,1,-1,0,391,96)" font-family=".SF NS Text" font-size="13pt" font-weight="400" font-style="normal"  > <circle cx="5" cy="5" r="5"/> </g>                              <g fill="#ffa07a" fill-opacity="1" stroke="#ffa07a" stroke-opacity="1" stroke-width="1" stroke-linecap="square" stroke-linejoin="bevel" transform="matrix(0,1,-1,0,401,106)" font-family=".SF NS Text" font-size="13pt" font-weight="400" font-style="normal"  > <circle cx="5" cy="5" r="5"/> </g>                              <g fill="#ffa07a" fill-opacity="1" stroke="#ffa07a" stroke-opacity="1" stroke-width="1" stroke-linecap="square" stroke-linejoin="bevel" transform="matrix(0,1,-1,0,391,106)" font-family=".SF NS Text" font-size="13pt" font-weight="400" font-style="normal"  > <circle cx="5" cy="5" r="5"/> </g>                              <g fill="#ffa07a" fill-opacity="1" stroke="#ffa07a" stroke-opacity="1" stroke-width="1" stroke-linecap="square" stroke-linejoin="bevel" transform="matrix(0,1,-1,0,381,106)" font-family=".SF NS Text" font-size="13pt" font-weight="400" font-style="normal"  > <circle cx="5" cy="5" r="5"/> </g>                  <g fill="none" stroke="#000000" stroke-opacity="1" stroke-width="1" stroke-linecap="butt" stroke-linejoin="bevel" transform="matrix(0,1,-1,0,371,66)" font-family=".SF NS Text" font-size="13pt" font-weight="400" font-style="normal"  > <polyline fill="none" vector-effect="non-scaling-stroke" points="10,22.5 10,241.563 " /> </g>                  <g fill="#ffa07a" fill-opacity="1" stroke="#ffa07a" stroke-opacity="1" stroke-width="1" stroke-linecap="square" stroke-linejoin="bevel" transform="matrix(0,1,-1,0,243.969,66)" font-family=".SF NS Text" font-size="13pt" font-weight="400" font-style="normal"  > <circle cx="5" cy="5" r="5"/> </g>                  <g fill="none" stroke="#000000" stroke-opacity="1" stroke-width="1" stroke-linecap="butt" stroke-linejoin="bevel" transform="matrix(0,1,-1,0,371,76)" font-family=".SF NS Text" font-size="13pt" font-weight="400" font-style="normal"  > <polyline fill="none" vector-effect="non-scaling-stroke" points="100,5 100,40 " /> </g>            <g fill="none" stroke="#000000" stroke-opacity="1" stroke-width="1" stroke-linecap="butt" stroke-linejoin="bevel" transform="matrix(0,1,-1,0,371,76)" font-family=".SF NS Text" font-size="13pt" font-weight="400" font-style="normal"  > <polyline fill="none" vector-effect="non-scaling-stroke" points="0,22.5 90,22.5 " /> </g>      <g fill="#a0522d" fill-opacity="1" stroke="#a0522d" stroke-opacity="1" stroke-width="1" stroke-linecap="square" stroke-linejoin="bevel" transform="matrix(0,1,-1,0,353.5,166)" font-family=".SF NS Text" font-size="13pt" font-weight="400" font-style="normal"  > <circle cx="5" cy="5" r="5"/> </g>                              <g fill="#a0522d" fill-opacity="1" stroke="#a0522d" stroke-opacity="1" stroke-width="1" stroke-linecap="square" stroke-linejoin="bevel" transform="matrix(0,1,-1,0,371,176)" font-family=".SF NS Text" font-size="13pt" font-weight="400" font-style="normal"  > <circle cx="5" cy="5" r="5"/> </g>                  <g fill="none" stroke="#000000" stroke-opacity="1" stroke-width="1" stroke-linecap="butt" stroke-linejoin="bevel" transform="matrix(0,1,-1,0,361,176)" font-family=".SF NS Text" font-size="13pt" font-weight="400" font-style="normal"  > <polyline fill="none" vector-effect="non-scaling-stroke" points="10,5 10,15 " /> </g>                  <g fill="#a0522d" fill-opacity="1" stroke="#a0522d" stroke-opacity="1" stroke-width="1" stroke-linecap="square" stroke-linejoin="bevel" transform="matrix(0,1,-1,0,356,176)" font-family=".SF NS Text" font-size="13pt" font-weight="400" font-style="normal"  > <circle cx="5" cy="5" r="5"/> </g>                              <g fill="#a0522d" fill-opacity="1" stroke="#a0522d" stroke-opacity="1" stroke-width="1" stroke-linecap="square" stroke-linejoin="bevel" transform="matrix(0,1,-1,0,361,186)" font-family=".SF NS Text" font-size="13pt" font-weight="400" font-style="normal"  > <circle cx="5" cy="5" r="5"/> </g>                              <g fill="#a0522d" fill-opacity="1" stroke="#a0522d" stroke-opacity="1" stroke-width="1" stroke-linecap="square" stroke-linejoin="bevel" transform="matrix(0,1,-1,0,351,186)" font-family=".SF NS Text" font-size="13pt" font-weight="400" font-style="normal"  > <circle cx="5" cy="5" r="5"/> </g>                  <g fill="none" stroke="#000000" stroke-opacity="1" stroke-width="1" stroke-linecap="butt" stroke-linejoin="bevel" transform="matrix(0,1,-1,0,341,176)" font-family=".SF NS Text" font-size="13pt" font-weight="400" font-style="normal"  > <polyline fill="none" vector-effect="non-scaling-stroke" points="10,5 10,15 " /> </g>                  <g fill="#a0522d" fill-opacity="1" stroke="#a0522d" stroke-opacity="1" stroke-width="1" stroke-linecap="square" stroke-linejoin="bevel" transform="matrix(0,1,-1,0,336,176)" font-family=".SF NS Text" font-size="13pt" font-weight="400" font-style="normal"  > <circle cx="5" cy="5" r="5"/> </g>                              <g fill="#a0522d" fill-opacity="1" stroke="#a0522d" stroke-opacity="1" stroke-width="1" stroke-linecap="square" stroke-linejoin="bevel" transform="matrix(0,1,-1,0,341,186)" font-family=".SF NS Text" font-size="13pt" font-weight="400" font-style="normal"  > <circle cx="5" cy="5" r="5"/> </g>                        <g fill="none" stroke="#000000" stroke-opacity="1" stroke-width="1" stroke-linecap="butt" stroke-linejoin="bevel" transform="matrix(0,1,-1,0,331,186)" font-family=".SF NS Text" font-size="13pt" font-weight="400" font-style="normal"  > <polyline fill="none" vector-effect="non-scaling-stroke" points="0,5 45,5 " /> </g>      <g fill="#deb887" fill-opacity="1" stroke="#deb887" stroke-opacity="1" stroke-width="1" stroke-linecap="square" stroke-linejoin="bevel" transform="matrix(0,1,-1,0,331,231)" font-family=".SF NS Text" font-size="13pt" font-weight="400" font-style="normal"  > <circle cx="5" cy="5" r="5"/> </g>                  <g fill="none" stroke="#000000" stroke-opacity="1" stroke-width="1" stroke-linecap="butt" stroke-linejoin="bevel" transform="matrix(0,1,-1,0,321,76)" font-family=".SF NS Text" font-size="13pt" font-weight="400" font-style="normal"  > <polyline fill="none" vector-effect="non-scaling-stroke" points="10,32.5 10,97.5 " /> </g>                  <g fill="#ffa07a" fill-opacity="1" stroke="#ffa07a" stroke-opacity="1" stroke-width="1" stroke-linecap="square" stroke-linejoin="bevel" transform="matrix(0,1,-1,0,261,76)" font-family=".SF NS Text" font-size="13pt" font-weight="400" font-style="normal"  > <circle cx="5" cy="5" r="5"/> </g>                  <g fill="none" stroke="#000000" stroke-opacity="1" stroke-width="1" stroke-linecap="butt" stroke-linejoin="bevel" transform="matrix(0,1,-1,0,321,86)" font-family=".SF NS Text" font-size="13pt" font-weight="400" font-style="normal"  > <polyline fill="none" vector-effect="non-scaling-stroke" points="10,10 10,55 " /> </g>                  <g fill="#ffa07a" fill-opacity="1" stroke="#ffa07a" stroke-opacity="1" stroke-width="1" stroke-linecap="square" stroke-linejoin="bevel" transform="matrix(0,1,-1,0,293.5,86)" font-family=".SF NS Text" font-size="13pt" font-weight="400" font-style="normal"  > <circle cx="5" cy="5" r="5"/> </g>                  <g fill="none" stroke="#000000" stroke-opacity="1" stroke-width="1" stroke-linecap="butt" stroke-linejoin="bevel" transform="matrix(0,1,-1,0,321,96)" font-family=".SF NS Text" font-size="13pt" font-weight="400" font-style="normal"  > <polyline fill="none" vector-effect="non-scaling-stroke" points="10,5 10,15 " /> </g>                  <g fill="#ffa07a" fill-opacity="1" stroke="#ffa07a" stroke-opacity="1" stroke-width="1" stroke-linecap="square" stroke-linejoin="bevel" transform="matrix(0,1,-1,0,316,96)" font-family=".SF NS Text" font-size="13pt" font-weight="400" font-style="normal"  > <circle cx="5" cy="5" r="5"/> </g>                        <g fill="none" stroke="#000000" stroke-opacity="1" stroke-width="1" stroke-linecap="butt" stroke-linejoin="bevel" transform="matrix(0,1,-1,0,321,106)" font-family=".SF NS Text" font-size="13pt" font-weight="400" font-style="normal"  > <polyline fill="none" vector-effect="non-scaling-stroke" points="0,5 45,5 " /> </g>      <g fill="#0000ff" fill-opacity="1" stroke="#0000ff" stroke-opacity="1" stroke-width="1" stroke-linecap="square" stroke-linejoin="bevel" transform="matrix(0,1,-1,0,321,151)" font-family=".SF NS Text" font-size="13pt" font-weight="400" font-style="normal"  > <circle cx="5" cy="5" r="5"/> </g>                              <g fill="#ffa07a" fill-opacity="1" stroke="#ffa07a" stroke-opacity="1" stroke-width="1" stroke-linecap="square" stroke-linejoin="bevel" transform="matrix(0,1,-1,0,311,106)" font-family=".SF NS Text" font-size="13pt" font-weight="400" font-style="normal"  > <circle cx="5" cy="5" r="5"/> </g>                  <g fill="none" stroke="#000000" stroke-opacity="1" stroke-width="1" stroke-linecap="butt" stroke-linejoin="bevel" transform="matrix(0,1,-1,0,301,96)" font-family=".SF NS Text" font-size="13pt" font-weight="400" font-style="normal"  > <polyline fill="none" vector-effect="non-scaling-stroke" points="10,5 10,15 " /> </g>                  <g fill="#ffa07a" fill-opacity="1" stroke="#ffa07a" stroke-opacity="1" stroke-width="1" stroke-linecap="square" stroke-linejoin="bevel" transform="matrix(0,1,-1,0,296,96)" font-family=".SF NS Text" font-size="13pt" font-weight="400" font-style="normal"  > <circle cx="5" cy="5" r="5"/> </g>                              <g fill="#ffa07a" fill-opacity="1" stroke="#ffa07a" stroke-opacity="1" stroke-width="1" stroke-linecap="square" stroke-linejoin="bevel" transform="matrix(0,1,-1,0,301,106)" font-family=".SF NS Text" font-size="13pt" font-weight="400" font-style="normal"  > <circle cx="5" cy="5" r="5"/> </g>                              <g fill="#ffa07a" fill-opacity="1" stroke="#ffa07a" stroke-opacity="1" stroke-width="1" stroke-linecap="square" stroke-linejoin="bevel" transform="matrix(0,1,-1,0,291,106)" font-family=".SF NS Text" font-size="13pt" font-weight="400" font-style="normal"  > <circle cx="5" cy="5" r="5"/> </g>                  <g fill="none" stroke="#000000" stroke-opacity="1" stroke-width="1" stroke-linecap="butt" stroke-linejoin="bevel" transform="matrix(0,1,-1,0,281,96)" font-family=".SF NS Text" font-size="13pt" font-weight="400" font-style="normal"  > <polyline fill="none" vector-effect="non-scaling-stroke" points="10,5 10,25 " /> </g>                  <g fill="#ffa07a" fill-opacity="1" stroke="#ffa07a" stroke-opacity="1" stroke-width="1" stroke-linecap="square" stroke-linejoin="bevel" transform="matrix(0,1,-1,0,271,96)" font-family=".SF NS Text" font-size="13pt" font-weight="400" font-style="normal"  > <circle cx="5" cy="5" r="5"/> </g>                              <g fill="#ffa07a" fill-opacity="1" stroke="#ffa07a" stroke-opacity="1" stroke-width="1" stroke-linecap="square" stroke-linejoin="bevel" transform="matrix(0,1,-1,0,281,106)" font-family=".SF NS Text" font-size="13pt" font-weight="400" font-style="normal"  > <circle cx="5" cy="5" r="5"/> </g>                              <g fill="#ffa07a" fill-opacity="1" stroke="#ffa07a" stroke-opacity="1" stroke-width="1" stroke-linecap="square" stroke-linejoin="bevel" transform="matrix(0,1,-1,0,271,106)" font-family=".SF NS Text" font-size="13pt" font-weight="400" font-style="normal"  > <circle cx="5" cy="5" r="5"/> </g>                              <g fill="#ffa07a" fill-opacity="1" stroke="#ffa07a" stroke-opacity="1" stroke-width="1" stroke-linecap="square" stroke-linejoin="bevel" transform="matrix(0,1,-1,0,261,106)" font-family=".SF NS Text" font-size="13pt" font-weight="400" font-style="normal"  > <circle cx="5" cy="5" r="5"/> </g>                  <g fill="none" stroke="#000000" stroke-opacity="1" stroke-width="1" stroke-linecap="butt" stroke-linejoin="bevel" transform="matrix(0,1,-1,0,251,86)" font-family=".SF NS Text" font-size="13pt" font-weight="400" font-style="normal"  > <polyline fill="none" vector-effect="non-scaling-stroke" points="10,10 10,45 " /> </g>                  <g fill="#ffa07a" fill-opacity="1" stroke="#ffa07a" stroke-opacity="1" stroke-width="1" stroke-linecap="square" stroke-linejoin="bevel" transform="matrix(0,1,-1,0,228.5,86)" font-family=".SF NS Text" font-size="13pt" font-weight="400" font-style="normal"  > <circle cx="5" cy="5" r="5"/> </g>                  <g fill="none" stroke="#000000" stroke-opacity="1" stroke-width="1" stroke-linecap="butt" stroke-linejoin="bevel" transform="matrix(0,1,-1,0,251,96)" font-family=".SF NS Text" font-size="13pt" font-weight="400" font-style="normal"  > <polyline fill="none" vector-effect="non-scaling-stroke" points="10,5 10,15 " /> </g>                  <g fill="#ffa07a" fill-opacity="1" stroke="#ffa07a" stroke-opacity="1" stroke-width="1" stroke-linecap="square" stroke-linejoin="bevel" transform="matrix(0,1,-1,0,246,96)" font-family=".SF NS Text" font-size="13pt" font-weight="400" font-style="normal"  > <circle cx="5" cy="5" r="5"/> </g>                              <g fill="#ffa07a" fill-opacity="1" stroke="#ffa07a" stroke-opacity="1" stroke-width="1" stroke-linecap="square" stroke-linejoin="bevel" transform="matrix(0,1,-1,0,251,106)" font-family=".SF NS Text" font-size="13pt" font-weight="400" font-style="normal"  > <circle cx="5" cy="5" r="5"/> </g>                              <g fill="#ffa07a" fill-opacity="1" stroke="#ffa07a" stroke-opacity="1" stroke-width="1" stroke-linecap="square" stroke-linejoin="bevel" transform="matrix(0,1,-1,0,241,106)" font-family=".SF NS Text" font-size="13pt" font-weight="400" font-style="normal"  > <circle cx="5" cy="5" r="5"/> </g>                  <g fill="none" stroke="#000000" stroke-opacity="1" stroke-width="1" stroke-linecap="butt" stroke-linejoin="bevel" transform="matrix(0,1,-1,0,231,96)" font-family=".SF NS Text" font-size="13pt" font-weight="400" font-style="normal"  > <polyline fill="none" vector-effect="non-scaling-stroke" points="10,10 10,40 " /> </g>                  <g fill="#ffa07a" fill-opacity="1" stroke="#ffa07a" stroke-opacity="1" stroke-width="1" stroke-linecap="square" stroke-linejoin="bevel" transform="matrix(0,1,-1,0,211,96)" font-family=".SF NS Text" font-size="13pt" font-weight="400" font-style="normal"  > <circle cx="5" cy="5" r="5"/> </g>                  <g fill="none" stroke="#000000" stroke-opacity="1" stroke-width="1" stroke-linecap="butt" stroke-linejoin="bevel" transform="matrix(0,1,-1,0,231,106)" font-family=".SF NS Text" font-size="13pt" font-weight="400" font-style="normal"  > <polyline fill="none" vector-effect="non-scaling-stroke" points="10,5 10,15 " /> </g>                  <g fill="#ffa07a" fill-opacity="1" stroke="#ffa07a" stroke-opacity="1" stroke-width="1" stroke-linecap="square" stroke-linejoin="bevel" transform="matrix(0,1,-1,0,226,106)" font-family=".SF NS Text" font-size="13pt" font-weight="400" font-style="normal"  > <circle cx="5" cy="5" r="5"/> </g>                        <g fill="none" stroke="#000000" stroke-opacity="1" stroke-width="1" stroke-linecap="butt" stroke-linejoin="bevel" transform="matrix(0,1,-1,0,231,116)" font-family=".SF NS Text" font-size="13pt" font-weight="400" font-style="normal"  > <polyline fill="none" vector-effect="non-scaling-stroke" points="0,5 45,5 " /> </g>      <g fill="#dcdcdc" fill-opacity="1" stroke="#dcdcdc" stroke-opacity="1" stroke-width="1" stroke-linecap="square" stroke-linejoin="bevel" transform="matrix(0,1,-1,0,231,161)" font-family=".SF NS Text" font-size="13pt" font-weight="400" font-style="normal"  > <circle cx="5" cy="5" r="5"/> </g>                              <g fill="#ffa07a" fill-opacity="1" stroke="#ffa07a" stroke-opacity="1" stroke-width="1" stroke-linecap="square" stroke-linejoin="bevel" transform="matrix(0,1,-1,0,221,116)" font-family=".SF NS Text" font-size="13pt" font-weight="400" font-style="normal"  > <circle cx="5" cy="5" r="5"/> </g>                  <g fill="none" stroke="#000000" stroke-opacity="1" stroke-width="1" stroke-linecap="butt" stroke-linejoin="bevel" transform="matrix(0,1,-1,0,211,106)" font-family=".SF NS Text" font-size="13pt" font-weight="400" font-style="normal"  > <polyline fill="none" vector-effect="non-scaling-stroke" points="10,5 10,35 " /> </g>                  <g fill="#ffa07a" fill-opacity="1" stroke="#ffa07a" stroke-opacity="1" stroke-width="1" stroke-linecap="square" stroke-linejoin="bevel" transform="matrix(0,1,-1,0,196,106)" font-family=".SF NS Text" font-size="13pt" font-weight="400" font-style="normal"  > <circle cx="5" cy="5" r="5"/> </g>                              <g fill="#ffa07a" fill-opacity="1" stroke="#ffa07a" stroke-opacity="1" stroke-width="1" stroke-linecap="square" stroke-linejoin="bevel" transform="matrix(0,1,-1,0,211,116)" font-family=".SF NS Text" font-size="13pt" font-weight="400" font-style="normal"  > <circle cx="5" cy="5" r="5"/> </g>                              <g fill="#ffa07a" fill-opacity="1" stroke="#ffa07a" stroke-opacity="1" stroke-width="1" stroke-linecap="square" stroke-linejoin="bevel" transform="matrix(0,1,-1,0,201,116)" font-family=".SF NS Text" font-size="13pt" font-weight="400" font-style="normal"  > <circle cx="5" cy="5" r="5"/> </g>                              <g fill="#ffa07a" fill-opacity="1" stroke="#ffa07a" stroke-opacity="1" stroke-width="1" stroke-linecap="square" stroke-linejoin="bevel" transform="matrix(0,1,-1,0,191,116)" font-family=".SF NS Text" font-size="13pt" font-weight="400" font-style="normal"  > <circle cx="5" cy="5" r="5"/> </g>                              <g fill="#ffa07a" fill-opacity="1" stroke="#ffa07a" stroke-opacity="1" stroke-width="1" stroke-linecap="square" stroke-linejoin="bevel" transform="matrix(0,1,-1,0,181,116)" font-family=".SF NS Text" font-size="13pt" font-weight="400" font-style="normal"  > <circle cx="5" cy="5" r="5"/> </g>                  <g fill="none" stroke="#000000" stroke-opacity="1" stroke-width="1" stroke-linecap="butt" stroke-linejoin="bevel" transform="matrix(0,1,-1,0,171,76)" font-family=".SF NS Text" font-size="13pt" font-weight="400" font-style="normal"  > <polyline fill="none" vector-effect="non-scaling-stroke" points="10,10 10,73.125 " /> </g>                  <g fill="#ffa07a" fill-opacity="1" stroke="#ffa07a" stroke-opacity="1" stroke-width="1" stroke-linecap="square" stroke-linejoin="bevel" transform="matrix(0,1,-1,0,134.438,76)" font-family=".SF NS Text" font-size="13pt" font-weight="400" font-style="normal"  > <circle cx="5" cy="5" r="5"/> </g>                  <g fill="none" stroke="#000000" stroke-opacity="1" stroke-width="1" stroke-linecap="butt" stroke-linejoin="bevel" transform="matrix(0,1,-1,0,171,86)" font-family=".SF NS Text" font-size="13pt" font-weight="400" font-style="normal"  > <polyline fill="none" vector-effect="non-scaling-stroke" points="10,5 10,15 " /> </g>                  <g fill="#ffa07a" fill-opacity="1" stroke="#ffa07a" stroke-opacity="1" stroke-width="1" stroke-linecap="square" stroke-linejoin="bevel" transform="matrix(0,1,-1,0,166,86)" font-family=".SF NS Text" font-size="13pt" font-weight="400" font-style="normal"  > <circle cx="5" cy="5" r="5"/> </g>                              <g fill="#ffa07a" fill-opacity="1" stroke="#ffa07a" stroke-opacity="1" stroke-width="1" stroke-linecap="square" stroke-linejoin="bevel" transform="matrix(0,1,-1,0,171,96)" font-family=".SF NS Text" font-size="13pt" font-weight="400" font-style="normal"  > <circle cx="5" cy="5" r="5"/> </g>                              <g fill="#ffa07a" fill-opacity="1" stroke="#ffa07a" stroke-opacity="1" stroke-width="1" stroke-linecap="square" stroke-linejoin="bevel" transform="matrix(0,1,-1,0,161,96)" font-family=".SF NS Text" font-size="13pt" font-weight="400" font-style="normal"  > <circle cx="5" cy="5" r="5"/> </g>                  <g fill="none" stroke="#000000" stroke-opacity="1" stroke-width="1" stroke-linecap="butt" stroke-linejoin="bevel" transform="matrix(0,1,-1,0,151,86)" font-family=".SF NS Text" font-size="13pt" font-weight="400" font-style="normal"  > <polyline fill="none" vector-effect="non-scaling-stroke" points="10,5 10,20 " /> </g>                  <g fill="#ffa07a" fill-opacity="1" stroke="#ffa07a" stroke-opacity="1" stroke-width="1" stroke-linecap="square" stroke-linejoin="bevel" transform="matrix(0,1,-1,0,143.5,86)" font-family=".SF NS Text" font-size="13pt" font-weight="400" font-style="normal"  > <circle cx="5" cy="5" r="5"/> </g>                              <g fill="#ffa07a" fill-opacity="1" stroke="#ffa07a" stroke-opacity="1" stroke-width="1" stroke-linecap="square" stroke-linejoin="bevel" transform="matrix(0,1,-1,0,151,96)" font-family=".SF NS Text" font-size="13pt" font-weight="400" font-style="normal"  > <circle cx="5" cy="5" r="5"/> </g>                  <g fill="none" stroke="#000000" stroke-opacity="1" stroke-width="1" stroke-linecap="butt" stroke-linejoin="bevel" transform="matrix(0,1,-1,0,141,96)" font-family=".SF NS Text" font-size="13pt" font-weight="400" font-style="normal"  > <polyline fill="none" vector-effect="non-scaling-stroke" points="10,5 10,15 " /> </g>                  <g fill="#ffa07a" fill-opacity="1" stroke="#ffa07a" stroke-opacity="1" stroke-width="1" stroke-linecap="square" stroke-linejoin="bevel" transform="matrix(0,1,-1,0,136,96)" font-family=".SF NS Text" font-size="13pt" font-weight="400" font-style="normal"  > <circle cx="5" cy="5" r="5"/> </g>                        <g fill="none" stroke="#000000" stroke-opacity="1" stroke-width="1" stroke-linecap="butt" stroke-linejoin="bevel" transform="matrix(0,1,-1,0,141,106)" font-family=".SF NS Text" font-size="13pt" font-weight="400" font-style="normal"  > <polyline fill="none" vector-effect="non-scaling-stroke" points="0,5 45,5 " /> </g>      <g fill="#add8e6" fill-opacity="1" stroke="#add8e6" stroke-opacity="1" stroke-width="1" stroke-linecap="square" stroke-linejoin="bevel" transform="matrix(0,1,-1,0,141,151)" font-family=".SF NS Text" font-size="13pt" font-weight="400" font-style="normal"  > <circle cx="5" cy="5" r="5"/> </g>                              <g fill="#ffa07a" fill-opacity="1" stroke="#ffa07a" stroke-opacity="1" stroke-width="1" stroke-linecap="square" stroke-linejoin="bevel" transform="matrix(0,1,-1,0,131,106)" font-family=".SF NS Text" font-size="13pt" font-weight="400" font-style="normal"  > <circle cx="5" cy="5" r="5"/> </g>                  <g fill="none" stroke="#000000" stroke-opacity="1" stroke-width="1" stroke-linecap="butt" stroke-linejoin="bevel" transform="matrix(0,1,-1,0,121,86)" font-family=".SF NS Text" font-size="13pt" font-weight="400" font-style="normal"  > <polyline fill="none" vector-effect="non-scaling-stroke" points="10,5 10,41.25 " /> </g>                  <g fill="#ffa07a" fill-opacity="1" stroke="#ffa07a" stroke-opacity="1" stroke-width="1" stroke-linecap="square" stroke-linejoin="bevel" transform="matrix(0,1,-1,0,102.875,86)" font-family=".SF NS Text" font-size="13pt" font-weight="400" font-style="normal"  > <circle cx="5" cy="5" r="5"/> </g>                              <g fill="#ffa07a" fill-opacity="1" stroke="#ffa07a" stroke-opacity="1" stroke-width="1" stroke-linecap="square" stroke-linejoin="bevel" transform="matrix(0,1,-1,0,121,96)" font-family=".SF NS Text" font-size="13pt" font-weight="400" font-style="normal"  > <circle cx="5" cy="5" r="5"/> </g>                  <g fill="none" stroke="#000000" stroke-opacity="1" stroke-width="1" stroke-linecap="butt" stroke-linejoin="bevel" transform="matrix(0,1,-1,0,111,96)" font-family=".SF NS Text" font-size="13pt" font-weight="400" font-style="normal"  > <polyline fill="none" vector-effect="non-scaling-stroke" points="10,5 10,57.5 " /> </g>                  <g fill="#ffa07a" fill-opacity="1" stroke="#ffa07a" stroke-opacity="1" stroke-width="1" stroke-linecap="square" stroke-linejoin="bevel" transform="matrix(0,1,-1,0,84.75,96)" font-family=".SF NS Text" font-size="13pt" font-weight="400" font-style="normal"  > <circle cx="5" cy="5" r="5"/> </g>                              <g fill="#ffa07a" fill-opacity="1" stroke="#ffa07a" stroke-opacity="1" stroke-width="1" stroke-linecap="square" stroke-linejoin="bevel" transform="matrix(0,1,-1,0,111,106)" font-family=".SF NS Text" font-size="13pt" font-weight="400" font-style="normal"  > <circle cx="5" cy="5" r="5"/> </g>                  <g fill="none" stroke="#000000" stroke-opacity="1" stroke-width="1" stroke-linecap="butt" stroke-linejoin="bevel" transform="matrix(0,1,-1,0,101,106)" font-family=".SF NS Text" font-size="13pt" font-weight="400" font-style="normal"  > <polyline fill="none" vector-effect="non-scaling-stroke" points="10,10 10,85 " /> </g>                  <g fill="#ffa07a" fill-opacity="1" stroke="#ffa07a" stroke-opacity="1" stroke-width="1" stroke-linecap="square" stroke-linejoin="bevel" transform="matrix(0,1,-1,0,58.5,106)" font-family=".SF NS Text" font-size="13pt" font-weight="400" font-style="normal"  > <circle cx="5" cy="5" r="5"/> </g>                  <g fill="none" stroke="#000000" stroke-opacity="1" stroke-width="1" stroke-linecap="butt" stroke-linejoin="bevel" transform="matrix(0,1,-1,0,101,116)" font-family=".SF NS Text" font-size="13pt" font-weight="400" font-style="normal"  > <polyline fill="none" vector-effect="non-scaling-stroke" points="10,5 10,15 " /> </g>                  <g fill="#ffa07a" fill-opacity="1" stroke="#ffa07a" stroke-opacity="1" stroke-width="1" stroke-linecap="square" stroke-linejoin="bevel" transform="matrix(0,1,-1,0,96,116)" font-family=".SF NS Text" font-size="13pt" font-weight="400" font-style="normal"  > <circle cx="5" cy="5" r="5"/> </g>                              <g fill="#ffa07a" fill-opacity="1" stroke="#ffa07a" stroke-opacity="1" stroke-width="1" stroke-linecap="square" stroke-linejoin="bevel" transform="matrix(0,1,-1,0,101,126)" font-family=".SF NS Text" font-size="13pt" font-weight="400" font-style="normal"  > <circle cx="5" cy="5" r="5"/> </g>                              <g fill="#ffa07a" fill-opacity="1" stroke="#ffa07a" stroke-opacity="1" stroke-width="1" stroke-linecap="square" stroke-linejoin="bevel" transform="matrix(0,1,-1,0,91,126)" font-family=".SF NS Text" font-size="13pt" font-weight="400" font-style="normal"  > <circle cx="5" cy="5" r="5"/> </g>                  <g fill="none" stroke="#000000" stroke-opacity="1" stroke-width="1" stroke-linecap="butt" stroke-linejoin="bevel" transform="matrix(0,1,-1,0,81,116)" font-family=".SF NS Text" font-size="13pt" font-weight="400" font-style="normal"  > <polyline fill="none" vector-effect="non-scaling-stroke" points="55,5 55,15 " /> </g>            <g fill="none" stroke="#000000" stroke-opacity="1" stroke-width="1" stroke-linecap="butt" stroke-linejoin="bevel" transform="matrix(0,1,-1,0,81,116)" font-family=".SF NS Text" font-size="13pt" font-weight="400" font-style="normal"  > <polyline fill="none" vector-effect="non-scaling-stroke" points="0,10 45,10 " /> </g>      <g fill="#7fff00" fill-opacity="1" stroke="#7fff00" stroke-opacity="1" stroke-width="1" stroke-linecap="square" stroke-linejoin="bevel" transform="matrix(0,1,-1,0,76,161)" font-family=".SF NS Text" font-size="13pt" font-weight="400" font-style="normal"  > <circle cx="5" cy="5" r="5"/> </g>                              <g fill="#7fff00" fill-opacity="1" stroke="#7fff00" stroke-opacity="1" stroke-width="1" stroke-linecap="square" stroke-linejoin="bevel" transform="matrix(0,1,-1,0,81,171)" font-family=".SF NS Text" font-size="13pt" font-weight="400" font-style="normal"  > <circle cx="5" cy="5" r="5"/> </g>                              <g fill="#7fff00" fill-opacity="1" stroke="#7fff00" stroke-opacity="1" stroke-width="1" stroke-linecap="square" stroke-linejoin="bevel" transform="matrix(0,1,-1,0,71,171)" font-family=".SF NS Text" font-size="13pt" font-weight="400" font-style="normal"  > <circle cx="5" cy="5" r="5"/> </g>                  <g fill="none" stroke="#000000" stroke-opacity="1" stroke-width="1" stroke-linecap="butt" stroke-linejoin="bevel" transform="matrix(0,1,-1,0,61,116)" font-family=".SF NS Text" font-size="13pt" font-weight="400" font-style="normal"  > <polyline fill="none" vector-effect="non-scaling-stroke" points="10,5 10,25 " /> </g>                  <g fill="#ffa07a" fill-opacity="1" stroke="#ffa07a" stroke-opacity="1" stroke-width="1" stroke-linecap="square" stroke-linejoin="bevel" transform="matrix(0,1,-1,0,51,116)" font-family=".SF NS Text" font-size="13pt" font-weight="400" font-style="normal"  > <circle cx="5" cy="5" r="5"/> </g>                              <g fill="#ffa07a" fill-opacity="1" stroke="#ffa07a" stroke-opacity="1" stroke-width="1" stroke-linecap="square" stroke-linejoin="bevel" transform="matrix(0,1,-1,0,61,126)" font-family=".SF NS Text" font-size="13pt" font-weight="400" font-style="normal"  > <circle cx="5" cy="5" r="5"/> </g>                              <g fill="#ffa07a" fill-opacity="1" stroke="#ffa07a" stroke-opacity="1" stroke-width="1" stroke-linecap="square" stroke-linejoin="bevel" transform="matrix(0,1,-1,0,51,126)" font-family=".SF NS Text" font-size="13pt" font-weight="400" font-style="normal"  > <circle cx="5" cy="5" r="5"/> </g>                              <g fill="#ffa07a" fill-opacity="1" stroke="#ffa07a" stroke-opacity="1" stroke-width="1" stroke-linecap="square" stroke-linejoin="bevel" transform="matrix(0,1,-1,0,41,126)" font-family=".SF NS Text" font-size="13pt" font-weight="400" font-style="normal"  > <circle cx="5" cy="5" r="5"/> </g>                  <g fill="none" stroke="#000000" stroke-opacity="1" stroke-width="1" stroke-linecap="butt" stroke-linejoin="bevel" transform="matrix(0,1,-1,0,31,116)" font-family=".SF NS Text" font-size="13pt" font-weight="400" font-style="normal"  > <polyline fill="none" vector-effect="non-scaling-stroke" points="10,5 10,25 " /> </g>                  <g fill="#ffa07a" fill-opacity="1" stroke="#ffa07a" stroke-opacity="1" stroke-width="1" stroke-linecap="square" stroke-linejoin="bevel" transform="matrix(0,1,-1,0,21,116)" font-family=".SF NS Text" font-size="13pt" font-weight="400" font-style="normal"  > <circle cx="5" cy="5" r="5"/> </g>                              <g fill="#ffa07a" fill-opacity="1" stroke="#ffa07a" stroke-opacity="1" stroke-width="1" stroke-linecap="square" stroke-linejoin="bevel" transform="matrix(0,1,-1,0,31,126)" font-family=".SF NS Text" font-size="13pt" font-weight="400" font-style="normal"  > <circle cx="5" cy="5" r="5"/> </g>                        <g fill="none" stroke="#000000" stroke-opacity="1" stroke-width="1" stroke-linecap="butt" stroke-linejoin="bevel" transform="matrix(0,1,-1,0,21,126)" font-family=".SF NS Text" font-size="13pt" font-weight="400" font-style="normal"  > <polyline fill="none" vector-effect="non-scaling-stroke" points="0,5 45,5 " /> </g>      <g fill="#f5f5f5" fill-opacity="1" stroke="#f5f5f5" stroke-opacity="1" stroke-width="1" stroke-linecap="square" stroke-linejoin="bevel" transform="matrix(0,1,-1,0,21,171)" font-family=".SF NS Text" font-size="13pt" font-weight="400" font-style="normal"  > <circle cx="5" cy="5" r="5"/> </g>                              <g fill="#ffa07a" fill-opacity="1" stroke="#ffa07a" stroke-opacity="1" stroke-width="1" stroke-linecap="square" stroke-linejoin="bevel" transform="matrix(0,1,-1,0,11,126)" font-family=".SF NS Text" font-size="13pt" font-weight="400" font-style="normal"  > <circle cx="5" cy="5" r="5"/> </g>                                                                                                                                                                                                                                                                                                                                                                         </g> </svg> 