<?xml version="1.0" encoding="UTF-8" standalone="no"?> <svg width="35.9833mm" height="81.8444mm"  viewBox="0 0 102 232"  xmlns="http://www.w3.org/2000/svg" xmlns:xlink="http://www.w3.org/1999/xlink"  version="1.2" baseProfile="tiny"> <title>Generated with ETE http://etetoolkit.org</title> <desc>Generated with ETE http://etetoolkit.org</desc> <defs> </defs> <g fill="none" stroke="black" stroke-width="1" fill-rule="evenodd" stroke-linecap="square" stroke-linejoin="bevel" >      <g fill="none" stroke="none" transform="matrix(1,0,0,1,-64,0)" font-family="Sans Serif" font-size="9pt" font-weight="400" font-style="normal"  > <rect x="64" y="0" width="102" height="232"/> </g>      <g fill="none" stroke="none" transform="matrix(0,1,-1,0,101,1)" font-family="Sans Serif" font-size="9pt" font-weight="400" font-style="normal"  > <rect x="0" y="0" width="230" height="100"/> </g>                                                                                        <g fill="#808080" fill-opacity="1" stroke="#808080" stroke-opacity="1" stroke-width="1" stroke-linecap="square" stroke-linejoin="bevel" transform="matrix(0,1,-1,0,79.75,1)" font-family="Sans Serif" font-size="9pt" font-weight="400" font-style="normal"  > <circle cx="5" cy="5" r="5"/> </g>                  <g fill="none" stroke="#000000" stroke-opacity="1" stroke-width="1" stroke-linecap="butt" stroke-linejoin="bevel" transform="matrix(0,1,-1,0,101,11)" font-family="Sans Serif" font-size="9pt" font-weight="400" font-style="normal"  > <polyline fill="none" vector-effect="non-scaling-stroke" points="70,5 70,47.5 " /> </g>            <g fill="none" stroke="#000000" stroke-opacity="1" stroke-width="1" stroke-linecap="butt" stroke-linejoin="bevel" transform="matrix(0,1,-1,0,101,11)" font-family="Sans Serif" font-size="9pt" font-weight="400" font-style="normal"  > <polyline fill="none" vector-effect="non-scaling-stroke" points="0,26.25 60,26.25 " /> </g>      <g fill="#9370db" fill-opacity="1" stroke="#9370db" stroke-opacity="1" stroke-width="1" stroke-linecap="square" stroke-linejoin="bevel" transform="matrix(0,1,-1,0,79.75,71)" font-family="Sans Serif" font-size="9pt" font-weight="400" font-style="normal"  > <circle cx="5" cy="5" r="5"/> </g>                        <g fill="none" stroke="#000000" stroke-opacity="1" stroke-width="1" stroke-linecap="butt" stroke-linejoin="bevel" transform="matrix(0,1,-1,0,101,81)" font-family="Sans Serif" font-size="9pt" font-weight="400" font-style="normal"  > <polyline fill="none" vector-effect="non-scaling-stroke" points="0,5 60,5 " /> </g>      <g fill="#6a5acd" fill-opacity="1" stroke="#6a5acd" stroke-opacity="1" stroke-width="1" stroke-linecap="square" stroke-linejoin="bevel" transform="matrix(0,1,-1,0,101,141)" font-family="Sans Serif" font-size="9pt" font-weight="400" font-style="normal"  > <circle cx="5" cy="5" r="5"/> </g>                  <g fill="none" stroke="#000000" stroke-opacity="1" stroke-width="1" stroke-linecap="butt" stroke-linejoin="bevel" transform="matrix(0,1,-1,0,91,81)" font-family="Sans Serif" font-size="9pt" font-weight="400" font-style="normal"  > <polyline fill="none" vector-effect="non-scaling-stroke" points="100,5 100,70 " /> </g>            <g fill="none" stroke="#000000" stroke-opacity="1" stroke-width="1" stroke-linecap="butt" stroke-linejoin="bevel" transform="matrix(0,1,-1,0,91,81)" font-family="Sans Serif" font-size="9pt" font-weight="400" font-style="normal"  > <polyline fill="none" vector-effect="non-scaling-stroke" points="0,37.5 90,37.5 " /> </g>      <g fill="#5f9ea0" fill-opacity="1" stroke="#5f9ea0" stroke-opacity="1" stroke-width="1" stroke-linecap="square" stroke-linejoin="bevel" transform="matrix(0,1,-1,0,58.5,171)" font-family="Sans Serif" font-size="9pt" font-weight="400" font-style="normal"  > <circle cx="5" cy="5" r="5"/> </g>                        <g fill="none" stroke="#000000" stroke-opacity="1" stroke-width="1" stroke-linecap="butt" stroke-linejoin="bevel" transform="matrix(0,1,-1,0,91,181)" font-family="Sans Serif" font-size="9pt" font-weight="400" font-style="normal"  > <polyline fill="none" vector-effect="non-scaling-stroke" points="0,5 30,5 " /> </g>      <g fill="#f8f8ff" fill-opacity="1" stroke="#f8f8ff" stroke-opacity="1" stroke-width="1" stroke-linecap="square" stroke-linejoin="bevel" transform="matrix(0,1,-1,0,91,211)" font-family="Sans Serif" font-size="9pt" font-weight="400" font-style="normal"  > <circle cx="5" cy="5" r="5"/> </g>                  <g fill="none" stroke="#000000" stroke-opacity="1" stroke-width="1" stroke-linecap="butt" stroke-linejoin="bevel" transform="matrix(0,1,-1,0,81,181)" font-family="Sans Serif" font-size="9pt" font-weight="400" font-style="normal"  > <polyline fill="none" vector-effect="non-scaling-stroke" points="10,5 10,15 " /> </g>                  <g fill="#5f9ea0" fill-opacity="1" stroke="#5f9ea0" stroke-opacity="1" stroke-width="1" stroke-linecap="square" stroke-linejoin="bevel" transform="matrix(0,1,-1,0,76,181)" font-family="Sans Serif" font-size="9pt" font-weight="400" font-style="normal"  > <circle cx="5" cy="5" r="5"/> </g>                        <g fill="none" stroke="#000000" stroke-opacity="1" stroke-width="1" stroke-linecap="butt" stroke-linejoin="bevel" transform="matrix(0,1,-1,0,81,191)" font-family="Sans Serif" font-size="9pt" font-weight="400" font-style="normal"  > <polyline fill="none" vector-effect="non-scaling-stroke" points="0,5 30,5 " /> </g>      <g fill="#f5fffa" fill-opacity="1" stroke="#f5fffa" stroke-opacity="1" stroke-width="1" stroke-linecap="square" stroke-linejoin="bevel" transform="matrix(0,1,-1,0,81,221)" font-family="Sans Serif" font-size="9pt" font-weight="400" font-style="normal"  > <circle cx="5" cy="5" r="5"/> </g>                        <g fill="none" stroke="#000000" stroke-opacity="1" stroke-width="1" stroke-linecap="butt" stroke-linejoin="bevel" transform="matrix(0,1,-1,0,71,191)" font-family="Sans Serif" font-size="9pt" font-weight="400" font-style="normal"  > <polyline fill="none" vector-effect="non-scaling-stroke" points="0,5 30,5 " /> </g>      <g fill="#ffff00" fill-opacity="1" stroke="#ffff00" stroke-opacity="1" stroke-width="1" stroke-linecap="square" stroke-linejoin="bevel" transform="matrix(0,1,-1,0,71,221)" font-family="Sans Serif" font-size="9pt" font-weight="400" font-style="normal"  > <circle cx="5" cy="5" r="5"/> </g>                  <g fill="none" stroke="#000000" stroke-opacity="1" stroke-width="1" stroke-linecap="butt" stroke-linejoin="bevel" transform="matrix(0,1,-1,0,61,181)" font-family="Sans Serif" font-size="9pt" font-weight="400" font-style="normal"  > <polyline fill="none" vector-effect="non-scaling-stroke" points="40,5 40,15 " /> </g>            <g fill="none" stroke="#000000" stroke-opacity="1" stroke-width="1" stroke-linecap="butt" stroke-linejoin="bevel" transform="matrix(0,1,-1,0,61,181)" font-family="Sans Serif" font-size="9pt" font-weight="400" font-style="normal"  > <polyline fill="none" vector-effect="non-scaling-stroke" points="0,10 30,10 " /> </g>      <g fill="#8b4513" fill-opacity="1" stroke="#8b4513" stroke-opacity="1" stroke-width="1" stroke-linecap="square" stroke-linejoin="bevel" transform="matrix(0,1,-1,0,56,211)" font-family="Sans Serif" font-size="9pt" font-weight="400" font-style="normal"  > <circle cx="5" cy="5" r="5"/> </g>                              <g fill="#8b4513" fill-opacity="1" stroke="#8b4513" stroke-opacity="1" stroke-width="1" stroke-linecap="square" stroke-linejoin="bevel" transform="matrix(0,1,-1,0,61,221)" font-family="Sans Serif" font-size="9pt" font-weight="400" font-style="normal"  > <circle cx="5" cy="5" r="5"/> </g>                              <g fill="#8b4513" fill-opacity="1" stroke="#8b4513" stroke-opacity="1" stroke-width="1" stroke-linecap="square" stroke-linejoin="bevel" transform="matrix(0,1,-1,0,51,221)" font-family="Sans Serif" font-size="9pt" font-weight="400" font-style="normal"  > <circle cx="5" cy="5" r="5"/> </g>                  <g fill="none" stroke="#000000" stroke-opacity="1" stroke-width="1" stroke-linecap="butt" stroke-linejoin="bevel" transform="matrix(0,1,-1,0,41,181)" font-family="Sans Serif" font-size="9pt" font-weight="400" font-style="normal"  > <polyline fill="none" vector-effect="non-scaling-stroke" points="10,5 10,35 " /> </g>                  <g fill="#5f9ea0" fill-opacity="1" stroke="#5f9ea0" stroke-opacity="1" stroke-width="1" stroke-linecap="square" stroke-linejoin="bevel" transform="matrix(0,1,-1,0,26,181)" font-family="Sans Serif" font-size="9pt" font-weight="400" font-style="normal"  > <circle cx="5" cy="5" r="5"/> </g>                        <g fill="none" stroke="#000000" stroke-opacity="1" stroke-width="1" stroke-linecap="butt" stroke-linejoin="bevel" transform="matrix(0,1,-1,0,41,191)" font-family="Sans Serif" font-size="9pt" font-weight="400" font-style="normal"  > <polyline fill="none" vector-effect="non-scaling-stroke" points="0,5 30,5 " /> </g>      <g fill="#f0fff0" fill-opacity="1" stroke="#f0fff0" stroke-opacity="1" stroke-width="1" stroke-linecap="square" stroke-linejoin="bevel" transform="matrix(0,1,-1,0,41,221)" font-family="Sans Serif" font-size="9pt" font-weight="400" font-style="normal"  > <circle cx="5" cy="5" r="5"/> </g>                              <g fill="#5f9ea0" fill-opacity="1" stroke="#5f9ea0" stroke-opacity="1" stroke-width="1" stroke-linecap="square" stroke-linejoin="bevel" transform="matrix(0,1,-1,0,31,191)" font-family="Sans Serif" font-size="9pt" font-weight="400" font-style="normal"  > <circle cx="5" cy="5" r="5"/> </g>                        <g fill="none" stroke="#000000" stroke-opacity="1" stroke-width="1" stroke-linecap="butt" stroke-linejoin="bevel" transform="matrix(0,1,-1,0,21,191)" font-family="Sans Serif" font-size="9pt" font-weight="400" font-style="normal"  > <polyline fill="none" vector-effect="non-scaling-stroke" points="0,5 30,5 " /> </g>      <g fill="#dc143c" fill-opacity="1" stroke="#dc143c" stroke-opacity="1" stroke-width="1" stroke-linecap="square" stroke-linejoin="bevel" transform="matrix(0,1,-1,0,21,221)" font-family="Sans Serif" font-size="9pt" font-weight="400" font-style="normal"  > <circle cx="5" cy="5" r="5"/> </g>                        <g fill="none" stroke="#000000" stroke-opacity="1" stroke-width="1" stroke-linecap="butt" stroke-linejoin="bevel" transform="matrix(0,1,-1,0,11,191)" font-family="Sans Serif" font-size="9pt" font-weight="400" font-style="normal"  > <polyline fill="none" vector-effect="non-scaling-stroke" points="0,5 30,5 " /> </g>      <g fill="#00ced1" fill-opacity="1" stroke="#00ced1" stroke-opacity="1" stroke-width="1" stroke-linecap="square" stroke-linejoin="bevel" transform="matrix(0,1,-1,0,11,221)" font-family="Sans Serif" font-size="9pt" font-weight="400" font-style="normal"  > <circle cx="5" cy="5" r="5"/> </g>                                                                                 </g> </svg> 