<?xml version="1.0" encoding="UTF-8" standalone="no"?> <svg width="203.2mm" height="101.6mm"  viewBox="0 0 576.135 288.641"  xmlns="http://www.w3.org/2000/svg" xmlns:xlink="http://www.w3.org/1999/xlink"  version="1.2" baseProfile="tiny"> <title>Generated with ETE http://etetoolkit.org</title> <desc>Generated with ETE http://etetoolkit.org</desc> <defs> </defs> <g fill="none" stroke="black" stroke-width="1" fill-rule="evenodd" stroke-linecap="square" stroke-linejoin="bevel" >      <g fill="none" stroke="none" transform="matrix(1,0,0,1,0,-142.747)" font-family=".SF NS Text" font-size="13pt" font-weight="400" font-style="normal"  > <rect x="0" y="142.747" width="576.135" height="288.641"/> </g>      <g fill="none" stroke="none" transform="matrix(0,1,-1,0,575.135,1)" font-family=".SF NS Text" font-size="13pt" font-weight="400" font-style="normal"  > <rect x="0" y="0" width="286.641" height="574.135"/> </g>                                                                                                                                                                      <g fill="none" stroke="#000000" stroke-opacity="1" stroke-width="1" stroke-linecap="butt" stroke-linejoin="bevel" transform="matrix(0,1,-1,0,575.135,1)" font-family=".SF NS Text" font-size="13pt" font-weight="400" font-style="normal"  > <polyline fill="none" vector-effect="non-scaling-stroke" points="6,18.5 6,384.977 " /> </g>                      <g fill="#808080" fill-opacity="1" stroke="#808080" stroke-opacity="1" stroke-width="1" stroke-linecap="square" stroke-linejoin="bevel" transform="matrix(1,0,0,1,369.396,0.5)" font-family=".SF NS Text" font-size="13pt" font-weight="400" font-style="normal"  > <circle cx="3" cy="3" r="3"/> </g>              <g fill="none" stroke="#000000" stroke-opacity="1" stroke-width="1" stroke-linecap="butt" stroke-linejoin="bevel" transform="matrix(0,1,-1,0,575.135,7)" font-family=".SF NS Text" font-size="13pt" font-weight="400" font-style="normal"  > <polyline fill="none" vector-effect="non-scaling-stroke" points="96,9 96,30.5 " /> </g>            <g fill="none" stroke="#000000" stroke-opacity="1" stroke-width="3" stroke-linecap="butt" stroke-linejoin="bevel" transform="matrix(0,1,-1,0,575.135,7)" font-family=".SF NS Text" font-size="13pt" font-weight="400" font-style="normal"  > <polyline fill="none" vector-effect="none" points="0,20 90,20 " /> </g>          <g fill="#696969" fill-opacity="1" stroke="#696969" stroke-opacity="1" stroke-width="1" stroke-linecap="square" stroke-linejoin="bevel" transform="matrix(1,0,0,1,551.635,96.5)" font-family=".SF NS Text" font-size="13pt" font-weight="400" font-style="normal"  > <circle cx="3" cy="3" r="3"/> </g>                    <g fill="none" stroke="#000000" stroke-opacity="1" stroke-width="2" stroke-linecap="butt" stroke-linejoin="bevel" transform="matrix(0,1,-1,0,575.135,103)" font-family=".SF NS Text" font-size="13pt" font-weight="400" font-style="normal"  > <polyline fill="none" vector-effect="none" points="0,10 45,10 " /> </g>          <g fill="#f5deb3" fill-opacity="1" stroke="#f5deb3" stroke-opacity="1" stroke-width="1" stroke-linecap="square" stroke-linejoin="bevel" transform="matrix(1,0,0,1,554.635,147.5)" font-family=".SF NS Text" font-size="13pt" font-weight="400" font-style="normal"  > <circle cx="10" cy="10" r="10"/> </g>  <g fill="#f5deb3" fill-opacity="1" stroke="#000000" stroke-opacity="1" stroke-width="1" stroke-linecap="square" stroke-linejoin="bevel" transform="matrix(1,0,0,1,554.635,147.5)" font-family="Verdana" font-size="12pt" font-weight="400" font-style="normal"  > <text fill="#000000" fill-opacity="1" stroke="none" xml:space="preserve" x="6" y="18" font-family="Verdana" font-size="12pt" font-weight="400" font-style="normal"   >1</text> </g>                    <g fill="none" stroke="#000000" stroke-opacity="1" stroke-width="1" stroke-linecap="butt" stroke-linejoin="bevel" transform="matrix(0,1,-1,0,555.135,103)" font-family=".SF NS Text" font-size="13pt" font-weight="400" font-style="normal"  > <polyline fill="none" vector-effect="none" points="0,10 22.5,10 " /> </g>          <g fill="#00fa9a" fill-opacity="1" stroke="#00fa9a" stroke-opacity="1" stroke-width="1" stroke-linecap="square" stroke-linejoin="bevel" transform="matrix(1,0,0,1,534.635,125)" font-family=".SF NS Text" font-size="13pt" font-weight="400" font-style="normal"  > <circle cx="10" cy="10" r="10"/> </g>  <g fill="#00fa9a" fill-opacity="1" stroke="#000000" stroke-opacity="1" stroke-width="1" stroke-linecap="square" stroke-linejoin="bevel" transform="matrix(1,0,0,1,534.635,125)" font-family="Verdana" font-size="12pt" font-weight="400" font-style="normal"  > <text fill="#000000" fill-opacity="1" stroke="none" xml:space="preserve" x="6" y="18" font-family="Verdana" font-size="12pt" font-weight="400" font-style="normal"   >1</text> </g>              <g fill="none" stroke="#000000" stroke-opacity="1" stroke-width="1" stroke-linecap="butt" stroke-linejoin="bevel" transform="matrix(0,1,-1,0,535.135,7)" font-family=".SF NS Text" font-size="13pt" font-weight="400" font-style="normal"  > <polyline fill="none" vector-effect="non-scaling-stroke" points="50.7843,13.6421 50.7843,14.6421 " /> </g>            <g fill="none" stroke="#000000" stroke-opacity="1" stroke-width="1" stroke-linecap="butt" stroke-linejoin="bevel" transform="matrix(0,1,-1,0,535.135,7)" font-family=".SF NS Text" font-size="13pt" font-weight="400" font-style="normal"  > <polyline fill="none" vector-effect="none" points="0,14.1421 22.5,14.1421 " /> </g>          <g fill="#4682b4" fill-opacity="1" stroke="#4682b4" stroke-opacity="1" stroke-width="1" stroke-linecap="square" stroke-linejoin="bevel" transform="matrix(1,0,0,1,506.351,29)" font-family=".SF NS Text" font-size="13pt" font-weight="400" font-style="normal"  > <circle cx="14.1421" cy="14.1421" r="14.1421"/> </g>  <g fill="#4682b4" fill-opacity="1" stroke="#000000" stroke-opacity="1" stroke-width="1" stroke-linecap="square" stroke-linejoin="bevel" transform="matrix(1,0,0,1,506.351,29)" font-family="Verdana" font-size="12pt" font-weight="400" font-style="normal"  > <text fill="#000000" fill-opacity="1" stroke="none" xml:space="preserve" x="10" y="22" font-family="Verdana" font-size="12pt" font-weight="400" font-style="normal"   >2</text> </g>                    <g fill="none" stroke="#000000" stroke-opacity="1" stroke-width="1" stroke-linecap="butt" stroke-linejoin="bevel" transform="matrix(0,1,-1,0,530.993,57.7843)" font-family=".SF NS Text" font-size="13pt" font-weight="400" font-style="normal"  > <polyline fill="none" vector-effect="none" points="0,10 22.5,10 " /> </g>          <g fill="#ff00ff" fill-opacity="1" stroke="#ff00ff" stroke-opacity="1" stroke-width="1" stroke-linecap="square" stroke-linejoin="bevel" transform="matrix(1,0,0,1,510.493,79.7843)" font-family=".SF NS Text" font-size="13pt" font-weight="400" font-style="normal"  > <circle cx="10" cy="10" r="10"/> </g>  <g fill="#ff00ff" fill-opacity="1" stroke="#000000" stroke-opacity="1" stroke-width="1" stroke-linecap="square" stroke-linejoin="bevel" transform="matrix(1,0,0,1,510.493,79.7843)" font-family="Verdana" font-size="12pt" font-weight="400" font-style="normal"  > <text fill="#000000" fill-opacity="1" stroke="none" xml:space="preserve" x="6" y="18" font-family="Verdana" font-size="12pt" font-weight="400" font-style="normal"   >1</text> </g>              <g fill="none" stroke="#000000" stroke-opacity="1" stroke-width="1" stroke-linecap="butt" stroke-linejoin="bevel" transform="matrix(0,1,-1,0,506.851,7)" font-family=".SF NS Text" font-size="13pt" font-weight="400" font-style="normal"  > <polyline fill="none" vector-effect="non-scaling-stroke" points="89.7214,9.5 89.7214,143.66 " /> </g>            <g fill="none" stroke="#000000" stroke-opacity="1" stroke-width="1" stroke-linecap="butt" stroke-linejoin="bevel" transform="matrix(0,1,-1,0,506.851,7)" font-family=".SF NS Text" font-size="13pt" font-weight="400" font-style="normal"  > <polyline fill="none" vector-effect="none" points="0,76.8301 45,76.8301 " /> </g>          <g fill="#ffdab9" fill-opacity="1" stroke="#ffdab9" stroke-opacity="1" stroke-width="1" stroke-linecap="square" stroke-linejoin="bevel" transform="matrix(1,0,0,1,407.16,51.5)" font-family=".SF NS Text" font-size="13pt" font-weight="400" font-style="normal"  > <circle cx="22.3607" cy="22.3607" r="22.3607"/> </g>  <g fill="#ffdab9" fill-opacity="1" stroke="#000000" stroke-opacity="1" stroke-width="1" stroke-linecap="square" stroke-linejoin="bevel" transform="matrix(1,0,0,1,407.16,51.5)" font-family="Verdana" font-size="12pt" font-weight="400" font-style="normal"  > <text fill="#000000" fill-opacity="1" stroke="none" xml:space="preserve" x="18" y="30" font-family="Verdana" font-size="12pt" font-weight="400" font-style="normal"   >5</text> </g>                    <g fill="none" stroke="#000000" stroke-opacity="1" stroke-width="1" stroke-linecap="butt" stroke-linejoin="bevel" transform="matrix(0,1,-1,0,506.851,96.7214)" font-family=".SF NS Text" font-size="13pt" font-weight="400" font-style="normal"  > <polyline fill="none" vector-effect="none" points="0,10 45,10 " /> </g>          <g fill="#fff5ee" fill-opacity="1" stroke="#fff5ee" stroke-opacity="1" stroke-width="1" stroke-linecap="square" stroke-linejoin="bevel" transform="matrix(1,0,0,1,486.351,141.221)" font-family=".SF NS Text" font-size="13pt" font-weight="400" font-style="normal"  > <circle cx="10" cy="10" r="10"/> </g>  <g fill="#fff5ee" fill-opacity="1" stroke="#000000" stroke-opacity="1" stroke-width="1" stroke-linecap="square" stroke-linejoin="bevel" transform="matrix(1,0,0,1,486.351,141.221)" font-family="Verdana" font-size="12pt" font-weight="400" font-style="normal"  > <text fill="#000000" fill-opacity="1" stroke="none" xml:space="preserve" x="6" y="18" font-family="Verdana" font-size="12pt" font-weight="400" font-style="normal"   >1</text> </g>                    <g fill="none" stroke="#000000" stroke-opacity="1" stroke-width="1" stroke-linecap="butt" stroke-linejoin="bevel" transform="matrix(0,1,-1,0,486.851,96.7214)" font-family=".SF NS Text" font-size="13pt" font-weight="400" font-style="normal"  > <polyline fill="none" vector-effect="none" points="0,10 22.5,10 " /> </g>          <g fill="#00bfff" fill-opacity="1" stroke="#00bfff" stroke-opacity="1" stroke-width="1" stroke-linecap="square" stroke-linejoin="bevel" transform="matrix(1,0,0,1,466.351,118.721)" font-family=".SF NS Text" font-size="13pt" font-weight="400" font-style="normal"  > <circle cx="10" cy="10" r="10"/> </g>  <g fill="#00bfff" fill-opacity="1" stroke="#000000" stroke-opacity="1" stroke-width="1" stroke-linecap="square" stroke-linejoin="bevel" transform="matrix(1,0,0,1,466.351,118.721)" font-family="Verdana" font-size="12pt" font-weight="400" font-style="normal"  > <text fill="#000000" fill-opacity="1" stroke="none" xml:space="preserve" x="6" y="18" font-family="Verdana" font-size="12pt" font-weight="400" font-style="normal"   >1</text> </g>                    <g fill="none" stroke="#000000" stroke-opacity="1" stroke-width="1" stroke-linecap="butt" stroke-linejoin="bevel" transform="matrix(0,1,-1,0,466.851,96.7214)" font-family=".SF NS Text" font-size="13pt" font-weight="400" font-style="normal"  > <polyline fill="none" vector-effect="none" points="0,10 22.5,10 " /> </g>          <g fill="#fff0f5" fill-opacity="1" stroke="#fff0f5" stroke-opacity="1" stroke-width="1" stroke-linecap="square" stroke-linejoin="bevel" transform="matrix(1,0,0,1,446.351,118.721)" font-family=".SF NS Text" font-size="13pt" font-weight="400" font-style="normal"  > <circle cx="10" cy="10" r="10"/> </g>  <g fill="#fff0f5" fill-opacity="1" stroke="#000000" stroke-opacity="1" stroke-width="1" stroke-linecap="square" stroke-linejoin="bevel" transform="matrix(1,0,0,1,446.351,118.721)" font-family="Verdana" font-size="12pt" font-weight="400" font-style="normal"  > <text fill="#000000" fill-opacity="1" stroke="none" xml:space="preserve" x="6" y="18" font-family="Verdana" font-size="12pt" font-weight="400" font-style="normal"   >1</text> </g>                    <g fill="none" stroke="#000000" stroke-opacity="1" stroke-width="1" stroke-linecap="butt" stroke-linejoin="bevel" transform="matrix(0,1,-1,0,446.851,96.7214)" font-family=".SF NS Text" font-size="13pt" font-weight="400" font-style="normal"  > <polyline fill="none" vector-effect="none" points="0,10 22.5,10 " /> </g>          <g fill="#f0fff0" fill-opacity="1" stroke="#f0fff0" stroke-opacity="1" stroke-width="1" stroke-linecap="square" stroke-linejoin="bevel" transform="matrix(1,0,0,1,426.351,118.721)" font-family=".SF NS Text" font-size="13pt" font-weight="400" font-style="normal"  > <circle cx="10" cy="10" r="10"/> </g>  <g fill="#f0fff0" fill-opacity="1" stroke="#000000" stroke-opacity="1" stroke-width="1" stroke-linecap="square" stroke-linejoin="bevel" transform="matrix(1,0,0,1,426.351,118.721)" font-family="Verdana" font-size="12pt" font-weight="400" font-style="normal"  > <text fill="#000000" fill-opacity="1" stroke="none" xml:space="preserve" x="6" y="18" font-family="Verdana" font-size="12pt" font-weight="400" font-style="normal"   >1</text> </g>                    <g fill="none" stroke="#000000" stroke-opacity="1" stroke-width="1" stroke-linecap="butt" stroke-linejoin="bevel" transform="matrix(0,1,-1,0,426.851,96.7214)" font-family=".SF NS Text" font-size="13pt" font-weight="400" font-style="normal"  > <polyline fill="none" vector-effect="none" points="0,10 22.5,10 " /> </g>          <g fill="#008080" fill-opacity="1" stroke="#008080" stroke-opacity="1" stroke-width="1" stroke-linecap="square" stroke-linejoin="bevel" transform="matrix(1,0,0,1,406.351,118.721)" font-family=".SF NS Text" font-size="13pt" font-weight="400" font-style="normal"  > <circle cx="10" cy="10" r="10"/> </g>  <g fill="#008080" fill-opacity="1" stroke="#000000" stroke-opacity="1" stroke-width="1" stroke-linecap="square" stroke-linejoin="bevel" transform="matrix(1,0,0,1,406.351,118.721)" font-family="Verdana" font-size="12pt" font-weight="400" font-style="normal"  > <text fill="#000000" fill-opacity="1" stroke="none" xml:space="preserve" x="6" y="18" font-family="Verdana" font-size="12pt" font-weight="400" font-style="normal"   >1</text> </g>              <g fill="none" stroke="#000000" stroke-opacity="1" stroke-width="1" stroke-linecap="butt" stroke-linejoin="bevel" transform="matrix(0,1,-1,0,406.851,96.7214)" font-family=".SF NS Text" font-size="13pt" font-weight="400" font-style="normal"  > <polyline fill="none" vector-effect="non-scaling-stroke" points="50.7843,9.5 50.7843,78.3205 " /> </g>            <g fill="none" stroke="#000000" stroke-opacity="1" stroke-dasharray="4,2" stroke-dashoffset="0" stroke-width="1" stroke-linecap="butt" stroke-linejoin="bevel" transform="matrix(0,1,-1,0,406.851,96.7214)" font-family=".SF NS Text" font-size="13pt" font-weight="400" font-style="normal"  > <polyline fill="none" vector-effect="non-scaling-stroke" points="0,43.6603 22.5,43.6603 " /> </g>          <g fill="#b0e0e6" fill-opacity="1" stroke="#b0e0e6" stroke-opacity="1" stroke-width="1" stroke-linecap="square" stroke-linejoin="bevel" transform="matrix(1,0,0,1,348.548,118.721)" font-family=".SF NS Text" font-size="13pt" font-weight="400" font-style="normal"  > <circle cx="14.1421" cy="14.1421" r="14.1421"/> </g>  <g fill="#b0e0e6" fill-opacity="1" stroke="#000000" stroke-opacity="1" stroke-width="1" stroke-linecap="square" stroke-linejoin="bevel" transform="matrix(1,0,0,1,348.548,118.721)" font-family="Verdana" font-size="12pt" font-weight="400" font-style="normal"  > <text fill="#000000" fill-opacity="1" stroke="none" xml:space="preserve" x="10" y="22" font-family="Verdana" font-size="12pt" font-weight="400" font-style="normal"   >2</text> </g>                    <g fill="none" stroke="#000000" stroke-opacity="1" stroke-width="1" stroke-linecap="butt" stroke-linejoin="bevel" transform="matrix(0,1,-1,0,406.851,147.506)" font-family=".SF NS Text" font-size="13pt" font-weight="400" font-style="normal"  > <polyline fill="none" vector-effect="none" points="0,10 22.5,10 " /> </g>          <g fill="#fdf5e6" fill-opacity="1" stroke="#fdf5e6" stroke-opacity="1" stroke-width="1" stroke-linecap="square" stroke-linejoin="bevel" transform="matrix(1,0,0,1,386.351,169.506)" font-family=".SF NS Text" font-size="13pt" font-weight="400" font-style="normal"  > <circle cx="10" cy="10" r="10"/> </g>  <g fill="#fdf5e6" fill-opacity="1" stroke="#000000" stroke-opacity="1" stroke-width="1" stroke-linecap="square" stroke-linejoin="bevel" transform="matrix(1,0,0,1,386.351,169.506)" font-family="Verdana" font-size="12pt" font-weight="400" font-style="normal"  > <text fill="#000000" fill-opacity="1" stroke="none" xml:space="preserve" x="6" y="18" font-family="Verdana" font-size="12pt" font-weight="400" font-style="normal"   >1</text> </g>                    <g fill="none" stroke="#000000" stroke-opacity="1" stroke-width="2" stroke-linecap="butt" stroke-linejoin="bevel" transform="matrix(0,1,-1,0,386.851,147.506)" font-family=".SF NS Text" font-size="13pt" font-weight="400" font-style="normal"  > <polyline fill="none" vector-effect="none" points="0,10 45,10 " /> </g>          <g fill="#000000" fill-opacity="1" stroke="#000000" stroke-opacity="1" stroke-width="1" stroke-linecap="square" stroke-linejoin="bevel" transform="matrix(1,0,0,1,366.351,192.006)" font-family=".SF NS Text" font-size="13pt" font-weight="400" font-style="normal"  > <circle cx="10" cy="10" r="10"/> </g>  <g fill="#000000" fill-opacity="1" stroke="#000000" stroke-opacity="1" stroke-width="1" stroke-linecap="square" stroke-linejoin="bevel" transform="matrix(1,0,0,1,366.351,192.006)" font-family="Verdana" font-size="12pt" font-weight="400" font-style="normal"  > <text fill="#000000" fill-opacity="1" stroke="none" xml:space="preserve" x="6" y="18" font-family="Verdana" font-size="12pt" font-weight="400" font-style="normal"   >1</text> </g>              <g fill="none" stroke="#000000" stroke-opacity="1" stroke-width="1" stroke-linecap="butt" stroke-linejoin="bevel" transform="matrix(0,1,-1,0,366.851,147.506)" font-family=".SF NS Text" font-size="13pt" font-weight="400" font-style="normal"  > <polyline fill="none" vector-effect="non-scaling-stroke" points="42.5,9.5 42.5,10.5 " /> </g>            <g fill="none" stroke="#000000" stroke-opacity="1" stroke-width="1" stroke-linecap="butt" stroke-linejoin="bevel" transform="matrix(0,1,-1,0,366.851,147.506)" font-family=".SF NS Text" font-size="13pt" font-weight="400" font-style="normal"  > <polyline fill="none" vector-effect="none" points="0,10 22.5,10 " /> </g>          <g fill="#00ffff" fill-opacity="1" stroke="#00ffff" stroke-opacity="1" stroke-width="1" stroke-linecap="square" stroke-linejoin="bevel" transform="matrix(1,0,0,1,346.351,169.506)" font-family=".SF NS Text" font-size="13pt" font-weight="400" font-style="normal"  > <circle cx="10" cy="10" r="10"/> </g>  <g fill="#00ffff" fill-opacity="1" stroke="#000000" stroke-opacity="1" stroke-width="1" stroke-linecap="square" stroke-linejoin="bevel" transform="matrix(1,0,0,1,346.351,169.506)" font-family="Verdana" font-size="12pt" font-weight="400" font-style="normal"  > <text fill="#000000" fill-opacity="1" stroke="none" xml:space="preserve" x="6" y="18" font-family="Verdana" font-size="12pt" font-weight="400" font-style="normal"   >1</text> </g>                    <g fill="none" stroke="#000000" stroke-opacity="1" stroke-width="1" stroke-linecap="butt" stroke-linejoin="bevel" transform="matrix(0,1,-1,0,366.851,190.006)" font-family=".SF NS Text" font-size="13pt" font-weight="400" font-style="normal"  > <polyline fill="none" vector-effect="none" points="0,10 22.5,10 " /> </g>          <g fill="#191970" fill-opacity="1" stroke="#191970" stroke-opacity="1" stroke-width="1" stroke-linecap="square" stroke-linejoin="bevel" transform="matrix(1,0,0,1,346.351,212.006)" font-family=".SF NS Text" font-size="13pt" font-weight="400" font-style="normal"  > <circle cx="10" cy="10" r="10"/> </g>  <g fill="#191970" fill-opacity="1" stroke="#000000" stroke-opacity="1" stroke-width="1" stroke-linecap="square" stroke-linejoin="bevel" transform="matrix(1,0,0,1,346.351,212.006)" font-family="Verdana" font-size="12pt" font-weight="400" font-style="normal"  > <text fill="#000000" fill-opacity="1" stroke="none" xml:space="preserve" x="6" y="18" font-family="Verdana" font-size="12pt" font-weight="400" font-style="normal"   >1</text> </g>                    <g fill="none" stroke="#000000" stroke-opacity="1" stroke-width="2" stroke-linecap="butt" stroke-linejoin="bevel" transform="matrix(0,1,-1,0,346.851,147.506)" font-family=".SF NS Text" font-size="13pt" font-weight="400" font-style="normal"  > <polyline fill="none" vector-effect="none" points="0,17.3205 45,17.3205 " /> </g>          <g fill="#778899" fill-opacity="1" stroke="#778899" stroke-opacity="1" stroke-width="1" stroke-linecap="square" stroke-linejoin="bevel" transform="matrix(1,0,0,1,311.71,192.006)" font-family=".SF NS Text" font-size="13pt" font-weight="400" font-style="normal"  > <circle cx="17.3205" cy="17.3205" r="17.3205"/> </g>  <g fill="#778899" fill-opacity="1" stroke="#000000" stroke-opacity="1" stroke-width="1" stroke-linecap="square" stroke-linejoin="bevel" transform="matrix(1,0,0,1,311.71,192.006)" font-family="Verdana" font-size="12pt" font-weight="400" font-style="normal"  > <text fill="#000000" fill-opacity="1" stroke="none" xml:space="preserve" x="13" y="25" font-family="Verdana" font-size="12pt" font-weight="400" font-style="normal"   >3</text> </g>              <g fill="none" stroke="#000000" stroke-opacity="1" stroke-width="1" stroke-linecap="butt" stroke-linejoin="bevel" transform="matrix(0,1,-1,0,312.21,7)" font-family=".SF NS Text" font-size="13pt" font-weight="400" font-style="normal"  > <polyline fill="none" vector-effect="non-scaling-stroke" points="65,9.5 65,234.103 " /> </g>            <g fill="none" stroke="#000000" stroke-opacity="1" stroke-width="1" stroke-linecap="butt" stroke-linejoin="bevel" transform="matrix(0,1,-1,0,312.21,7)" font-family=".SF NS Text" font-size="13pt" font-weight="400" font-style="normal"  > <polyline fill="none" vector-effect="none" points="0,121.551 45,121.551 " /> </g>          <g fill="#fffaf0" fill-opacity="1" stroke="#fffaf0" stroke-opacity="1" stroke-width="1" stroke-linecap="square" stroke-linejoin="bevel" transform="matrix(1,0,0,1,180.158,51.5)" font-family=".SF NS Text" font-size="13pt" font-weight="400" font-style="normal"  > <circle cx="10" cy="10" r="10"/> </g>  <g fill="#fffaf0" fill-opacity="1" stroke="#000000" stroke-opacity="1" stroke-width="1" stroke-linecap="square" stroke-linejoin="bevel" transform="matrix(1,0,0,1,180.158,51.5)" font-family="Verdana" font-size="12pt" font-weight="400" font-style="normal"  > <text fill="#000000" fill-opacity="1" stroke="none" xml:space="preserve" x="6" y="18" font-family="Verdana" font-size="12pt" font-weight="400" font-style="normal"   >1</text> </g>                    <g fill="none" stroke="#000000" stroke-opacity="1" stroke-width="1" stroke-linecap="butt" stroke-linejoin="bevel" transform="matrix(0,1,-1,0,312.21,72)" font-family=".SF NS Text" font-size="13pt" font-weight="400" font-style="normal"  > <polyline fill="none" vector-effect="none" points="0,10 45,10 " /> </g>          <g fill="#7fff00" fill-opacity="1" stroke="#7fff00" stroke-opacity="1" stroke-width="1" stroke-linecap="square" stroke-linejoin="bevel" transform="matrix(1,0,0,1,291.71,116.5)" font-family=".SF NS Text" font-size="13pt" font-weight="400" font-style="normal"  > <circle cx="10" cy="10" r="10"/> </g>  <g fill="#7fff00" fill-opacity="1" stroke="#000000" stroke-opacity="1" stroke-width="1" stroke-linecap="square" stroke-linejoin="bevel" transform="matrix(1,0,0,1,291.71,116.5)" font-family="Verdana" font-size="12pt" font-weight="400" font-style="normal"  > <text fill="#000000" fill-opacity="1" stroke="none" xml:space="preserve" x="6" y="18" font-family="Verdana" font-size="12pt" font-weight="400" font-style="normal"   >1</text> </g>                    <g fill="none" stroke="#000000" stroke-opacity="1" stroke-width="1" stroke-linecap="butt" stroke-linejoin="bevel" transform="matrix(0,1,-1,0,292.21,72)" font-family=".SF NS Text" font-size="13pt" font-weight="400" font-style="normal"  > <polyline fill="none" vector-effect="none" points="0,10 22.5,10 " /> </g>          <g fill="#dda0dd" fill-opacity="1" stroke="#dda0dd" stroke-opacity="1" stroke-width="1" stroke-linecap="square" stroke-linejoin="bevel" transform="matrix(1,0,0,1,271.71,94)" font-family=".SF NS Text" font-size="13pt" font-weight="400" font-style="normal"  > <circle cx="10" cy="10" r="10"/> </g>  <g fill="#dda0dd" fill-opacity="1" stroke="#000000" stroke-opacity="1" stroke-width="1" stroke-linecap="square" stroke-linejoin="bevel" transform="matrix(1,0,0,1,271.71,94)" font-family="Verdana" font-size="12pt" font-weight="400" font-style="normal"  > <text fill="#000000" fill-opacity="1" stroke="none" xml:space="preserve" x="6" y="18" font-family="Verdana" font-size="12pt" font-weight="400" font-style="normal"   >1</text> </g>                    <g fill="none" stroke="#000000" stroke-opacity="1" stroke-width="1" stroke-linecap="butt" stroke-linejoin="bevel" transform="matrix(0,1,-1,0,272.21,72)" font-family=".SF NS Text" font-size="13pt" font-weight="400" font-style="normal"  > <polyline fill="none" vector-effect="none" points="0,10 22.5,10 " /> </g>          <g fill="#ee82ee" fill-opacity="1" stroke="#ee82ee" stroke-opacity="1" stroke-width="1" stroke-linecap="square" stroke-linejoin="bevel" transform="matrix(1,0,0,1,251.71,94)" font-family=".SF NS Text" font-size="13pt" font-weight="400" font-style="normal"  > <circle cx="10" cy="10" r="10"/> </g>  <g fill="#ee82ee" fill-opacity="1" stroke="#000000" stroke-opacity="1" stroke-width="1" stroke-linecap="square" stroke-linejoin="bevel" transform="matrix(1,0,0,1,251.71,94)" font-family="Verdana" font-size="12pt" font-weight="400" font-style="normal"  > <text fill="#000000" fill-opacity="1" stroke="none" xml:space="preserve" x="6" y="18" font-family="Verdana" font-size="12pt" font-weight="400" font-style="normal"   >1</text> </g>                    <g fill="none" stroke="#000000" stroke-opacity="1" stroke-width="3" stroke-linecap="butt" stroke-linejoin="bevel" transform="matrix(0,1,-1,0,252.21,72)" font-family=".SF NS Text" font-size="13pt" font-weight="400" font-style="normal"  > <polyline fill="none" vector-effect="none" points="0,10 112.5,10 " /> </g>          <g fill="#ff0000" fill-opacity="1" stroke="#ff0000" stroke-opacity="1" stroke-width="1" stroke-linecap="square" stroke-linejoin="bevel" transform="matrix(1,0,0,1,231.71,184)" font-family=".SF NS Text" font-size="13pt" font-weight="400" font-style="normal"  > <circle cx="10" cy="10" r="10"/> </g>  <g fill="#ff0000" fill-opacity="1" stroke="#000000" stroke-opacity="1" stroke-width="1" stroke-linecap="square" stroke-linejoin="bevel" transform="matrix(1,0,0,1,231.71,184)" font-family="Verdana" font-size="12pt" font-weight="400" font-style="normal"  > <text fill="#000000" fill-opacity="1" stroke="none" xml:space="preserve" x="6" y="18" font-family="Verdana" font-size="12pt" font-weight="400" font-style="normal"   >1</text> </g>              <g fill="none" stroke="#000000" stroke-opacity="1" stroke-width="1" stroke-linecap="butt" stroke-linejoin="bevel" transform="matrix(0,1,-1,0,232.21,72)" font-family=".SF NS Text" font-size="13pt" font-weight="400" font-style="normal"  > <polyline fill="none" vector-effect="non-scaling-stroke" points="57.141,16.8205 57.141,17.8205 " /> </g>            <g fill="none" stroke="#000000" stroke-opacity="1" stroke-dasharray="4,2" stroke-dashoffset="0" stroke-width="1" stroke-linecap="butt" stroke-linejoin="bevel" transform="matrix(0,1,-1,0,232.21,72)" font-family=".SF NS Text" font-size="13pt" font-weight="400" font-style="normal"  > <polyline fill="none" vector-effect="non-scaling-stroke" points="0,17.3205 22.5,17.3205 " /> </g>          <g fill="#ba55d3" fill-opacity="1" stroke="#ba55d3" stroke-opacity="1" stroke-width="1" stroke-linecap="square" stroke-linejoin="bevel" transform="matrix(1,0,0,1,197.069,94)" font-family=".SF NS Text" font-size="13pt" font-weight="400" font-style="normal"  > <circle cx="17.3205" cy="17.3205" r="17.3205"/> </g>  <g fill="#ba55d3" fill-opacity="1" stroke="#000000" stroke-opacity="1" stroke-width="1" stroke-linecap="square" stroke-linejoin="bevel" transform="matrix(1,0,0,1,197.069,94)" font-family="Verdana" font-size="12pt" font-weight="400" font-style="normal"  > <text fill="#000000" fill-opacity="1" stroke="none" xml:space="preserve" x="13" y="25" font-family="Verdana" font-size="12pt" font-weight="400" font-style="normal"   >3</text> </g>                    <g fill="none" stroke="#000000" stroke-opacity="1" stroke-width="1" stroke-linecap="butt" stroke-linejoin="bevel" transform="matrix(0,1,-1,0,224.889,129.141)" font-family=".SF NS Text" font-size="13pt" font-weight="400" font-style="normal"  > <polyline fill="none" vector-effect="none" points="0,10 22.5,10 " /> </g>          <g fill="#f0ffff" fill-opacity="1" stroke="#f0ffff" stroke-opacity="1" stroke-width="1" stroke-linecap="square" stroke-linejoin="bevel" transform="matrix(1,0,0,1,204.389,151.141)" font-family=".SF NS Text" font-size="13pt" font-weight="400" font-style="normal"  > <circle cx="10" cy="10" r="10"/> </g>  <g fill="#f0ffff" fill-opacity="1" stroke="#000000" stroke-opacity="1" stroke-width="1" stroke-linecap="square" stroke-linejoin="bevel" transform="matrix(1,0,0,1,204.389,151.141)" font-family="Verdana" font-size="12pt" font-weight="400" font-style="normal"  > <text fill="#000000" fill-opacity="1" stroke="none" xml:space="preserve" x="6" y="18" font-family="Verdana" font-size="12pt" font-weight="400" font-style="normal"   >1</text> </g>              <g fill="none" stroke="#000000" stroke-opacity="1" stroke-width="1" stroke-linecap="butt" stroke-linejoin="bevel" transform="matrix(0,1,-1,0,197.569,72)" font-family=".SF NS Text" font-size="13pt" font-weight="400" font-style="normal"  > <polyline fill="none" vector-effect="non-scaling-stroke" points="42.5,13.6421 42.5,48.7843 " /> </g>            <g fill="none" stroke="#000000" stroke-opacity="1" stroke-width="1" stroke-linecap="butt" stroke-linejoin="bevel" transform="matrix(0,1,-1,0,197.569,72)" font-family=".SF NS Text" font-size="13pt" font-weight="400" font-style="normal"  > <polyline fill="none" vector-effect="none" points="0,31.2132 22.5,31.2132 " /> </g>          <g fill="#f08080" fill-opacity="1" stroke="#f08080" stroke-opacity="1" stroke-width="1" stroke-linecap="square" stroke-linejoin="bevel" transform="matrix(1,0,0,1,155.855,94)" font-family=".SF NS Text" font-size="13pt" font-weight="400" font-style="normal"  > <circle cx="10" cy="10" r="10"/> </g>  <g fill="#f08080" fill-opacity="1" stroke="#000000" stroke-opacity="1" stroke-width="1" stroke-linecap="square" stroke-linejoin="bevel" transform="matrix(1,0,0,1,155.855,94)" font-family="Verdana" font-size="12pt" font-weight="400" font-style="normal"  > <text fill="#000000" fill-opacity="1" stroke="none" xml:space="preserve" x="6" y="18" font-family="Verdana" font-size="12pt" font-weight="400" font-style="normal"   >1</text> </g>                    <g fill="none" stroke="#000000" stroke-opacity="1" stroke-width="1" stroke-linecap="butt" stroke-linejoin="bevel" transform="matrix(0,1,-1,0,197.569,114.5)" font-family=".SF NS Text" font-size="13pt" font-weight="400" font-style="normal"  > <polyline fill="none" vector-effect="none" points="0,14.1421 22.5,14.1421 " /> </g>          <g fill="#bc8f8f" fill-opacity="1" stroke="#bc8f8f" stroke-opacity="1" stroke-width="1" stroke-linecap="square" stroke-linejoin="bevel" transform="matrix(1,0,0,1,168.784,136.5)" font-family=".SF NS Text" font-size="13pt" font-weight="400" font-style="normal"  > <circle cx="14.1421" cy="14.1421" r="14.1421"/> </g>  <g fill="#bc8f8f" fill-opacity="1" stroke="#000000" stroke-opacity="1" stroke-width="1" stroke-linecap="square" stroke-linejoin="bevel" transform="matrix(1,0,0,1,168.784,136.5)" font-family="Verdana" font-size="12pt" font-weight="400" font-style="normal"  > <text fill="#000000" fill-opacity="1" stroke="none" xml:space="preserve" x="10" y="22" font-family="Verdana" font-size="12pt" font-weight="400" font-style="normal"   >2</text> </g>              <g fill="none" stroke="#000000" stroke-opacity="1" stroke-width="1" stroke-linecap="butt" stroke-linejoin="bevel" transform="matrix(0,1,-1,0,169.284,114.5)" font-family=".SF NS Text" font-size="13pt" font-weight="400" font-style="normal"  > <polyline fill="none" vector-effect="non-scaling-stroke" points="28.5,9.5 28.5,30.5 " /> </g>            <g fill="none" stroke="#000000" stroke-opacity="1" stroke-width="1" stroke-linecap="butt" stroke-linejoin="bevel" transform="matrix(0,1,-1,0,169.284,114.5)" font-family=".SF NS Text" font-size="13pt" font-weight="400" font-style="normal"  > <polyline fill="none" vector-effect="none" points="0,20 22.5,20 " /> </g>          <g fill="#ff7f50" fill-opacity="1" stroke="#ff7f50" stroke-opacity="1" stroke-width="1" stroke-linecap="square" stroke-linejoin="bevel" transform="matrix(1,0,0,1,145.784,136.5)" font-family=".SF NS Text" font-size="13pt" font-weight="400" font-style="normal"  > <circle cx="3" cy="3" r="3"/> </g>                    <g fill="none" stroke="#000000" stroke-opacity="1" stroke-width="1" stroke-linecap="butt" stroke-linejoin="bevel" transform="matrix(0,1,-1,0,169.284,143)" font-family=".SF NS Text" font-size="13pt" font-weight="400" font-style="normal"  > <polyline fill="none" vector-effect="none" points="0,10 22.5,10 " /> </g>          <g fill="#8b008b" fill-opacity="1" stroke="#8b008b" stroke-opacity="1" stroke-width="1" stroke-linecap="square" stroke-linejoin="bevel" transform="matrix(1,0,0,1,148.784,165)" font-family=".SF NS Text" font-size="13pt" font-weight="400" font-style="normal"  > <circle cx="10" cy="10" r="10"/> </g>  <g fill="#8b008b" fill-opacity="1" stroke="#000000" stroke-opacity="1" stroke-width="1" stroke-linecap="square" stroke-linejoin="bevel" transform="matrix(1,0,0,1,148.784,165)" font-family="Verdana" font-size="12pt" font-weight="400" font-style="normal"  > <text fill="#000000" fill-opacity="1" stroke="none" xml:space="preserve" x="6" y="18" font-family="Verdana" font-size="12pt" font-weight="400" font-style="normal"   >1</text> </g>                    <g fill="none" stroke="#000000" stroke-opacity="1" stroke-width="1" stroke-linecap="butt" stroke-linejoin="bevel" transform="matrix(0,1,-1,0,149.284,143)" font-family=".SF NS Text" font-size="13pt" font-weight="400" font-style="normal"  > <polyline fill="none" vector-effect="none" points="0,10 22.5,10 " /> </g>          <g fill="#483d8b" fill-opacity="1" stroke="#483d8b" stroke-opacity="1" stroke-width="1" stroke-linecap="square" stroke-linejoin="bevel" transform="matrix(1,0,0,1,128.784,165)" font-family=".SF NS Text" font-size="13pt" font-weight="400" font-style="normal"  > <circle cx="10" cy="10" r="10"/> </g>  <g fill="#483d8b" fill-opacity="1" stroke="#000000" stroke-opacity="1" stroke-width="1" stroke-linecap="square" stroke-linejoin="bevel" transform="matrix(1,0,0,1,128.784,165)" font-family="Verdana" font-size="12pt" font-weight="400" font-style="normal"  > <text fill="#000000" fill-opacity="1" stroke="none" xml:space="preserve" x="6" y="18" font-family="Verdana" font-size="12pt" font-weight="400" font-style="normal"   >1</text> </g>              <g fill="none" stroke="#000000" stroke-opacity="1" stroke-width="1" stroke-linecap="butt" stroke-linejoin="bevel" transform="matrix(0,1,-1,0,129.284,72)" font-family=".SF NS Text" font-size="13pt" font-weight="400" font-style="normal"  > <polyline fill="none" vector-effect="non-scaling-stroke" points="87.5,21.5711 87.5,78.7843 " /> </g>            <g fill="none" stroke="#000000" stroke-opacity="1" stroke-width="2" stroke-linecap="butt" stroke-linejoin="bevel" transform="matrix(0,1,-1,0,129.284,72)" font-family=".SF NS Text" font-size="13pt" font-weight="400" font-style="normal"  > <polyline fill="none" vector-effect="none" points="0,50.1777 67.5,50.1777 " /> </g>          <g fill="#ffebcd" fill-opacity="1" stroke="#ffebcd" stroke-opacity="1" stroke-width="1" stroke-linecap="square" stroke-linejoin="bevel" transform="matrix(1,0,0,1,68.6066,139)" font-family=".SF NS Text" font-size="13pt" font-weight="400" font-style="normal"  > <circle cx="10" cy="10" r="10"/> </g>  <g fill="#ffebcd" fill-opacity="1" stroke="#000000" stroke-opacity="1" stroke-width="1" stroke-linecap="square" stroke-linejoin="bevel" transform="matrix(1,0,0,1,68.6066,139)" font-family="Verdana" font-size="12pt" font-weight="400" font-style="normal"  > <text fill="#000000" fill-opacity="1" stroke="none" xml:space="preserve" x="6" y="18" font-family="Verdana" font-size="12pt" font-weight="400" font-style="normal"   >1</text> </g>              <g fill="none" stroke="#000000" stroke-opacity="1" stroke-width="1" stroke-linecap="butt" stroke-linejoin="bevel" transform="matrix(0,1,-1,0,129.284,159.5)" font-family=".SF NS Text" font-size="13pt" font-weight="400" font-style="normal"  > <polyline fill="none" vector-effect="non-scaling-stroke" points="42.5,9.5 42.5,34.1421 " /> </g>            <g fill="none" stroke="#000000" stroke-opacity="1" stroke-width="1" stroke-linecap="butt" stroke-linejoin="bevel" transform="matrix(0,1,-1,0,129.284,159.5)" font-family=".SF NS Text" font-size="13pt" font-weight="400" font-style="normal"  > <polyline fill="none" vector-effect="none" points="0,22.0711 22.5,22.0711 " /> </g>          <g fill="#2e8b57" fill-opacity="1" stroke="#2e8b57" stroke-opacity="1" stroke-width="1" stroke-linecap="square" stroke-linejoin="bevel" transform="matrix(1,0,0,1,96.7132,181.5)" font-family=".SF NS Text" font-size="13pt" font-weight="400" font-style="normal"  > <circle cx="10" cy="10" r="10"/> </g>  <g fill="#2e8b57" fill-opacity="1" stroke="#000000" stroke-opacity="1" stroke-width="1" stroke-linecap="square" stroke-linejoin="bevel" transform="matrix(1,0,0,1,96.7132,181.5)" font-family="Verdana" font-size="12pt" font-weight="400" font-style="normal"  > <text fill="#000000" fill-opacity="1" stroke="none" xml:space="preserve" x="6" y="18" font-family="Verdana" font-size="12pt" font-weight="400" font-style="normal"   >1</text> </g>                    <g fill="none" stroke="#000000" stroke-opacity="1" stroke-width="1" stroke-linecap="butt" stroke-linejoin="bevel" transform="matrix(0,1,-1,0,129.284,202)" font-family=".SF NS Text" font-size="13pt" font-weight="400" font-style="normal"  > <polyline fill="none" vector-effect="none" points="0,10 22.5,10 " /> </g>          <g fill="#d2691e" fill-opacity="1" stroke="#d2691e" stroke-opacity="1" stroke-width="1" stroke-linecap="square" stroke-linejoin="bevel" transform="matrix(1,0,0,1,108.784,224)" font-family=".SF NS Text" font-size="13pt" font-weight="400" font-style="normal"  > <circle cx="10" cy="10" r="10"/> </g>  <g fill="#d2691e" fill-opacity="1" stroke="#000000" stroke-opacity="1" stroke-width="1" stroke-linecap="square" stroke-linejoin="bevel" transform="matrix(1,0,0,1,108.784,224)" font-family="Verdana" font-size="12pt" font-weight="400" font-style="normal"  > <text fill="#000000" fill-opacity="1" stroke="none" xml:space="preserve" x="6" y="18" font-family="Verdana" font-size="12pt" font-weight="400" font-style="normal"   >1</text> </g>                    <g fill="none" stroke="#000000" stroke-opacity="1" stroke-dasharray="4,2" stroke-dashoffset="0" stroke-width="1" stroke-linecap="butt" stroke-linejoin="bevel" transform="matrix(0,1,-1,0,109.284,202)" font-family=".SF NS Text" font-size="13pt" font-weight="400" font-style="normal"  > <polyline fill="none" vector-effect="non-scaling-stroke" points="0,14.1421 22.5,14.1421 " /> </g>          <g fill="#556b2f" fill-opacity="1" stroke="#556b2f" stroke-opacity="1" stroke-width="1" stroke-linecap="square" stroke-linejoin="bevel" transform="matrix(1,0,0,1,80.5,224)" font-family=".SF NS Text" font-size="13pt" font-weight="400" font-style="normal"  > <circle cx="14.1421" cy="14.1421" r="14.1421"/> </g>  <g fill="#556b2f" fill-opacity="1" stroke="#000000" stroke-opacity="1" stroke-width="1" stroke-linecap="square" stroke-linejoin="bevel" transform="matrix(1,0,0,1,80.5,224)" font-family="Verdana" font-size="12pt" font-weight="400" font-style="normal"  > <text fill="#000000" fill-opacity="1" stroke="none" xml:space="preserve" x="10" y="22" font-family="Verdana" font-size="12pt" font-weight="400" font-style="normal"   >2</text> </g>              <g fill="none" stroke="#000000" stroke-opacity="1" stroke-width="1" stroke-linecap="butt" stroke-linejoin="bevel" transform="matrix(0,1,-1,0,81,159.5)" font-family=".SF NS Text" font-size="13pt" font-weight="400" font-style="normal"  > <polyline fill="none" vector-effect="non-scaling-stroke" points="28.5,9.5 28.5,50.5 " /> </g>            <g fill="none" stroke="#000000" stroke-opacity="1" stroke-width="1" stroke-linecap="butt" stroke-linejoin="bevel" transform="matrix(0,1,-1,0,81,159.5)" font-family=".SF NS Text" font-size="13pt" font-weight="400" font-style="normal"  > <polyline fill="none" vector-effect="none" points="0,30 22.5,30 " /> </g>          <g fill="#adff2f" fill-opacity="1" stroke="#adff2f" stroke-opacity="1" stroke-width="1" stroke-linecap="square" stroke-linejoin="bevel" transform="matrix(1,0,0,1,47.5,181.5)" font-family=".SF NS Text" font-size="13pt" font-weight="400" font-style="normal"  > <circle cx="3" cy="3" r="3"/> </g>                    <g fill="none" stroke="#000000" stroke-opacity="1" stroke-width="1" stroke-linecap="butt" stroke-linejoin="bevel" transform="matrix(0,1,-1,0,81,188)" font-family=".SF NS Text" font-size="13pt" font-weight="400" font-style="normal"  > <polyline fill="none" vector-effect="none" points="0,10 22.5,10 " /> </g>          <g fill="#9acd32" fill-opacity="1" stroke="#9acd32" stroke-opacity="1" stroke-width="1" stroke-linecap="square" stroke-linejoin="bevel" transform="matrix(1,0,0,1,60.5,210)" font-family=".SF NS Text" font-size="13pt" font-weight="400" font-style="normal"  > <circle cx="10" cy="10" r="10"/> </g>  <g fill="#9acd32" fill-opacity="1" stroke="#000000" stroke-opacity="1" stroke-width="1" stroke-linecap="square" stroke-linejoin="bevel" transform="matrix(1,0,0,1,60.5,210)" font-family="Verdana" font-size="12pt" font-weight="400" font-style="normal"  > <text fill="#000000" fill-opacity="1" stroke="none" xml:space="preserve" x="6" y="18" font-family="Verdana" font-size="12pt" font-weight="400" font-style="normal"   >1</text> </g>              <g fill="none" stroke="#000000" stroke-opacity="1" stroke-width="1" stroke-linecap="butt" stroke-linejoin="bevel" transform="matrix(0,1,-1,0,61,188)" font-family=".SF NS Text" font-size="13pt" font-weight="400" font-style="normal"  > <polyline fill="none" vector-effect="non-scaling-stroke" points="57.141,9.5 57.141,50.5 " /> </g>            <g fill="none" stroke="#000000" stroke-opacity="1" stroke-width="1" stroke-linecap="butt" stroke-linejoin="bevel" transform="matrix(0,1,-1,0,61,188)" font-family=".SF NS Text" font-size="13pt" font-weight="400" font-style="normal"  > <polyline fill="none" vector-effect="none" points="0,30 22.5,30 " /> </g>          <g fill="#ffa500" fill-opacity="1" stroke="#ffa500" stroke-opacity="1" stroke-width="1" stroke-linecap="square" stroke-linejoin="bevel" transform="matrix(1,0,0,1,13.1795,210)" font-family=".SF NS Text" font-size="13pt" font-weight="400" font-style="normal"  > <circle cx="17.3205" cy="17.3205" r="17.3205"/> </g>  <g fill="#ffa500" fill-opacity="1" stroke="#000000" stroke-opacity="1" stroke-width="1" stroke-linecap="square" stroke-linejoin="bevel" transform="matrix(1,0,0,1,13.1795,210)" font-family="Verdana" font-size="12pt" font-weight="400" font-style="normal"  > <text fill="#000000" fill-opacity="1" stroke="none" xml:space="preserve" x="13" y="25" font-family="Verdana" font-size="12pt" font-weight="400" font-style="normal"   >3</text> </g>                    <g fill="none" stroke="#000000" stroke-opacity="1" stroke-width="1" stroke-linecap="butt" stroke-linejoin="bevel" transform="matrix(0,1,-1,0,61,245.141)" font-family=".SF NS Text" font-size="13pt" font-weight="400" font-style="normal"  > <polyline fill="none" vector-effect="none" points="0,10 22.5,10 " /> </g>          <g fill="#b8860b" fill-opacity="1" stroke="#b8860b" stroke-opacity="1" stroke-width="1" stroke-linecap="square" stroke-linejoin="bevel" transform="matrix(1,0,0,1,40.5,267.141)" font-family=".SF NS Text" font-size="13pt" font-weight="400" font-style="normal"  > <circle cx="10" cy="10" r="10"/> </g>  <g fill="#b8860b" fill-opacity="1" stroke="#000000" stroke-opacity="1" stroke-width="1" stroke-linecap="square" stroke-linejoin="bevel" transform="matrix(1,0,0,1,40.5,267.141)" font-family="Verdana" font-size="12pt" font-weight="400" font-style="normal"  > <text fill="#000000" fill-opacity="1" stroke="none" xml:space="preserve" x="6" y="18" font-family="Verdana" font-size="12pt" font-weight="400" font-style="normal"   >1</text> </g>                    <g fill="none" stroke="#000000" stroke-opacity="1" stroke-dasharray="4,2" stroke-dashoffset="0" stroke-width="1" stroke-linecap="butt" stroke-linejoin="bevel" transform="matrix(0,1,-1,0,41,245.141)" font-family=".SF NS Text" font-size="13pt" font-weight="400" font-style="normal"  > <polyline fill="none" vector-effect="non-scaling-stroke" points="0,10 22.5,10 " /> </g>          <g fill="#ffa07a" fill-opacity="1" stroke="#ffa07a" stroke-opacity="1" stroke-width="1" stroke-linecap="square" stroke-linejoin="bevel" transform="matrix(1,0,0,1,20.5,267.141)" font-family=".SF NS Text" font-size="13pt" font-weight="400" font-style="normal"  > <circle cx="10" cy="10" r="10"/> </g>  <g fill="#ffa07a" fill-opacity="1" stroke="#000000" stroke-opacity="1" stroke-width="1" stroke-linecap="square" stroke-linejoin="bevel" transform="matrix(1,0,0,1,20.5,267.141)" font-family="Verdana" font-size="12pt" font-weight="400" font-style="normal"  > <text fill="#000000" fill-opacity="1" stroke="none" xml:space="preserve" x="6" y="18" font-family="Verdana" font-size="12pt" font-weight="400" font-style="normal"   >1</text> </g>                    <g fill="none" stroke="#000000" stroke-opacity="1" stroke-width="1" stroke-linecap="butt" stroke-linejoin="bevel" transform="matrix(0,1,-1,0,21,245.141)" font-family=".SF NS Text" font-size="13pt" font-weight="400" font-style="normal"  > <polyline fill="none" vector-effect="none" points="0,10 22.5,10 " /> </g>          <g fill="#800000" fill-opacity="1" stroke="#800000" stroke-opacity="1" stroke-width="1" stroke-linecap="square" stroke-linejoin="bevel" transform="matrix(1,0,0,1,0.5,267.141)" font-family=".SF NS Text" font-size="13pt" font-weight="400" font-style="normal"  > <circle cx="10" cy="10" r="10"/> </g>  <g fill="#800000" fill-opacity="1" stroke="#000000" stroke-opacity="1" stroke-width="1" stroke-linecap="square" stroke-linejoin="bevel" transform="matrix(1,0,0,1,0.5,267.141)" font-family="Verdana" font-size="12pt" font-weight="400" font-style="normal"  > <text fill="#000000" fill-opacity="1" stroke="none" xml:space="preserve" x="6" y="18" font-family="Verdana" font-size="12pt" font-weight="400" font-style="normal"   >1</text> </g>                                                                                                                                                                             </g> </svg> 